<svg xmlns="http://www.w3.org/2000/svg" xmlns:xlink="http://www.w3.org/1999/xlink" width="65.075" height="65.075" viewBox="0 0 65.075 65.075">
  <defs>
    <linearGradient id="linear-gradient" x1="1" y1="0.509" x2="0.006" y2="0.507" gradientUnits="objectBoundingBox">
      <stop offset="0" stop-color="#ff5c5c"/>
      <stop offset="0.452" stop-color="#a8a8a8"/>
      <stop offset="1" stop-color="#f8be5a"/>
    </linearGradient>
  </defs>
  <path id="Union_1" data-name="Union 1" d="M-1707.55-469.463A32.534,32.534,0,0,1-1675.012-502a32.533,32.533,0,0,1,32.538,32.538,32.531,32.531,0,0,1-32.538,32.538A32.533,32.533,0,0,1-1707.55-469.463Zm13.079-19.46a27.3,27.3,0,0,0-8.074,19.46,27.3,27.3,0,0,0,8.074,19.46,27.284,27.284,0,0,0,19.458,8.071A27.293,27.293,0,0,0-1655.552-450a27.3,27.3,0,0,0,8.071-19.46,27.3,27.3,0,0,0-8.071-19.46,27.3,27.3,0,0,0-19.461-8.071A27.292,27.292,0,0,0-1694.471-488.923Zm12.684,36.4a3.019,3.019,0,0,1,0-4.271l12.5-12.687-12.813-12.687a2.983,2.983,0,0,1,0-4.255,3.035,3.035,0,0,1,4.271,0l14.923,14.971a3.017,3.017,0,0,1,.094,4.161l-14.705,14.751a3.006,3.006,0,0,1-2.142.893A3.026,3.026,0,0,1-1681.786-452.521Z" transform="translate(1707.55 502)" fill="url(#linear-gradient)"/>
</svg>
