<svg xmlns="http://www.w3.org/2000/svg" xmlns:xlink="http://www.w3.org/1999/xlink" width="24" height="18" viewBox="0 0 24 18">
    <defs>
        <path id="a" d="M24 17.545H0V.09h24z"/>
    </defs>
    <g fill="none" fill-rule="evenodd">
        <g transform="translate(0 .001)">
            <mask id="b" fill="#fff">
                <use xlink:href="#a"/>
            </mask>
            <path fill="#000" fill-rule="nonzero" d="M11.994 15.35c-3.098 0-5.921-1.667-7.492-4.389 1.57-2.722 4.394-4.389 7.492-4.389 3.099 0 5.922 1.667 7.493 4.39-1.571 2.72-4.394 4.389-7.493 4.389zM22.488 4.316l-3.275 2.886a10.802 10.802 0 0 0-1.9-1.387l1.758-3.93-1.996-.888-1.757 3.928a10.642 10.642 0 0 0-2.22-.47V.092h-2.183v4.363c-.763.076-1.506.229-2.223.462L6.937.986l-1.999.887 1.758 3.93c-.683.39-1.32.852-1.908 1.386L1.514 4.304 0 5.888l3.32 2.926a11.257 11.257 0 0 0-1.034 1.655l-.246.492.246.493c1.877 3.757 5.596 6.092 9.708 6.092 4.113 0 7.833-2.335 9.708-6.092l.247-.493-.247-.492a11.278 11.278 0 0 0-1.024-1.642L24 5.9l-1.512-1.585z" mask="url(#b)"/>
        </g>
        <path fill="#000" fill-rule="nonzero" d="M15.267 11.001a3.273 3.273 0 1 1-6.545 0 3.273 3.273 0 0 1 6.545 0"/>
    </g>
</svg>
