<svg xmlns="http://www.w3.org/2000/svg" width="97.254" height="32" viewBox="0 0 97.254 32">
  <path id="Path_1" data-name="Path 1" d="M81.75,32.409V24.417H90V16.427H81.751V8.435H97.464V26.008l-5.982,6.4H81.75Zm-17.2-6.4-6.016,6.4H33.124V24.417l-7.435,7.919V24.417h7.435V8.544L25.688,16.5V5.145L30.15.41H40.626V16.426H57.048v7.989H40.626V16.426l7.468-7.992H64.551V26.007ZM81.75,8.436v7.991H73.5v7.989H81.75v7.992H66.037v-32H73.5V16.426l7.5-7.992h.743Zm-56.062,23.9-.033.073H.21L25.688,5.145V16.5l-7.4,7.918h7.4v7.919Z" transform="translate(-0.21 -0.409)" fill="#fff" fill-rule="evenodd"/>
</svg>
