<svg xmlns="http://www.w3.org/2000/svg" width="150" height="13.855" viewBox="0 0 150 13.855">
  <g id="avangard" transform="translate(0 -0.145)">
    <path id="Path_23" data-name="Path 23" d="M0,12.511V.17L8.892.152V1.66L3.975,1.637V5.33h2c.964,0,3.8-.048,3.8,1.672v3.817C9.79,12.24,7.483,12.472,6,12.492l-6,.02ZM3.975,6.793v4.235H5.456c.2.021.36-.107.36-.4V7.211c0-.27-.09-.418-.36-.418Zm7.44,5.718L14.293.151h5.9l2.878,12.36H19.213L18.607,9.4h-2.74l-.586,3.106Zm5.733-10.59L16.07,7.656H18.4L17.35,1.92h-.2ZM25.067.152h3.908v4.97L30.75,5.1V.152h3.889v12.36H30.75V6.855H28.976v5.636l-3.908.02V.151m12.542,0h3.816V5.16L43.94.152h3.75l-2.9,5.8,3.324,6.56H44.455L41.425,6.9v5.614H37.608V.151m19.079,12.36L59.557.151h5.909l2.874,12.36H64.477L63.895,9.38H61.131l-.582,3.131H56.687ZM62.41,1.9l-1.08,5.74h2.361L62.614,1.9h-.2ZM81.076,12.511,83.95.151h5.907l2.877,12.36h-3.86l-.612-3.123H85.526l-.585,3.123ZM86.8,1.931,85.725,7.642h2.337L87.008,1.93H86.8Zm27.787,10.58,2.87-12.36h5.91l2.9,12.36h-3.89l-.6-3.116h-2.743l-.605,3.116h-3.838Zm5.7-10.58-1.055,5.721,2.338-.018-1.08-5.7h-.2ZM98.735.152V5.126h1.779V.17l3.907-.018v12.34l-3.907.02V6.867H98.735V12.51H94.827V.17L98.735.152M74.077,1.638V5.181l1.33.021c.33,0,.447-.125.447-.294V1.972c0-.186-.09-.334-.428-.334Zm-3.79,10.854V.151h5.635c3.775,0,3.66,1.234,3.66,1.8V4.506c0,.379-.094,1.51-2.145,1.446v.124c1.664-.018,2.214.505,2.214,1.283v3.4c0,.582-.229,1.712-3.754,1.732h-5.61Zm3.79-5.614v4.15h1.35c.266,0,.427-.15.427-.358V7.34c0-.275-.116-.462-.447-.462h-1.33ZM107.705.152h7.734V1.638H111.5V12.511h-3.8V.151" fill="#fff" fill-rule="evenodd"/>
    <g id="Group_1" data-name="Group 1">
      <path id="Path_24" data-name="Path 24" d="M127.938,12.492V.152h5.927c1.26,0,3.463,0,3.463,1.778V6.188c0,1.82-2.065,1.884-3.463,1.907h-2.108v4.416l-3.82-.019Zm3.82-10.856v5.03H133.4c.653.042.653-.228.694-.523l-.02-4.042c.02-.461-.463-.472-.66-.465h-1.652ZM137.7,14V11.117l.269-.022c1.635,0,1.84-.835,1.84-1.272V.152l9.25-.007v10.93H150V14h-3.772V12.495h-4.763V14h-3.77ZM145.81,1.644h-2.235v8.1c0,.622-.134,1.143-.808,1.352v-.02l3.033-.012.01-9.42Z" fill="#fff" fill-rule="evenodd"/>
    </g>
  </g>
</svg>
