<svg xmlns="http://www.w3.org/2000/svg" width="36.861" height="32" viewBox="0 0 36.861 32">
  <g id="binbank" transform="translate(-112.91 6.912)">
    <path id="Path_4" data-name="Path 4" d="M35.37,16.229,26.155.23S7.705.222,7.7.23A14.845,14.845,0,0,1,19.586,14.792a14.7,14.7,0,0,1-.075,1.481,14.73,14.73,0,0,1,7.071,12.539,15.066,15.066,0,0,1-.375,3.412l9.162-16" transform="translate(114.401 -7.138)" fill="#fff" fill-rule="evenodd"/>
    <path id="Path_5" data-name="Path 5" d="M27.753,32.224a18.476,18.476,0,0,0-18.274-16,5.557,5.557,0,0,0,5.786-5.839c0-1.875-1.954-7.357-6.016-10.16l-9.195,16,9.214,16,18.484,0" transform="translate(112.856 -7.138)" fill="#fff" fill-rule="evenodd"/>
  </g>
</svg>
