
<svg xmlns="http://www.w3.org/2000/svg" width="39.226" height="42" viewBox="0 0 39.226 42">
  <g id="centre-invest-bank" transform="translate(-282.594 -329.441)">
    <path id="Path_7" data-name="Path 7" d="M268.843,409.115l1.106,1.754v7.53h-6.823l-.944-1.286Z" transform="translate(27.2 -55.372)" fill="#fff" fill-rule="evenodd"/>
    <path id="Path_8" data-name="Path 8" d="M305.32,416.5c1.949,5.4,9.075,5.439,11.2-1.668L317.672,416l.007,6.619h-12.3l-1.335-1.351.014-5.987,1.267,1.22Z" transform="translate(-3.552 -59.607)" fill="#fff" fill-rule="evenodd"/>
    <path id="Path_9" data-name="Path 9" d="M267.36,336.987c-1.712-8.077-10.181-7.978-10.842.574v2.71l-1.416-1.424v-4.978L244.093,347.5h-4.153l-1.975-1.536v-19.14l1.827,1.708c1.922,6.62,9.608,5.927,11.078-1.358l1.288,1.385v1.213l3.526-4.213-.809-.692V315.52l7.046-.02.937.989.809-1.015,3.931-.033,1.241,1.345-1.166,1.616,1.443,1.53-.02,18.573-1.733-1.517Z" transform="translate(44.993 14)" fill="#fff" fill-rule="evenodd"/>
    <path id="Path_10" data-name="Path 10" d="M250.388,323.723l1.47,1.5.027-7.859-1.166-1.616H237.76l.013,8.07,1.713,1.649c0-8.031,8.6-10.912,10.9-1.741Z" transform="translate(45.143 13.775)" fill="#fff" fill-rule="evenodd"/>
    <path id="Path_11" data-name="Path 11" d="M294.962,430.058l.02,2.756h-1.719l-1.194-1.286-.027-2.921h1.78Z" transform="translate(5.261 -69.807)" fill="#fff" fill-rule="evenodd"/>
    <path id="Path_12" data-name="Path 12" d="M269.011,428.953V431.3c3.843.35,3.4,4.892-.108,5.3-6.412-.337-12.541-2.947-18.649-3.56-8.037-.792-13.4.151-12.911,4.925l2.892-.039c-.789-1.714.863-4.477,10.444-1.642,4.72,1.14,7.558,2.031,12.413,2.822,6.5,1.5,12.851-1.754,11.226-6.705-.964-2.222-2.292-3.257-5.306-3.448Zm-.411-.574v3.079c.371.441.87.771,1.247,1.22,2-.072,2.313,3.468-1.564,3.4-4.43-.514-11.664-2.67-19-3.613-5.926-.415-12.938-.237-12.682,5.7.492.481,1.207.745,1.692,1.226h3.9c-2.643-3.092,1.773-3.712,6.142-2.5,5.266,1.589,10.41,2.7,15.959,4.009,7.255,1.108,12.939-3.073,11.219-8.5-1.126-2.6-3.384-3.8-6.91-4.022Z" transform="translate(46 -69.638)" fill="#fff" fill-rule="evenodd"/>
    <path id="Path_13" data-name="Path 13" d="M250.681,323.711a4.767,4.767,0,0,1,4.028,2.909,10.207,10.207,0,0,1,1.465,4.278c-.22,3.936-1.611,6.468-4.577,7.358-1.1.205-2.929-.787-3.808-1.643-1.391-1.164-2.307-3.285-2.49-6.4.183-4.244,2.124-6.434,5.382-6.5Z" transform="translate(39.604 7.875)" fill="#fff" fill-rule="evenodd"/>
    <path id="Path_14" data-name="Path 14" d="M258.845,337.786c2.662.372,2.839,4.462.761,7.015-1.09.917-2.18,1.041-3.219-.62-1.876-4.438,1.242-6.47,2.459-6.4Z" transform="translate(31.889 -2.547)" fill="#00a651" fill-rule="evenodd"/>
    <path id="Path_15" data-name="Path 15" d="M313.526,376.723a5.115,5.115,0,0,1,4.211,2.978,10.913,10.913,0,0,1,1.428,4.552c-.219,3.936-1.538,6.195-4.5,7.084-1.1.206-3.149-.855-4.028-1.711-1.392-1.163-2.307-3.286-2.49-6.4.183-4.244,2.124-6.434,5.383-6.5Z" transform="translate(-6.567 -31.383)" fill="#fff" fill-rule="evenodd"/>
    <path id="Path_16" data-name="Path 16" d="M321.9,391.012c2.662.372,2.839,4.462.761,7.015-1.09.917-2.18,1.041-3.22-.62-1.876-4.437,1.242-6.47,2.459-6.4Z" transform="translate(-14.44 -41.964)" fill="#fff" fill-rule="evenodd"/>
    <path id="Path_17" data-name="Path 17" d="M271.006,412.674l-5.6,6.837,5.589.02Z" transform="translate(24.829 -58.007)" fill="#00a651" fill-rule="evenodd"/>
    <path id="Path_18" data-name="Path 18" d="M293.467,429.93V432.5l1.186-.092V429.93Z" transform="translate(4.215 -70.787)" fill="#00a651" fill-rule="evenodd"/>
    <path id="Path_19" data-name="Path 19" d="M305.284,422.406v4.279H317.3v-4.431c-3.566,5.624-8.306,5.051-12.015.152Z" transform="translate(-4.467 -65.102)" fill="#00a651" fill-rule="evenodd"/>
    <path id="Path_20" data-name="Path 20" d="M239.776,347.257l11.894-14.446V331.3c-2.11,5.116-8.441,7.279-11.894.106ZM263.1,335.336c2.252.323,3.088,2.156,3.27,4.635-.074,3-1.018,4.978-3.169,5.479-2.2.072-3.6-1.688-3.83-5.407.128-3.046,1.47-4.589,3.729-4.707Zm.128-1.49c3.013.4,4.153,2.75,4.382,5.947-.1,3.87-1.369,6.422-4.261,7.041-2.967.1-4.841-2.156-5.144-6.943.176-3.917,1.976-5.874,5.023-6.046ZM246.4,321.537c2.252.323,3.088,2.156,3.27,4.635-.074,3-1.018,4.978-3.169,5.479-2.2.073-3.6-1.688-3.83-5.406.128-3.046,1.47-4.589,3.729-4.707Zm.027-1.563c3.014.4,4.254,2.822,4.484,6.02-.1,3.87-1.369,6.422-4.261,7.042-2.967.1-4.841-2.156-5.144-6.943.175-3.916,1.874-5.947,4.922-6.119Zm-6.783-1.721h12.271v6.026c-2.818-7.714-9.675-6.422-12.264-.125l-.007-5.9Zm17.267,17.017,11.887-14.637-.027,18.191c-3.027-8.314-10.242-6.547-11.86,1.358V335.27Zm8.205-17.017L240.679,348.4h3.85l24.158-30.171-3.574.026Zm-8.185.02h6.041l-6.041,7.589v-7.589Z" transform="translate(43.761 11.937)" fill="#00a651" fill-rule="evenodd"/>
  </g>
</svg>
