<svg xmlns="http://www.w3.org/2000/svg" width="53.687" height="34.645" viewBox="0 0 53.687 34.645">
  <g id="citibank" transform="translate(-0.596 -0.09)">
    <path id="Path_21" data-name="Path 21" d="M26.391,12.9H21.966V34.27h4.425V12.9Zm3.959,0v4.018h3.727V28.97a6.24,6.24,0,0,0,1.34,4.076,4.791,4.791,0,0,0,3.493,1.572,6.7,6.7,0,0,0,3.9-.99h.059l.059-.058.931-3.785.059-.291-.233.116a6.052,6.052,0,0,1-3.261,1.106c-1.34,0-2.038-.756-2.038-2.387V16.918h4.484V12.9H38.387V6.2l-4.25,2.33h-.06V12.9H30.351Zm21.254,0H47.121V34.27H51.6V12.9Zm-39.77-.407A11.211,11.211,0,0,0,3.974,15.4,10.466,10.466,0,0,0,.6,23.615a10.545,10.545,0,0,0,3.378,8.209,11.208,11.208,0,0,0,7.86,2.911,9.531,9.531,0,0,0,7.57-3.668l.059-.058L19.4,30.95,17.075,28.1l-.116-.116L16.9,28.1a6.966,6.966,0,0,1-5.24,2.447,6.287,6.287,0,0,1-4.775-1.98,6.858,6.858,0,0,1-1.863-4.949,6.859,6.859,0,0,1,1.863-4.95,6.282,6.282,0,0,1,4.775-1.98,6.962,6.962,0,0,1,5.24,2.446l.059.115.116-.115,2.33-2.854.058-.058-.059-.058a9.534,9.534,0,0,0-7.57-3.668Z" fill="#fff" fill-rule="evenodd"/>
    <path id="Path_22" data-name="Path 22" d="M24.179,9.349A16.662,16.662,0,0,1,36.7,3.933a16.449,16.449,0,0,1,12.46,5.416l.117.057h5.008l-.175-.291a21.242,21.242,0,0,0-7.687-6.638,21,21,0,0,0-19.447,0,21.717,21.717,0,0,0-7.686,6.638l-.175.291h5.008l.058-.057Z" fill="#fff" fill-rule="evenodd"/>
  </g>
</svg>
