<svg xmlns="http://www.w3.org/2000/svg" width="220.523" height="32" viewBox="0 0 220.523 32">
  <g id="expoBank" transform="translate(-52.889 -8)">
    <path id="Union_2" data-name="Union 2" d="M-587.367-3264c-3.468,0-4.928-1.718-4.928-4.915,0-3.041,1.524-5.147,5.057-5.147a11.634,11.634,0,0,1,3.323.366l-.524,1.972a8,8,0,0,0-2.315-.254c-1.7,0-2.477,1.23-2.484,2.9.007,1.76.591,2.867,2.419,2.867a9.785,9.785,0,0,0,2.88-.471l.6,1.935a10.474,10.474,0,0,1-3.894.748Zm40.507-.762a2.538,2.538,0,0,1-.865-2.107c0-1.994,1.613-3.055,3.8-3.212.395,0,2.419-.059,2.839-.059v-.194c0-1.277-.46-1.763-1.944-1.763a9.8,9.8,0,0,0-3.137.6l-.669-1.852a14.4,14.4,0,0,1,4.509-.747c2.549,0,4.1.9,4.1,3.42l.032,4.557h1.355l.145,1.621a8,8,0,0,1-2.549.463c-.9,0-1.524-.291-1.614-1.18h-.04a5.584,5.584,0,0,1-3.654,1.18,3.129,3.129,0,0,1-.323.017A2.978,2.978,0,0,1-546.86-3264.763Zm3.668-3.6c-.96.06-1.484.486-1.484,1.315s.524,1.158,1.46,1.158a4.086,4.086,0,0,0,2.129-.83v-1.792Zm-71.268,3.832.4-2.092a17.69,17.69,0,0,0,2.9.366c2.863,0,4.032-1.314,4.218-4.026h-4.993v-2.106h4.969c-.186-2.129-1.46-3.406-3.969-3.406a12.6,12.6,0,0,0-2.863.329l-.492-2.01a13.466,13.466,0,0,1,3.573-.485c4.783,0,7,2.24,7,6.6,0,4.175-1.919,7.328-6.871,7.328l.032.007A18.022,18.022,0,0,1-614.46-3264.531Zm55.323-4.9c-.17-3.518.226-5.049,1.209-6.423a7.152,7.152,0,0,1,3.759-1.995l.024.03a35.026,35.026,0,0,1,3.9-.747l.436,2.069-3.581.665a5.154,5.154,0,0,0-2.42.948,3.02,3.02,0,0,0-1.089,2.592c.041,0,.065,0,.081.059a4.741,4.741,0,0,1,3.613-1.7c3.089,0,4.453,1.994,4.453,4.967s-1.839,4.915-5.267,4.915C-557.3-3264.053-558.984-3266.2-559.137-3269.431Zm5.3-2.442c-1.565,0-2.275,1.583-2.275,3.055s.484,2.749,2.194,2.749,2.105-1.277,2.105-2.845-.354-2.988-2.024-2.988Zm-17.075,2.786c0-2.942,1.759-5.027,5.243-5.027s5.241,1.911,5.242,5.009c0,3.127-1.776,5.046-5.364,5.046C-569.236-3264.061-570.914-3265.876-570.914-3269.088Zm3.049-.015c0,1.681.42,2.988,2.194,2.988s2.194-1.336,2.194-2.988c0-1.4-.436-2.987-2.194-2.987C-567.284-3272.09-567.865-3270.6-567.865-3269.1Zm43.99-4.811h2.92v4.056h.4l3.025-4.078h3.226l-3.694,4.31,4.033,5.363h-3.525l-3.089-4.235h-.339v4.235l-2.96.022Zm-4.9,9.673v-4.048h-3.847v4.041h-2.92v-9.666h2.92v3.6h3.847v-3.6h2.912v9.673Zm-46.5,0v-7.641H-579.1v7.641h-2.88v-9.657l9.631-.016v9.673Zm-26.9-9.673h2.912v4.056h.395l3.025-4.078h3.226l-3.694,4.31,4.033,5.356h-3.541l-3.089-4.235h-.355v4.235l-2.912.03Zm198.365,9.636q-23.115-.1-46.24,0h-53.6c-4.226,0-5.984-1.277-6.058-4.766-.032-1.5-.306-3.5.266-4.937,1.226-3.07,5.63-2.629,8.937-2.629h9.929c9.832,0,19.664.112,29.5,0,1.516-.022,4.638.09,5.606-1.187a2.461,2.461,0,0,0,.59-1.4,2.886,2.886,0,0,0-.388-1.51,2.34,2.34,0,0,0-.742-.664c-2.694-1.6-7.436-1.308-10.542-1.308h-27.383q.02-.048.038-.1h-90.308v-2.988h119.516c2.557,0,7.356-.358,8.872,2.039a6.028,6.028,0,0,1,.726,1.805,6.954,6.954,0,0,1,.21,1.257,6.676,6.676,0,0,1,.028,1.174c-.1,2.928-1.583,5.967-5.327,5.967H-475.1c.013.03.027.06.042.09h-25.4c-2.411,0-7.848-.62-8.945,1.994a4.191,4.191,0,0,0-.186.561l-.046.045c-.8,3.4,4.6,3.5,7.37,3.5h52.128c.669-.007,17.414.052,25.132.052,2.356-.007,4.737,0,7.125.009,5.828.02,11.706.039,17.427-.151,1.613-.052,4.291-.329,4.88-1.92a2.558,2.558,0,0,0-.541-2.644,2.927,2.927,0,0,0-.927-.65,12.463,12.463,0,0,0-1.686-.5,23.218,23.218,0,0,0-3.047-.3q-.21.005-.421.017c-1.562-.017-3.284-.025-5-.026-.769.014-1.486.026-2.113.026l-3.455-.016c-1.989.007-3.641.016-4.571.016h-6.993l.019-.046c-4.689-.006-9.382-.006-14.206-.006-2.484,0-9.2.5-10.751-1.815-1.121-1.688-.806-3.256-.806-5.146.016-2.577.806-4.923,4.315-5.192,2.194-.164,4.428-.1,6.63-.1,14.469-.06,30.537,0,45.055,0,.048,0-1.654,3.062-1.654,3.062h-45.6c-2.2,0-6.856-.276-8.066,1.494-.044.063-.085.126-.124.188a4.4,4.4,0,0,0-.271.536,2.973,2.973,0,0,0-.242.912v-.173c-.322,2.173,2.682,3.206,5.25,3.206,7.175.046,14.69.056,22.032.059,5.435-.007,16.761-.052,21.24-.052h.117c3.732,0,5.749,1.058,5.988,4.318a13.057,13.057,0,0,1-.274,4.915c-1.048,2.85-4.274,2.99-7.2,2.99Zm-156.617-4.829v0Zm-54.16-13.449v-3.227h25.544v3.227Zm20.5-6.117a4.071,4.071,0,0,1-.984-4.682,4.666,4.666,0,0,1,4.287-2.645,4.964,4.964,0,0,1,1.742.313v7.978a4.963,4.963,0,0,1-1.741.314A4.835,4.835,0,0,1-594.09-3288.673Zm-20.5.963v-7.978a4.959,4.959,0,0,1,1.742-.313,4.665,4.665,0,0,1,4.286,2.645,4.071,4.071,0,0,1-.984,4.682,4.834,4.834,0,0,1-3.3,1.277A4.96,4.96,0,0,1-614.588-3287.709Zm8.13-3.989a4.484,4.484,0,0,1,4.646-4.3,4.484,4.484,0,0,1,4.646,4.3,4.485,4.485,0,0,1-4.646,4.3A4.484,4.484,0,0,1-606.458-3291.7Z" transform="translate(667.478 3304)" fill="#fff"/>
  </g>
</svg>
