<svg xmlns="http://www.w3.org/2000/svg" width="151.054" height="32" viewBox="0 0 151.054 32">
  <g id="vostochniiExpressBank" transform="translate(238.927 79.867)">
    <path id="Union_3" data-name="Union 3" d="M-564.4-3624.848a2.9,2.9,0,0,1,.414-1.7c.424-.217.753.212,1.092.4a2.647,2.647,0,0,0,4.008-1.3c-.4-.01-.793-.006-1.191,0-.657.006-1.316.013-1.97-.043l-.17-.435c.106-.48.2-.959.311-1.438a9.189,9.189,0,0,1,2.1-.119c.406.008.814.017,1.219-.005a1.8,1.8,0,0,0-1.079-1.326,3.793,3.793,0,0,0-3.219.989l-.464-.034a2.094,2.094,0,0,1,.259-1.946,4.2,4.2,0,0,1,3.068-.978,3.34,3.34,0,0,1,3.041,1.766,5.129,5.129,0,0,1-1.662,6.255,4.887,4.887,0,0,1-2.844.887A4.632,4.632,0,0,1-564.4-3624.848Zm44.04-.325a5.016,5.016,0,0,1,.992-6.7,4.994,4.994,0,0,1,5.89-.246,2.35,2.35,0,0,1-.316,1.923c-.145-.012-.291-.027-.433-.04a3.064,3.064,0,0,0-3.655-.5,3.456,3.456,0,0,0-1.3,2.989,1.748,1.748,0,0,0,1.1,1.711,3.427,3.427,0,0,0,2.865-.733,1.152,1.152,0,0,1,.894-.181,3.031,3.031,0,0,1-.274,1.849,4.305,4.305,0,0,1-2.9,1.083A3.947,3.947,0,0,1-520.357-3625.173Zm8.08.518a3.616,3.616,0,0,1-1.466-2.942,5.074,5.074,0,0,1,3.006-4.974h0a5.425,5.425,0,0,1,4.854.452,4.215,4.215,0,0,1-.408,1.96,4.331,4.331,0,0,1-1.4-.7,2.87,2.87,0,0,0-2.8.177,3.224,3.224,0,0,0-1.177,2.176,2.361,2.361,0,0,0,.71,2.32,2.746,2.746,0,0,0,2.227-.006c.658-.231,1.152-.963,1.92-.751a2.85,2.85,0,0,1-.4,1.928,4.3,4.3,0,0,1-2.79.99A4.32,4.32,0,0,1-512.276-3624.655Zm-35.628.011a3.3,3.3,0,0,1-1.393-2.213,5.159,5.159,0,0,1,2.227-5.356,5.2,5.2,0,0,1,5.556.131,4.216,4.216,0,0,1-.347,1.721c-.258.365-.682.019-.937-.165a2.906,2.906,0,0,0-3.1-.3,3.266,3.266,0,0,0-1.451,2.536,2.15,2.15,0,0,0,.891,2.19,3.5,3.5,0,0,0,3.241-.761.477.477,0,0,1,.8.394c-.074.56-.091,1.259-.608,1.6a4.409,4.409,0,0,1-2.621.844A4.316,4.316,0,0,1-547.9-3624.644Zm13.217.229c.585-2.76,1.033-5.551,1.649-8.3a11.615,11.615,0,0,1,4.049.181c1.645.684,1.815,3.067.691,4.3a4.6,4.6,0,0,1-3.833,1.314,21.055,21.055,0,0,1-.58,2.711,5.038,5.038,0,0,0-.6.02c-.159.012-.319.023-.477.023A1.484,1.484,0,0,1-534.687-3624.415Zm2.975-4.518a10.712,10.712,0,0,0,1.8-.181,1.983,1.983,0,0,0,.363-1.353c-.25-.479-.775-.452-1.269-.425a3.436,3.436,0,0,1-.527,0h0Q-531.549-3629.913-531.712-3628.933Zm34.748,4.7c-.238-.292.051-.622.162-.9q1.934-3.479,3.862-6.961a2.851,2.851,0,0,1,.433-.618h0a3.231,3.231,0,0,1,1.942.036,8.43,8.43,0,0,1,.4,1.678c.412,2.248.929,4.476,1.258,6.738a8.9,8.9,0,0,1-1.959.047,18.168,18.168,0,0,1-.412-1.854c-.914-.01-1.828-.007-2.74.006a11.913,11.913,0,0,1-1.005,1.789,3.882,3.882,0,0,1-.947.1C-496.3-3624.173-496.637-3624.2-496.964-3624.234Zm4.054-3.917,1.224.011c-.1-.564-.209-1.125-.319-1.683C-492.3-3629.26-492.6-3628.7-492.91-3628.151Zm11.942,3.874c.447-2.824,1.043-5.626,1.606-8.428a3.488,3.488,0,0,1,1.628-.057c.251.006.351.265.313.489-.1.923-.381,1.818-.451,2.745,1.028-1,1.451-2.673,2.906-3.167.679-.085,1.64-.4,2.146.217a4.774,4.774,0,0,1-.363,1.557c-.433.083-.941,0-1.315.252a13.987,13.987,0,0,1-1.806,2.294c.74,1.142,1.574,2.219,2.34,3.341.165.224.069.517.083.773a7.467,7.467,0,0,1-1.99.028c-.9-1.007-1.566-2.216-2.439-3.257a28.188,28.188,0,0,1-.736,3.245,4.1,4.1,0,0,1-.784.071A7.648,7.648,0,0,1-480.968-3624.278Zm-22.446.035c-.308-.032-.143-.451-.148-.647.484-2.482.952-4.971,1.453-7.448.077-.5.568-.5,1-.494.113,0,.221,0,.317-.007.593.029,1.191.017,1.791,0a16.158,16.158,0,0,1,2.823.106c.242.58-.111,1.22-.223,1.806-.8.044-1.6.042-2.4.039-.507,0-1.016,0-1.523.008-.07.357-.139.717-.207,1.074.243.011.5.008.765,0,1.036-.013,2.153-.025,2.817.87a3.2,3.2,0,0,1-1.068,4.326,4.748,4.748,0,0,1-2.465.409c-.223,0-.446,0-.665,0-.271-.01-.543,0-.815,0-.17,0-.341.007-.51.007A5.924,5.924,0,0,1-503.414-3624.242Zm2.7-1.828a4.4,4.4,0,0,0,1.294-.1,1.076,1.076,0,0,0,.351-1.771,3,3,0,0,0-1.257-.131c-.183.007-.367.013-.546.006-.138.666-.27,1.331-.393,2,.072,0,.145,0,.217,0C-500.934-3626.075-500.823-3626.073-500.711-3626.071Zm-27.392,1.81c.18-1.452.531-2.876.786-4.316.3-1.386.482-2.8.86-4.164,1.916-.1,3.838-.054,5.755-.009a4.663,4.663,0,0,1-.358,1.846c-.759.031-1.518.027-2.277.023-.5,0-.992,0-1.487,0-.084.465-.171.929-.252,1.4.462,0,.924,0,1.387,0,.688,0,1.376,0,2.064.016a3.978,3.978,0,0,1-.221,1.787c-.8.041-1.6.039-2.4.038-.392,0-.783,0-1.175,0-.114.514-.221,1.028-.332,1.544,1.321.011,2.643,0,3.965.018a3.56,3.56,0,0,1-.2,1.834c-1.128.025-2.261.056-3.393.056C-526.289-3624.181-527.2-3624.2-528.1-3624.261Zm-23.478.043c-.8-1.115-1.6-2.216-2.388-3.339-.208,1.1-.434,2.2-.654,3.3a6.178,6.178,0,0,1-2-.02c.363-2.467.93-4.9,1.372-7.358a2.75,2.75,0,0,1,.322-1.072h0a3.417,3.417,0,0,1,1.834,0,25.751,25.751,0,0,1-.443,3.168c.828-.807,1.256-1.942,2.116-2.719a3.433,3.433,0,0,1,2.682-.488c.606.423-.007,1.256-.107,1.825-.423.051-.849.1-1.271.163a12.01,12.01,0,0,1-1.846,2.375c.72,1.147,1.567,2.205,2.325,3.329.206.253.212.752-.172.831a5.525,5.525,0,0,1-.724.043C-550.886-3624.182-551.235-3624.2-551.581-3624.218Zm67.676-.052a18.57,18.57,0,0,1,.548-3.453c-.844-.015-1.687,0-2.529,0-.261,1.156-.437,2.331-.721,3.481a7.873,7.873,0,0,1-1.975-.012,30.091,30.091,0,0,1,.517-2.975c.33-1.677.637-3.36.98-5.034h0c.034-.591.7-.6,1.141-.577.323.035.815-.018.922.393-.081.89-.32,1.759-.478,2.639.579.015,1.158.013,1.739.011h.805a16.4,16.4,0,0,1,.66-2.909,2.552,2.552,0,0,1,1.755.021c.2.276.066.622.038.927-.5,2.5-.963,5.012-1.481,7.508-.355.032-.715.067-1.073.067A3.723,3.723,0,0,1-483.905-3624.27Zm-53.72.008c.29-2.226.852-4.405,1.208-6.622-.863.006-1.723,0-2.586,0-.449,2.2-.857,4.418-1.3,6.623a8.417,8.417,0,0,1-1.972.021,7.406,7.406,0,0,1,.217-1.614c.407-2.068.8-4.139,1.205-6.208a1.582,1.582,0,0,1,.247-.66,3.23,3.23,0,0,1,1.163-.1c.828.041,1.657.034,2.487.027.922-.007,1.844-.016,2.764.043.035.108.108.322.146.428-.54,2.693-1.019,5.4-1.6,8.082-.313.03-.629.048-.945.048A6.925,6.925,0,0,1-537.625-3624.262Zm-41.9-10.083a1.951,1.951,0,0,1-1.782-1.882c-.044-2.083,0-4.167-.017-6.251q-1.234-.007-2.469-.008c-.02,2.083.021,4.169-.018,6.253a1.958,1.958,0,0,1-2.15,1.876,1.978,1.978,0,0,1-1.745-2.059c0-2.889-.01-5.78,0-8.669a1.312,1.312,0,0,1,1.393-1.335c4.651,0,9.3-.014,13.953.007a1.288,1.288,0,0,1,1.307,1.331c.011,2.949.02,5.9,0,8.843a1.953,1.953,0,0,1-2.018,1.894,1.94,1.94,0,0,1-1.858-1.9c-.038-2.078,0-4.158-.015-6.237q-1.242,0-2.483,0c-.01,2.083.017,4.165-.013,6.247a1.959,1.959,0,0,1-1.908,1.9A1.681,1.681,0,0,1-579.525-3634.345Zm-29.619-.882a5.319,5.319,0,0,1-2.785-3.995,7.85,7.85,0,0,1,.7-4.987,5.165,5.165,0,0,1,3.9-2.535,6.982,6.982,0,0,1,4.662.828,5.379,5.379,0,0,1,2.278,3.63,8.166,8.166,0,0,1-.492,4.711,4.973,4.973,0,0,1-3.174,2.7,8.088,8.088,0,0,1-2.117.286A6.951,6.951,0,0,1-609.144-3635.227Zm2.281-8.929a2.056,2.056,0,0,0-1.262,1.422,7.839,7.839,0,0,0-.235,2.887,3.4,3.4,0,0,0,.879,2.228,2.117,2.117,0,0,0,2.967-.353,4.77,4.77,0,0,0,.6-2.775,4.618,4.618,0,0,0-.7-2.821,1.845,1.845,0,0,0-1.53-.686A2.7,2.7,0,0,0-606.863-3644.156Zm40.527,9.208a5.166,5.166,0,0,1-3.39-3.831,8.265,8.265,0,0,1,.331-4.885,5.034,5.034,0,0,1,3.362-2.918h0a7.906,7.906,0,0,1,4.379.131,5.061,5.061,0,0,1,3.078,3.1,8.6,8.6,0,0,1,.2,4.614,5.147,5.147,0,0,1-3.034,3.663,7.192,7.192,0,0,1-2.6.473A8.045,8.045,0,0,1-566.336-3634.948Zm1.536-9.192a2.467,2.467,0,0,0-1.386,2.116,6.741,6.741,0,0,0,.387,3.861,2.066,2.066,0,0,0,3.365.221,5,5,0,0,0,.615-2.989,4.34,4.34,0,0,0-.732-2.692,1.876,1.876,0,0,0-1.484-.635A2.558,2.558,0,0,0-564.8-3644.14Zm-30.876,9.021a5.067,5.067,0,0,1-2.744-2.269,7.322,7.322,0,0,1-.679-4.6,5.32,5.32,0,0,1,2.99-4.133,8.411,8.411,0,0,1,7.035.249c-.01,1.048.025,2.1-.014,3.142-.623-.07-1.024-.593-1.54-.891a3.622,3.622,0,0,0-3.322-.307,3.24,3.24,0,0,0-1.577,2.815,4.023,4.023,0,0,0,.815,3.058,3.4,3.4,0,0,0,3.685.514c.723-.256,1.179-.958,1.918-1.177.07,1.059.02,2.12.036,3.181a8.565,8.565,0,0,1-3.8.888A8.565,8.565,0,0,1-595.677-3635.12Zm-28.2-11.34h0c2.323,0,4.647-.031,6.968.014a3.563,3.563,0,0,1,2.583.922,2.754,2.754,0,0,1,.437,2.619,3.407,3.407,0,0,1-1.5,1.615,3.153,3.153,0,0,1,2.025,1.659,3.289,3.289,0,0,1-.74,3.521,4.506,4.506,0,0,1-3.169,1.149c-1.227.017-2.452.014-3.678.011-.974,0-1.948,0-2.921,0C-623.875-3638.783-623.865-3642.621-623.872-3646.46Zm4.448,9.2a5.562,5.562,0,0,0,1.917-.161,1.293,1.293,0,0,0,.007-2.336,7.158,7.158,0,0,0-2.013-.148c-.278.006-.557.011-.832,0-.006.877,0,1.757,0,2.636.114-.006.229-.008.344-.008C-619.809-3637.269-619.617-3637.263-619.424-3637.256Zm-.231-4.624a4.671,4.671,0,0,0,1.8-.188,1.091,1.091,0,0,0-.142-1.993,7.33,7.33,0,0,0-1.7-.1c-.215,0-.429.006-.642,0q-.013,1.139,0,2.278c.079,0,.158,0,.237,0C-619.958-3641.887-619.806-3641.884-619.655-3641.88Zm83.418,1.982q-1.832,0-3.661,0c-.008,1.645,0,3.293-.007,4.937h-1.616q-.969,0-1.94,0,0-5.751,0-11.506c.791-.01,1.58-.008,2.371-.007h1.187q0,1.993,0,3.986c1.218,0,2.44,0,3.659.007.018-1.329.012-2.659,0-3.985.8-.008,1.611-.007,2.417-.007h1.139q.015,5.755,0,11.51c-1.181,0-2.361,0-3.539,0C-536.253-3636.6-536.221-3638.251-536.237-3639.9Zm-11.629,4.941c-.624,0-1.248,0-1.871,0,0-1.321,0-2.639,0-3.958-1.66.313-3.447.763-5.087.122a3.119,3.119,0,0,1-1.867-2.863c-.053-1.6,0-3.2-.028-4.8h0c.682-.007,1.365-.006,2.046-.006q.768,0,1.536,0c.018,1.248-.044,2.5.063,3.746a1.6,1.6,0,0,0,1.086,1.486,7.033,7.033,0,0,0,2.247.065c.01-1.765,0-3.531,0-5.295h1.237c.773,0,1.546,0,2.32.01q0,5.751,0,11.5C-546.743-3634.957-547.3-3634.957-547.866-3634.957Zm31.162,0c-.646,0-1.293,0-1.94,0q.005-5.756,0-11.51c1.185.006,2.371,0,3.557.01q-.006,5.751,0,11.5C-515.625-3634.958-516.164-3634.958-516.7-3634.957Zm-13.236-11.507q1.768-.008,3.536,0c-.006,1.288,0,2.575-.006,3.865.4.017.806.012,1.222.007,1.558-.016,3.186-.033,4.39,1.068a3.929,3.929,0,0,1-.629,5.8,5.7,5.7,0,0,1-3.358.768h-2.344q-1.405,0-2.812,0Q-529.951-3640.709-529.94-3646.463Zm4.071,9.178a5.275,5.275,0,0,0,1.568-.133,1.493,1.493,0,0,0,.105-2.676,4.416,4.416,0,0,0-1.638-.163c-.193,0-.384.009-.574.006,0,.986,0,1.976,0,2.964l.185,0C-526.1-3637.289-525.987-3637.287-525.869-3637.285Zm13.508,2.323c0-3.833,0-7.666,0-11.5q1.743-.011,3.487,0c.009,2.076,0,4.152.007,6.229,1.341-2.068,2.665-4.151,4-6.227,1.113-.006,2.226,0,3.338-.006q-.006,5.756,0,11.512h-3.491c0-2.33.008-4.657,0-6.982-1.465,2.321-2.905,4.656-4.366,6.982h-.815Q-511.284-3634.956-512.36-3634.962Zm3.462-13.137a3.525,3.525,0,0,1-2.451-3.479c.919,0,1.841-.022,2.761.025.073.612.1,1.365.667,1.752a2.125,2.125,0,0,0,1.949.057c.636-.369.658-1.187.754-1.834.921,0,1.842-.017,2.764,0a3.6,3.6,0,0,1-1.8,3.194,5.839,5.839,0,0,1-2.6.571A7.731,7.731,0,0,1-508.9-3648.1Zm-79.15-.107a1.8,1.8,0,0,1-.881-2.248c.229-.743,1-1.049,1.622-1.386,2.567-1.3,5.087-2.7,7.669-3.97.32-.162.642.052.93.181,2.662,1.41,5.346,2.775,8.005,4.189a1.8,1.8,0,0,1,.986,1.672,1.732,1.732,0,0,1-1.739,1.721,3.005,3.005,0,0,1-1.424-.478c-2.039-1.088-4.1-2.137-6.141-3.219-.346-.276-.722.02-1.049.169-2.076,1.1-4.161,2.179-6.243,3.272a2.081,2.081,0,0,1-.992.258A1.73,1.73,0,0,1-588.049-3648.206Z" transform="translate(384.946 3576)" fill="#fff"/>
  </g>
</svg>
