<svg xmlns="http://www.w3.org/2000/svg" width="32.512" height="32" viewBox="0 0 32.512 32">
  <path id="gazPromBank" d="M.246,19.4a19.978,19.978,0,0,1,0-6.233A16.451,16.451,0,0,1,9.664,1.4,16.035,16.035,0,0,1,21.126.769a15.325,15.325,0,0,1,6.98,4.4A15.582,15.582,0,0,1,32.512,16.28a15.582,15.582,0,0,1-4.406,11.111,15.324,15.324,0,0,1-6.963,4.394C18.691,32.558,1.258,24.215.246,19.4ZM19.974,31.546a16.087,16.087,0,0,0,10.438-8.33,22.142,22.142,0,0,0,.939-2.371c.469-1.41.5-1.662.5-4.566s-.027-3.155-.5-4.566a15.959,15.959,0,0,0-8.634-9.769,16.164,16.164,0,0,0-12.015-.4A16.36,16.36,0,0,0,1,12.192,12.373,12.373,0,0,0,.611,16.28,12.373,12.373,0,0,0,1,20.368a16.847,16.847,0,0,0,5.349,8.124,15.56,15.56,0,0,0,13.621,3.054ZM14.62,28.23c-3.063-.484-6.133-2.2-6.809-3.8a2.468,2.468,0,0,0-.855-.931A2.739,2.739,0,0,1,5.61,21.263a1.382,1.382,0,0,0-.548-1.2c-.507-.479-.541-.583-.456-1.408a1.809,1.809,0,0,0-.155-1.228c-.6-.818,0-2.558,1.193-3.466,1.854-1.412,5.473-2.536,11.73-3.643,1.111-.2,2.256-.427,2.546-.513,1.053-.311-.112-.462-3.512-.457a17.011,17.011,0,0,0-4.917.4,19.029,19.029,0,0,0-5.128,1.969c-1.428.76-1.6.815-1.476.472.308-.854,3.82-2.569,6.822-3.331a16.039,16.039,0,0,1,4.874-.375,35.048,35.048,0,0,1,4.2.2c.8.173.888.157,1.295-.25.239-.239.366-.5.281-.576-.406-.375-2.627-.745-5-.835a19.023,19.023,0,0,0-4.388.208,22.452,22.452,0,0,0-5.62,1.6c-.852.432-.872.434-.677.069.421-.787,3.773-1.975,7.177-2.544a19.932,19.932,0,0,1,7.01.179,4.948,4.948,0,0,0,1.376.208c.157-.157-.755-.658-2.082-1.142-1.212-.442-1.449-.467-4.354-.456-2.769.01-3.216.056-4.522.456a10.041,10.041,0,0,1-1.449.386,8.815,8.815,0,0,1,2.548-1.1c4.362-1.312,9.661-.337,11.278,2.076a3.675,3.675,0,0,0,.97.939,3.633,3.633,0,0,1,1.818,2.049,2.527,2.527,0,0,0,.615,1.128,2.215,2.215,0,0,1,.7,2.193c-.167.311-.135.466.183.9.689.931.377,2.1-.843,3.174A14.635,14.635,0,0,1,22.169,19.6c-1.214.309-7.142,1.4-7.692,1.422-.1,0-.041.084.124.18a11.1,11.1,0,0,0,2.149.381,20.609,20.609,0,0,0,9.975-1.615c.652-.274,1.185-.432,1.185-.352,0,.515-2.646,1.645-5.356,2.286a18.691,18.691,0,0,1-9.252,0,3.736,3.736,0,0,0-1.969-.162c-.936.258-.905.447.136.837a21.8,21.8,0,0,0,13.81.131c1.648-.477,1.808-.228.252.4A21.368,21.368,0,0,1,11,23.4c-1.442-.542-1.642-.578-1.877-.34s-.226.295.078.52a23.423,23.423,0,0,0,4.482,1.7,14.122,14.122,0,0,0,4.132.369,20.59,20.59,0,0,0,6.585-.855c.427-.107.43-.1.091.172A15.681,15.681,0,0,1,20.352,26.3a21.874,21.874,0,0,1-6.226,0,25.177,25.177,0,0,1-4.214-1.32l-.7-.285.615.543a12.528,12.528,0,0,0,4.958,2.212,15.943,15.943,0,0,0,5.712-.2,5.009,5.009,0,0,1,1.056-.182,11.484,11.484,0,0,1-2.507.961,15.418,15.418,0,0,1-4.422.2ZM7.892,22.246c0-.2-.7-.583-.833-.45s.5.815.681.7a.339.339,0,0,0,.152-.253Zm1.58-1.132.439-.245L9.08,20.5c-.664-.3-.906-.33-1.2-.173-.405.217-.386.258.319.711.594.381.72.388,1.274.078Zm2.708-.966c.247-.094,2.326-.525,4.621-.959,6.131-1.158,8.772-2.028,9.686-3.19.351-.447.475-.96.278-1.157a6.72,6.72,0,0,0-1.624.67c-1.829.907-4.4,1.583-9.194,2.42-3.585.626-6.3,1.274-6.3,1.506a5.55,5.55,0,0,0,1.876.866,2.175,2.175,0,0,0,.656-.156Zm-5.518-.712c0-.2-.7-.583-.833-.45s.5.815.681.7a.339.339,0,0,0,.152-.253ZM8.6,18.207a31.466,31.466,0,0,1,7.1-1.752c1.738-.294,4.148-.775,5.356-1.069,2.3-.561,4.63-1.493,4.452-1.781a2.03,2.03,0,0,0-.685-.412c-.535-.224-.72-.2-2.393.347a31.7,31.7,0,0,1-3.481.887c-4.2.75-7.232,1.381-8.6,1.791-1.518.454-3.512,1.4-3.512,1.662a2.6,2.6,0,0,0,1.017.676,6.419,6.419,0,0,0,.749-.349Zm-.912-2.575a34.544,34.544,0,0,1,7.188-1.9,57.276,57.276,0,0,0,6.938-1.484c.188-.174-1.65-.533-2.728-.533a39.054,39.054,0,0,0-7.459,1.239c-4.073,1.03-6.2,2.169-6.2,3.321,0,.7,1.741-.414,2.258-.643Zm18.743-3.47c-.124-.5-.478-.582-.8-.2-.169.2-.115.3.286.511.592.311.659.269.512-.316Zm-2.252-.9c.215-.15.39-.341.39-.423a2.7,2.7,0,0,0-1.055-.506L22.464,9.98l-.718.408-.718.408,1.114.353c1.4.443,1.562.452,2.041.117Zm.741-1.625A2.111,2.111,0,0,0,24.4,9c-.441-.422-.563-.464-.8-.27-.385.32-.254.555.449.809.744.269.867.283.867.1Z" fill="#fff"/>
</svg>
