<svg xmlns="http://www.w3.org/2000/svg" width="53.944" height="32" viewBox="0 0 53.944 32">
  <g id="homecredit" transform="translate(-0.212 -0.109)">
    <path id="Path_211" data-name="Path 211" d="M.212.109H54.155v32H.212V.11Z" fill="#fff" fill-rule="evenodd"/>
    <path id="Path_212" data-name="Path 212" d="M20.234,18.369A1.419,1.419,0,0,0,20,17.484a1.186,1.186,0,0,0-1.07-.392h-.447v2.584h.34c.592-.013,1.41-.043,1.41-1.309ZM7.039,22.816c0-.424-.371-.442-.586-.442H5.54v.915h.837c.253-.006.662-.018.662-.473Zm-5.7,8.355H53.205V1.223H1.338ZM23.571,17.031v-.873h3.423v.873H25.841v3.53H24.726v-3.53ZM20.1,10.769h3.284v.853H21.211v.8h2.031v.835H21.211V14.3h2.373v.866H20.1v-4.4ZM17.97,21.552h1.058v1.8l1.661-1.8h1.334L20.45,23.184l1.7,2.767H20.9l-1.191-1.993-.679.7v1.29H17.97v-4.4Zm-.606-.991v-4.4h1.415a2.9,2.9,0,0,1,1.926.516,2.159,2.159,0,0,1,.636,1.644,2.883,2.883,0,0,1-.114.846,1.994,1.994,0,0,1-2.114,1.39H17.366Zm4.612-4.4h1.109v4.4H21.976Zm-7.833-5.4h1.624l.678,2.466.159.7c.062-.305.068-.336.12-.542l.71-2.628h1.618v4.4H17.988l.069-3.133.012-.441-.037.156c-.058.249-.064.28-.115.467l-.836,2.952h-.957l-.806-2.826-.194-.785c.018.347.018.422.039.84l.055,2.771H14.143v-4.4Zm.034,15.181H13.114v-4.4H14.2l.963,1.62c.353.617.46.815.668,1.2l-.051-2.822h1.063v4.4H15.757l-.831-1.39a15.737,15.737,0,0,1-.781-1.377l.032,2.767Zm2.167-8.136v.834H14.311V19.7h2.373v.866H13.2v-4.4h3.284v.852H14.311v.8Zm-5.108-7.183a2.441,2.441,0,0,1,.811.132A2.326,2.326,0,0,1,13.5,12.993a2.38,2.38,0,0,1-.844,1.837,2.143,2.143,0,0,1-1.4.461,2.176,2.176,0,0,1-2.208-2.342,2.173,2.173,0,0,1,2.19-2.317ZM8.641,16.164h2a1.874,1.874,0,0,1,1.451.448,1.463,1.463,0,0,1,.354.979,1.182,1.182,0,0,1-.912,1.214l1.025,1.756H11.336l-.881-1.569h-.7v1.569H8.642v-4.4Zm1.387,5.387h1.157l1.638,4.4H11.638l-.22-.7H9.782l-.22.7H8.38l1.65-4.4ZM4.481,10.769H5.6v1.589H7.226V10.769H8.339v4.4H7.227V13.291H5.6v1.875H4.482v-4.4ZM8.051,24.062a.979.979,0,0,1,.245.66,1.172,1.172,0,0,1-.736,1.066,2.973,2.973,0,0,1-1.2.162H4.482v-4.4H6.2a4.243,4.243,0,0,1,1.157.106,1.039,1.039,0,0,1,.769,1.022.988.988,0,0,1-.083.423,1.084,1.084,0,0,1-.867.585,1.4,1.4,0,0,1,.875.374ZM6.3,16.026a2.1,2.1,0,0,1,1.3.437,2.217,2.217,0,0,1,.578.7L7.3,17.6a1.11,1.11,0,0,0-.332-.455.97.97,0,0,0-.612-.217c-.717,0-1.095.661-1.095,1.4,0,.965.5,1.444,1.095,1.444a1.068,1.068,0,0,0,.963-.654l.875.442a2.309,2.309,0,0,1-.674.748,2.18,2.18,0,0,1-1.239.385,2.121,2.121,0,0,1-2.128-2.335A2.193,2.193,0,0,1,6.3,16.027Zm43.769,12.5H49.1V7.2L43.409,5.111v23.4l-38.929.011v-1H32.964V6.466L43.41,3.931,50.073,6.5V28.524ZM6.5,24.087H5.542v1.066h.773c.371-.007.855-.019.855-.524,0-.53-.44-.535-.666-.542ZM10.588,22.6c-.057.225-.12.456-.182.679-.095.332-.265.848-.366,1.178h1.127Zm.754-5.026c0-.56-.41-.58-.643-.585H9.755v1.189h.92A.588.588,0,0,0,11.342,17.571Zm-.088-3.209c.529,0,1.1-.374,1.127-1.295a1.7,1.7,0,0,0-.359-1.2,1.084,1.084,0,0,0-.78-.325c-.673,0-1.1.585-1.1,1.383,0,1.047.593,1.432,1.115,1.432Z" transform="translate(-0.088 -0.087)" fill="#d12138" fill-rule="evenodd"/>
  </g>
</svg>
