<svg xmlns="http://www.w3.org/2000/svg" width="31.244" height="32" viewBox="0 0 31.244 32">
  <g id="intezaBank" transform="translate(0 0)">
    <path id="Union_4" data-name="Union 4" d="M-1264-1211.681v-32h31.244v32Zm1.648-1.685h27.94v-28.627h-27.94Zm11.609-7.341a.969.969,0,0,1-.222-.753,1.286,1.286,0,0,0-.031-.363l-.031-.1.044-.016a.186.186,0,0,1-.013-.137l-.006.019.019-.145a.78.78,0,0,1-.031-.4.4.4,0,0,0,0-.2l0,.009a.231.231,0,0,1,.016-.237l.009-.016-.1-.074.078-.078a.572.572,0,0,1,0-.383c.031-.127.05-.21.006-.274l-.057-.081.057-.054a.159.159,0,0,1,.024-.067.331.331,0,0,1-.044-.217l0-.017-.051-.132h0a.036.036,0,0,1-.007-.016l.042-.016a.121.121,0,0,1-.06-.052.159.159,0,0,1-.017-.113l-.143-.149.142-.052a.3.3,0,0,1,.027-.221.321.321,0,0,1,.023-.34.246.246,0,0,0-.01-.054.387.387,0,0,1,0-.244.3.3,0,0,1-.017-.217.13.13,0,0,0,.01-.04l-.072-.159.111-.03a.177.177,0,0,1-.007-.034.278.278,0,0,1-.055-.211v-.02l-.059-.072.059-.113c.024-.03.021-.06.009-.139a.552.552,0,0,1,0-.181l-.095-.069.006-.044.054-.116c.006-.006.01-.031.01-.109a.155.155,0,0,1,.021-.088.123.123,0,0,1,.027-.027.547.547,0,0,1,.027-.325c.028-.1.059-.211.021-.278l-.051-.091.071-.057a.49.49,0,0,0,0-.067.356.356,0,0,1,.033-.254,1.868,1.868,0,0,1,.023-.437,1.652,1.652,0,0,0,.016-.425l-.011-.077.047-.03a.173.173,0,0,0,0-.048.4.4,0,0,1,.021-.149l-.031-.028.074-.092a.2.2,0,0,0,.027-.094.42.42,0,0,1,.086-.205.305.305,0,0,0,.007-.051.4.4,0,0,1,.079-.2.2.2,0,0,1,.111-.147l-.021-.055.034-.051a3.916,3.916,0,0,1,.407-.495c.123-.139.24-.264.332-.39a.558.558,0,0,1,.058-.074l.083.037a.036.036,0,0,1,.016,0v-.119h.147a.253.253,0,0,1,.073-.05l-.034-.034.153-.068a.785.785,0,0,0,.242-.146l.03-.034.047-.006c.025,0,.035-.008.065-.03a.369.369,0,0,1,.194-.092l.026-.02a.3.3,0,0,1,.266-.089l.006-.006-.032-.108.276,0h.3a.42.42,0,0,1,.216-.047l.015-.092.188.061a.18.18,0,0,1,.052.031l.023-.025h.055a.983.983,0,0,1,.145.041c.095.038.1.031.116.01l.041-.06.067.016.452.068.1.014v.05a.277.277,0,0,1,.225.095h0a1.512,1.512,0,0,1,.52.257l.034.031.025,0,.044.037a.924.924,0,0,0,.085.061.513.513,0,0,1,.153.133l.009.011a4.105,4.105,0,0,1,.544.721,1.1,1.1,0,0,1,.116.309.639.639,0,0,0,.14.309l.024.03.007.032.07.381a10.952,10.952,0,0,1,.215,1.682,10.392,10.392,0,0,1,.072,1.219c.009.367.016.709.052,1.024v.013l.024,2.083v.067l-.027.018h0a.206.206,0,0,1,.024.183,7.4,7.4,0,0,0-.031,1.218,8.675,8.675,0,0,1-.037,1.351l-.016.12-.119-.021a.52.52,0,0,0-.272.017l-.146.047v-.129a.219.219,0,0,1-.183-.026s0,0-.006,0a.143.143,0,0,1-.071-.126v-.312l-.095-.079.114-.041-.122-.122h.147a.2.2,0,0,1,.014-.11.163.163,0,0,1,.058-.069l-.04-.051h0a.284.284,0,0,0,.011-.062.307.307,0,0,1,.075-.2v-.011a.238.238,0,0,0-.033-.088l-.155-.193h.092a.3.3,0,0,1,.032-.132v-.008l-.125-.142.1-.054,0-.078a.607.607,0,0,0,0-.126l-.013-.084.019-.007a.363.363,0,0,1-.009-.087v-.152a.678.678,0,0,1-.011-.094.53.53,0,0,0-.014-.078l-.009-.15h.142c0-.011.01-.034.016-.047a.7.7,0,0,1,.042-.118l-.15-.085a.062.062,0,0,1,.007-.014.432.432,0,0,0,.038-.1c.006-.023.011-.044.018-.067l-.086-.014.011-.106a.271.271,0,0,1,.078-.166s-.008-.009-.012-.01a.162.162,0,0,1-.016-.145l.01-.027-.03-.13.091-.045a.332.332,0,0,1,.031-.036v0l-.038-.147h.052l-.058-.069a.345.345,0,0,1-.133-.339.133.133,0,0,1-.052-.079l.048-.085a.174.174,0,0,1,.019-.145l-.037-.074.071-.024v-.033a.445.445,0,0,1,.006-.088l.018-.006a.132.132,0,0,1-.064-.078l-.021-.067.025-.026a.115.115,0,0,1-.007-.027.125.125,0,0,1,.037-.1.381.381,0,0,1-.021-.052.6.6,0,0,1-.048-.34l0-.016.01-.017a.253.253,0,0,0,.028-.15.8.8,0,0,1,.01-.13h-.045l.026-.139c0-.017.009-.024.01-.04a.229.229,0,0,1-.07-.018l.03-.122a.524.524,0,0,0-.006-.061.265.265,0,0,1,.031-.22l.007-.01a.9.9,0,0,1-.029-.634l.009-.051-.006-.02a.276.276,0,0,1-.032-.116l-.043-.021-.057-.084.027-.1.04-.04a.283.283,0,0,1-.025-.067s-.006-.007-.006-.01h0l-.035-.058-.007-.089c.009-.07.007-.115.058-.152l-.024-.021a.265.265,0,0,1-.1-.361l.018-.041-.02-.048a.432.432,0,0,1-.055-.2l-.015-.009-.075-.076.027-.089-.01-.038a.329.329,0,0,1-.01-.214,1,1,0,0,1-.19-.465v-.007h-.085v-.115a1.438,1.438,0,0,0-.388-.612.351.351,0,0,1-.247-.108l-.023-.031v0a.415.415,0,0,0-.047-.031.526.526,0,0,1-.115-.079.4.4,0,0,1-.347-.173.26.26,0,0,0-.031-.04l-.057.084-.089-.051a1.365,1.365,0,0,0-.863-.062l-.111.016-.082.013,0-.009a.133.133,0,0,1-.1-.017c-.024-.011-.037-.007-.095.013a.332.332,0,0,1-.082.023.189.189,0,0,1-.122.082h-.009l-.047.045-.071-.031c-.071-.034-.1-.014-.208.069a.6.6,0,0,1-.238.137.178.178,0,0,1-.161.045.693.693,0,0,1-.213.177c-.1.064-.157.1-.177.179l-.016.062-.062.018c-.125.037-.171.116-.238.225a.906.906,0,0,1-.168.232.154.154,0,0,1,.007.044.222.222,0,0,1-.1.177c-.007.01-.017.016-.023.026v.03a.916.916,0,0,1-.163.4.533.533,0,0,0-.11.276v0a.162.162,0,0,1,.047.133l-.007.075a1.815,1.815,0,0,1-.126.625.477.477,0,0,1-.006.258.357.357,0,0,0-.011.173l.009.028-.007.026a.782.782,0,0,0-.017.174,1.067,1.067,0,0,1-.03.25.189.189,0,0,1-.038.2l.01.011,0,.033c0,.113,0,.223,0,.33a2.958,2.958,0,0,1-.048.7,5.754,5.754,0,0,1,.01.668,5.108,5.108,0,0,0,.013.748l0,.006v.006c0,.188.01.391.018.607a13.885,13.885,0,0,1,.007,1.575.76.76,0,0,1,.009.319.492.492,0,0,0,.021.291l.015.025,0,.031c0,.067-.01.135-.016.206a2.305,2.305,0,0,0,.013.8l.007.024,0,.025,0,.051a.3.3,0,0,1-.178.312l-.061.017Zm-9.347,0a.964.964,0,0,1-.222-.753,1.362,1.362,0,0,0-.031-.363l-.035-.1.047-.016a.185.185,0,0,1-.011-.137l-.006.019.02-.145a.737.737,0,0,1-.033-.4.44.44,0,0,0,0-.195.242.242,0,0,1,.02-.232l.006-.016-.1-.074.079-.078a.525.525,0,0,1,0-.383c.03-.127.047-.21,0-.274l-.055-.081.055-.054a.153.153,0,0,1,.022-.067.349.349,0,0,1-.042-.217l0-.017-.051-.132,0-.016.045-.016a.115.115,0,0,1-.062-.052.151.151,0,0,1-.019-.113l-.143-.149.142-.052a.3.3,0,0,1,.027-.221.322.322,0,0,1,.025-.34.32.32,0,0,0-.013-.054.419.419,0,0,1,0-.244.29.29,0,0,1-.016-.217.229.229,0,0,0,.007-.04l-.072-.159.111-.03a.185.185,0,0,1-.006-.034.275.275,0,0,1-.054-.211v-.02l-.064-.072.064-.113c.024-.03.02-.06.008-.139a.521.521,0,0,1-.005-.181l-.1-.069.01-.044.054-.116a.335.335,0,0,0,.01-.109.135.135,0,0,1,.021-.088.113.113,0,0,1,.025-.027.538.538,0,0,1,.029-.325c.028-.1.06-.211.02-.278l-.052-.091.075-.057a.261.261,0,0,0-.009-.067.356.356,0,0,1,.034-.254,1.8,1.8,0,0,1,.023-.437,1.47,1.47,0,0,0,.016-.425l-.011-.077.05-.03v-.048a.379.379,0,0,1,.026-.149l-.034-.028.071-.092a.2.2,0,0,0,.031-.094.418.418,0,0,1,.084-.205c0-.017.007-.034.01-.051a.389.389,0,0,1,.079-.2.2.2,0,0,1,.108-.147l-.023-.055.034-.051a3.766,3.766,0,0,1,.408-.495,4.6,4.6,0,0,0,.33-.39.682.682,0,0,1,.059-.074l.082.037a.041.041,0,0,1,.019,0v-.119h.147a.239.239,0,0,1,.071-.05l-.033-.034.152-.068a.742.742,0,0,0,.242-.146l.033-.034.045-.006c.027,0,.037-.008.065-.03a.367.367,0,0,1,.2-.092l.024-.02a.3.3,0,0,1,.268-.089l0-.006-.031-.108.275,0h.3a.412.412,0,0,1,.214-.047l.016-.092.188.061a.2.2,0,0,1,.051.031l.025-.025h.054a.767.767,0,0,1,.142.041c.1.038.1.031.118.01l.041-.06.067.016.452.068.1.014v.05a.278.278,0,0,1,.227.095h0a1.525,1.525,0,0,1,.52.257l.034.031.027,0,.044.037a.836.836,0,0,0,.085.061.5.5,0,0,1,.152.133l.01.011a4.3,4.3,0,0,1,.544.721,1.085,1.085,0,0,1,.115.309.627.627,0,0,0,.142.309l.026.03.007.032.067.381a10.958,10.958,0,0,1,.217,1.682,10.185,10.185,0,0,1,.072,1.219q0,.513.05,1.024v.013l.024,2.083v.067l-.027.018v0a.2.2,0,0,1,.024.183,7.274,7.274,0,0,0-.031,1.218,9.046,9.046,0,0,1-.037,1.351l-.014.12-.119-.02a.518.518,0,0,0-.275.016l-.145.047v-.129a.219.219,0,0,1-.183-.025l-.006,0a.136.136,0,0,1-.071-.126v-.312l-.095-.079.113-.041-.123-.122h.15a.209.209,0,0,1,.013-.111.172.172,0,0,1,.058-.069l-.04-.05c0-.011,0-.044.01-.064a.319.319,0,0,1,.077-.2l0-.011a.324.324,0,0,0-.033-.088l-.155-.193h.091a.354.354,0,0,1,.036-.14l-.126-.142.1-.054v-.078a.64.64,0,0,0,0-.126l-.01-.084.016-.007a.584.584,0,0,1-.007-.085v-.153l-.016-.094a.241.241,0,0,0-.011-.078l-.006-.15h.136a.259.259,0,0,0,.018-.047.43.43,0,0,1,.042-.116l-.152-.085c0-.007.006-.01.009-.016a.3.3,0,0,0,.037-.1c.007-.023.013-.044.021-.065l-.088-.016.011-.106a.258.258,0,0,1,.079-.166c-.007,0-.011-.007-.015-.01a.164.164,0,0,1-.013-.145l.01-.025-.03-.132.089-.045a.176.176,0,0,1,.031-.034v-.006l-.042-.147h.055a.658.658,0,0,0-.058-.069.348.348,0,0,1-.135-.339.126.126,0,0,1-.05-.079l.047-.084a.188.188,0,0,1,.019-.146l-.036-.074.072-.024v-.033s0-.088,0-.088l.02,0a.128.128,0,0,1-.064-.079l-.022-.067.025-.025a.072.072,0,0,1-.005-.026.136.136,0,0,1,.034-.1l-.02-.052a.56.56,0,0,1-.048-.34l.006-.016.009-.016a.262.262,0,0,0,.03-.152.823.823,0,0,1,.011-.13h-.047l.026-.139a.122.122,0,0,1,.01-.04.224.224,0,0,1-.069-.018l.028-.122a.277.277,0,0,0-.007-.061.3.3,0,0,1,.031-.22c.006,0,.007,0,.01-.01a.926.926,0,0,1-.031-.633l.011-.051a.027.027,0,0,1-.006-.02.24.24,0,0,1-.031-.116l-.044-.021-.055-.084.025-.1.037-.041a.308.308,0,0,1-.028-.067l0-.01h0l-.033-.058-.009-.089c.009-.07,0-.115.058-.153a.119.119,0,0,1-.025-.02.271.271,0,0,1-.1-.361l.02-.041a.372.372,0,0,0-.02-.048.443.443,0,0,1-.057-.2l-.016-.009-.074-.076.028-.089a.291.291,0,0,0-.011-.038.341.341,0,0,1-.01-.214.984.984,0,0,1-.188-.465s0,0,0-.007h-.084v-.115a1.446,1.446,0,0,0-.387-.612.357.357,0,0,1-.248-.108l-.021-.031v0a.315.315,0,0,0-.048-.031.6.6,0,0,1-.113-.079.4.4,0,0,1-.346-.173.412.412,0,0,0-.033-.04l-.055.084-.091-.051a1.368,1.368,0,0,0-.865-.062l-.109.016-.082.013-.006-.009a.136.136,0,0,1-.1-.017c-.02-.011-.034-.007-.091.013a.405.405,0,0,1-.082.023.189.189,0,0,1-.126.082h-.009l-.044.045-.074-.031c-.07-.034-.1-.014-.208.069a.576.576,0,0,1-.235.137.182.182,0,0,1-.163.045.689.689,0,0,1-.212.177c-.1.064-.159.1-.176.179l-.016.062-.064.018c-.126.037-.172.116-.234.225a.9.9,0,0,1-.174.232.113.113,0,0,1,.009.044.227.227,0,0,1-.1.177l-.027.026v.03a.878.878,0,0,1-.165.4.543.543,0,0,0-.109.276v0a.16.16,0,0,1,.047.133l-.006.075a1.821,1.821,0,0,1-.126.625.484.484,0,0,1-.006.258.373.373,0,0,0-.014.173l.007.028-.005.026a1.115,1.115,0,0,0-.016.174,1.082,1.082,0,0,1-.03.25.194.194,0,0,1-.035.2l.006.011v.033c0,.109,0,.22,0,.33a2.892,2.892,0,0,1-.045.7,5.8,5.8,0,0,1,.008.668,5.092,5.092,0,0,0,.011.748v.011c0,.188.011.391.021.607a14.234,14.234,0,0,1,0,1.575.756.756,0,0,1,.011.319.507.507,0,0,0,.02.291l.014.025v.031c0,.067-.013.135-.016.206a2.266,2.266,0,0,0,.011.8l.006.024,0,.025,0,.051a.3.3,0,0,1-.176.312l-.063.017ZM-1260.36-1222.793Zm18.12,2.085a.948.948,0,0,1-.225-.751,1.34,1.34,0,0,0-.031-.363l-.031-.095.044-.023a.177.177,0,0,1-.016-.129l.018-.13a.72.72,0,0,1-.031-.4.483.483,0,0,0,0-.2.231.231,0,0,1,.017-.232.033.033,0,0,0,.008-.016l-.1-.071.078-.082a.552.552,0,0,1,0-.381c.031-.127.047-.21,0-.274l-.055-.081.058-.054a.121.121,0,0,1,.024-.067.313.313,0,0,1-.044-.217v-.016l-.051-.135-.006-.016.044-.014a.128.128,0,0,1-.06-.052.138.138,0,0,1-.017-.113l-.146-.149.142-.052a.327.327,0,0,1,.027-.221.328.328,0,0,1,.025-.343l-.01-.051a.4.4,0,0,1,0-.241.3.3,0,0,1-.015-.219.341.341,0,0,0,.01-.038l-.072-.157.109-.031a.306.306,0,0,1-.007-.035.279.279,0,0,1-.054-.211v-.02l-.06-.072.061-.113c.023-.028.017-.06.007-.139a.566.566,0,0,1-.006-.181l-.1-.069.01-.045.052-.115a.269.269,0,0,0,.011-.109.129.129,0,0,1,.021-.088.152.152,0,0,1,.026-.027.573.573,0,0,1,.027-.325c.031-.106.061-.211.021-.278l-.051-.091.072-.055a.362.362,0,0,0-.005-.067.372.372,0,0,1,.032-.255,2.04,2.04,0,0,1,.02-.435,1.457,1.457,0,0,0,.017-.429l-.009-.074.047-.031a.266.266,0,0,0,0-.048.4.4,0,0,1,.023-.147l-.031-.026.072-.095a.239.239,0,0,0,.03-.094.417.417,0,0,1,.081-.208.192.192,0,0,0,.01-.047.4.4,0,0,1,.079-.205.213.213,0,0,1,.109-.146l-.021-.054.034-.051a4.08,4.08,0,0,1,.408-.495,4.011,4.011,0,0,0,.328-.388s.055-.075.062-.072l.081.035.02,0v-.122h.146a.269.269,0,0,1,.072-.045l-.033-.034.153-.069a.8.8,0,0,0,.241-.149l.031-.031.047-.006c.027,0,.037-.008.064-.03a.375.375,0,0,1,.2-.092c.006-.006.014-.011.024-.021a.294.294,0,0,1,.268-.088l0-.007-.033-.108h.577a.437.437,0,0,1,.215-.05l.014-.091.189.061a.407.407,0,0,1,.052.031l.027-.027.051,0a.762.762,0,0,1,.146.037c.094.041.1.034.115.01l.042-.058.062.011.458.071.094.016v.051a.28.28,0,0,1,.228.089l0,0a1.491,1.491,0,0,1,.521.261l.033.025.025-.007.044.041a.424.424,0,0,0,.087.058.57.57,0,0,1,.15.136l.011.013a4.138,4.138,0,0,1,.544.722.942.942,0,0,1,.115.3.64.64,0,0,0,.142.309l.025.03.006.035.067.381a10.587,10.587,0,0,1,.218,1.681,10.847,10.847,0,0,1,.072,1.217q0,.515.051,1.025v.011l.024,2.091v.063l-.027.017a.2.2,0,0,1,.024.186,7.5,7.5,0,0,0-.031,1.218,9.047,9.047,0,0,1-.037,1.345l-.014.126-.12-.026a.532.532,0,0,0-.271.02l-.149.047v-.129a.209.209,0,0,1-.18-.026s-.008,0-.008,0a.138.138,0,0,1-.07-.125v-.315l-.1-.079.114-.04-.122-.122h.15a.192.192,0,0,1,.011-.109.2.2,0,0,1,.058-.074l-.038-.051h0a.323.323,0,0,0,.01-.062.324.324,0,0,1,.078-.2l0-.011a.25.25,0,0,0-.032-.088l-.153-.193h.092a.362.362,0,0,1,.03-.133c0-.006,0-.006,0-.01l-.126-.139.1-.055q0-.038,0-.077a.533.533,0,0,0,0-.126l-.01-.085.016-.008a.553.553,0,0,1-.006-.084v-.15a.632.632,0,0,1-.015-.095.393.393,0,0,0-.013-.078l-.006-.153h.137a.272.272,0,0,0,.017-.048.52.52,0,0,1,.042-.111l-.152-.088.008-.016a.366.366,0,0,0,.037-.1l.02-.069-.087-.01.01-.109a.259.259,0,0,1,.08-.163.032.032,0,0,1-.014-.014.147.147,0,0,1-.015-.139l.011-.033-.028-.129.091-.047a.181.181,0,0,1,.03-.033v-.006l-.042-.15h.057a.819.819,0,0,0-.058-.064.354.354,0,0,1-.136-.342.114.114,0,0,1-.051-.077l.05-.087a.19.19,0,0,1,.017-.145l-.035-.074.071-.023v-.031a.664.664,0,0,1,0-.093l.02,0a.128.128,0,0,1-.064-.078l-.021-.067.025-.024a.084.084,0,0,1-.009-.031.137.137,0,0,1,.036-.1.515.515,0,0,1-.02-.055.536.536,0,0,1-.047-.337l0-.017.01-.017a.245.245,0,0,0,.028-.15.644.644,0,0,1,.01-.128h-.047l.025-.142c0-.011.009-.024.011-.035-.032-.01-.071-.017-.071-.024l.03-.118a.389.389,0,0,0-.006-.062.273.273,0,0,1,.035-.221s0,0,0,0a.919.919,0,0,1-.031-.638l.011-.052a.04.04,0,0,1-.007-.016.251.251,0,0,1-.028-.119l-.045-.02-.057-.084.029-.1.038-.04a.244.244,0,0,1-.027-.067s0,0,0-.01h0l-.036-.057-.01-.089c.011-.074.01-.113.061-.152l-.026-.023a.265.265,0,0,1-.1-.36l.018-.042-.018-.044a.422.422,0,0,1-.055-.207l-.02-.009-.072-.076.027-.088a.178.178,0,0,0-.013-.042.321.321,0,0,1-.007-.211.986.986,0,0,1-.19-.465l0-.01H-1237v-.113a1.471,1.471,0,0,0-.385-.614.339.339,0,0,1-.247-.1l-.024-.032v-.006c-.014-.011-.033-.018-.047-.031a.482.482,0,0,1-.113-.079.391.391,0,0,1-.349-.174.131.131,0,0,0-.033-.035l-.054.079-.092-.048a1.355,1.355,0,0,0-.86-.062l-.111.013-.084.016,0-.009a.154.154,0,0,1-.106-.017c-.02-.01-.033-.007-.091.011a.289.289,0,0,1-.082.025.208.208,0,0,1-.125.081l-.009,0-.044.047-.074-.034c-.071-.037-.1-.016-.208.069a.6.6,0,0,1-.238.135.188.188,0,0,1-.16.051.839.839,0,0,1-.211.177c-.1.064-.163.1-.179.174l-.016.064-.062.018a.389.389,0,0,0-.235.225.934.934,0,0,1-.173.232.1.1,0,0,1,.007.045.237.237,0,0,1-.1.176l-.027.026v.03a.948.948,0,0,1-.163.4.5.5,0,0,0-.111.274v.007a.145.145,0,0,1,.047.13l-.006.075a1.783,1.783,0,0,1-.126.621.478.478,0,0,1,0,.261.374.374,0,0,0-.014.173l.007.027-.006.031a.8.8,0,0,0-.016.172,1.056,1.056,0,0,1-.031.25.187.187,0,0,1-.037.2l.005.011v.363a2.852,2.852,0,0,1-.044.7,5.85,5.85,0,0,1,.008.67,5.148,5.148,0,0,0,.013.75l0,0v.005c0,.187.011.39.02.608a14.242,14.242,0,0,1,0,1.575.762.762,0,0,1,.011.316.5.5,0,0,0,.019.291l.017.027,0,.037c0,.062-.01.13-.016.2a2.28,2.28,0,0,0,.013.8l.007.021,0,.024a.367.367,0,0,1,0,.057c0,.087-.013.257-.177.308l-.064.018ZM-1242.511-1222.793Zm6.387-10.994c-.611.011-1.226-.033-1.877-.084h-.021a15.057,15.057,0,0,0-2.629-.045h-.013l-.974-.1a48.422,48.422,0,0,0-5.209-.179,1.169,1.169,0,0,1-.22-.031.115.115,0,0,1-.031-.006.867.867,0,0,0-.481,0v0l-.032,0v-.005a2.243,2.243,0,0,0-.6-.038,2.133,2.133,0,0,1-.591-.044,2.087,2.087,0,0,0-.221.034l-.025,0a1.138,1.138,0,0,1-.493.034c-.774.031-1.542.024-2.286.021h-.09a30.982,30.982,0,0,0-3.522.109h-.009c-.055,0-.147,0-.3,0-.106,0-.244,0-.419,0l-1.61.01c-1.576,0-2.442,0-2.575-.016a.239.239,0,0,1-.242-.252.507.507,0,0,1,.377-.446c.054,0,.452,0,1.216-.006,1.433,0,3.833-.014,4.838-.041.968-.027,1.912-.052,2.889-.062q1.941-.074,3.884-.026l5.229.112c.649.007,1.294,0,1.919-.007l.051,0h.035a33.107,33.107,0,0,1,3.66.095.788.788,0,0,1,.67.1l.011,0h0a.47.47,0,0,1,.075.57h0l-.014.017h0l-.323.262v.013l-.036.013Z" transform="translate(1264 1243.681)" fill="#fff"/>
  </g>
</svg>
