<svg xmlns="http://www.w3.org/2000/svg" width="32.834" height="32" viewBox="0 0 32.834 32">
  <g id="jugraBank" transform="translate(-31.61 357.507)">
    <path id="Path_49" data-name="Path 49" d="M90.8,7.7l1.006-.914.042-.04h0l.035-.034.007-.008,0,0,0,0,0,0s0,0,0,0,0,0,0,0h0v0l0,0,0,0,0,0,0,0v0l0,0h0v0l0,0,0,0,0,0v0s0,0,0,0l0,0h0v0h0l.007-.008,0,0,.012-.015,0,0s0-.007.007-.011a0,0,0,0,0,0,0l0,0,0,0,0,0,0,0,0,0,.015-.019,0,0,0,0,.008-.012h0l.008-.012.012-.017.01-.012h0l.019-.028.01-.015,0-.01.024-.041,0,0,.007-.012.012-.024.029-.056V6.313l0,0,.015-.032a.072.072,0,0,0,0-.012l.011-.024v0l0-.007.006-.018,0-.011v0l.006-.018.012-.03h0l0,0v0l.006-.028v0l0-.006,0-.019,0-.01,0-.017V6.051l0-.015.006-.024h0l0-.025h0l0-.017,0-.027V5.937l0-.022v-.2l0-.018V5.673h0V5.656l0-.024h0V5.619l0-.015-.008-.04-.01-.03-.01-.033,0-.008s0,0,0-.006l0-.015v0s0-.011-.007-.016v0l-.012-.027,0,0a.084.084,0,0,1-.007-.016h0l0-.007v0q-.008-.014-.015-.028l0-.006,0-.008v0h0l-.01-.016-.006-.006v0c-.01-.012-.016-.024-.024-.033a.073.073,0,0,1-.011-.017l0-.008-.01-.01,0,0-.008-.01-.024-.028.006,0L92.034,5.2l-.012-.013,0,0-.012-.011-.008-.007v0l-.016-.013-.017-.016-.006,0h0l-.012-.012-.01-.007L91.925,5.1l0,0-.016-.011L91.9,5.08l-.013-.01-.022-.013-.019-.012h0a.251.251,0,0,0-.036-.019.723.723,0,0,0-.107-.046l-.008,0h0l-.007,0h0l0,0-.013,0h-.01L91.6,4.95h0l-.016,0-.012,0h-.008v0h-.024l-.019,0h-.012l-.008,0h0a.42.42,0,0,0-.063-.007h-.025a1.109,1.109,0,0,0-.291.016h-.01a1.249,1.249,0,0,0-.161.042h-.01l-.007,0h-.006l-.024.008-.046.018-.015,0-.024.011-.007,0-.012.006-.01,0-.015.007a.329.329,0,0,0-.051.024h0l-.023.013h0l-.015.008-.021.011h0l-.012.008-.012.006h0l-.012.008-.012.007-.027.018h0l-.006,0h0l0,0-.01.006-.006,0h0l-.01.007h0s0,0,0,0v0h0s0,0,0,0h0l0,0,0,0s0,0,0,0h0l0,0h0v0h0l0,0,0,0v0l0,0,0,0,0,0-.006,0-.012.007-.008.008-.008.008-.063.052c-.03.03-.452.412-1.18,1.073-5.5,4.906-10.917,9.89-16.353,14.86L64.8,28.551l-.033.033.017-.017-.056.055,0,0v0l-.05.053,0,0-.021.022h0l-.006.006,0,.006a1.2,1.2,0,0,0-.1.138l-.008.015-.006.007-.006.012h0l-.013.024,0,0,0,.007-.008.016-.01.015,0,.006v0l-.018.036-.006.01h0l-.015.03v0l-.013.03v0l-.008.018,0,.012h0l0,.006h0l-.007.022,0,0h0l0,.01h0q0,.011-.008.023h0l-.006.015a.054.054,0,0,1-.006.018h0a.03.03,0,0,1,0,.008l-.006.022,0,.008a.155.155,0,0,0,0,.016v.008l0,.016,0,.01,0,.018,0,.008h0v.007a.066.066,0,0,1,0,.018h0v.015l0,.012v.025l0,.024a.054.054,0,0,1,0,.021v.058h0v.027h0v.078h0v.051l0,.017v.008h0v.008l0,.012v.007l0,.015v.01h0v0l0,.01v0h0l0,.027h0l.006.023h0l.008.032.012.036h0l.007.021,0,.008h0c0,.01.01.017.015.028L64.41,29.9l0,.006a.2.2,0,0,0,.015.028l0,0,0,0h0a.223.223,0,0,0,.018.034l0,0,.008.015h0a.347.347,0,0,0,.024.04.459.459,0,0,0,.036.049s0,0-.006,0l-.015-.019.015.019,0,0c.018.024.04.046.059.069l-.012-.01.021.022,0,0,.013.013s0,.007.008.008h0c.007,0,.012.012.018.017l0,0,.032.03v0l.03.028-.016-.016c.011.008.021.021.033.029V30.23l.032.029a.079.079,0,0,1,.018.012v0q.022.016.046.03v0l.016.011.01,0h0l.006,0,.018.011h0v0l.013,0,.008,0,.006,0h0a.007.007,0,0,1,.006,0l.012,0h0l.007,0v0l.017,0,.012.006h.008l0,0a.065.065,0,0,1,.019,0,.009.009,0,0,0,.007,0l.022.007.012,0,.016,0h0l0,0h.007a.02.02,0,0,1,.011,0h0a.031.031,0,0,0,.015,0l.011,0h0l.012,0h.008v0h.008c.007,0,.012,0,.019,0l.01,0h.021a.046.046,0,0,0,.012,0h.012a.024.024,0,0,0,.012,0h.05v0l.018,0v0h.091l.024,0h.03a.031.031,0,0,0,.015,0h.017a.016.016,0,0,0,.01,0l.021,0h.008l.022,0h0l.007,0,.017,0h.013l.024-.006.008,0h0l.008,0,.017,0,.012,0h0v0l.013-.006.025-.006.013,0,.025-.008h0l.015,0,.019-.006.012,0,.006,0h0l.019-.007h0l.029-.011h0l.015-.006a.06.06,0,0,0,.021-.007h0l.012-.007.012-.006.036-.015h0l.012-.007.01,0,.006,0h0l.008-.006a.131.131,0,0,0,.024-.012h0l.028-.017,0,0,.012-.007.023-.012.011-.008.042-.027a0,0,0,0,1,0,0l.027-.019.049-.036,0,0,.018-.012.021-.017.021-.018.022-.017.036-.032v0c.082-.075,2.718-2.472,6.568-5.968C78.91,18.736,85.084,13.459,90.8,7.7M68.992,23.118l1.614-1.467.445-.4C76.926,16.1,82.836,11,88.374,5.5L89.55,4.434l.044-.041h0l.034-.034.008-.008,0,0,0,0,0,0h0v0h0l0,0,0,0v0h0v0s0,0,0,0v0h0v0a0,0,0,0,0,0,0h0v0l0,0s0,0,0,0a0,0,0,0,1,0,0v0h0l.008-.01,0-.006a.036.036,0,0,0,.008-.012l0,0a.039.039,0,0,0,.01-.012h0v0l0,0,0,0,0,0a0,0,0,0,1,0,0,.061.061,0,0,1,.011-.015l0-.006,0,0,0,0,.008-.012.007-.011.012-.018.021-.029.006-.011.011-.016.006-.012,0,0,.007-.012a.029.029,0,0,1,.007-.012l0-.008,0-.007.006-.01.012-.024.021-.042a.044.044,0,0,0,.007-.012l0,0v0l.012-.024,0-.013,0-.008.008-.022,0-.006a1.142,1.142,0,0,0,.076-.325.852.852,0,0,0-.125-.576l-.007-.012-.008-.011a.184.184,0,0,0-.023-.034l-.011-.015,0-.008-.008-.012h0l-.012-.016-.022-.024,0,0-.015-.015-.012-.013,0,0-.017-.016,0,0-.018-.015-.016-.015-.006,0h0v0l-.007,0-.012-.01,0,0h0l-.015-.012h0l0,0h0l-.01-.008h0l-.022-.016h0l0,0-.012-.01-.023-.012-.035-.019-.041-.019-.012-.006h0l-.012-.006a.014.014,0,0,1-.008,0l0,0-.012,0-.017-.006-.01,0h-.006v0h0l0,0-.01,0-.008,0h-.007a.251.251,0,0,0-.04-.012h0l-.012,0-.028-.006H89.3a.636.636,0,0,0-.064-.012.549.549,0,0,0-.059-.006h-.022v0H89a.033.033,0,0,1-.016,0h-.01l-.017,0h0l-.028,0h0l-.013,0h-.019l-.016,0h-.021l-.036.007-.012,0,0,0h0l-.012,0h0l-.024,0-.007,0h-.007l-.019,0h-.008l-.01,0a.046.046,0,0,1-.012,0l-.021.007h0l0,0h0l-.016,0h0l-.011,0-.018.007.011,0-.017.007h0l-.025.012h-.008l-.024.011h0l-.023.008,0,0-.012.007a.309.309,0,0,0-.053.024l0,0s0,0,0,0l-.012.006-.006,0h0l-.013.007-.021.012h0l-.011.007h0l-.012.006h0l-.012.008-.013.007-.027.018h0l0,0h0l0,0a.027.027,0,0,0-.01.008l-.006,0,0,0-.01.006h0l0,0h0s0,0,0,0h0l0,0h0l0,0,0,0,0,0h0l0,0h0s0,0,0,0l0,0s0,0,0,0l0,0,0,0,0,0,0,0-.012.008-.017.016.008-.008-.01.008-.061.051v0L86.951,4.018C81.426,8.949,75.974,13.96,70.512,18.956l-1.043.947L62.546,26.2h0l-.03.03.017-.017-.055.053v0l0,0-.036.039-.006.008-.007.007h0l-.012.015,0,0-.012.015-.021.024-.017.024-.006.006,0,.006-.007.008-.012.017-.012.018h0l-.01.012,0,0-.024.036-.012.019h0l-.017.028h0l-.008.012-.008.015h0l-.007.016,0,0-.01.022-.008.013s0,.007,0,.012v0l-.008.019-.006.012v0h0l-.012.025s0,0,0,0l-.008.024,0,.008,0,.006-.007.018,0,.007h0l0,.015-.008.018v0a.045.045,0,0,1,0,.017h0l-.007.017,0,.01-.006.017v0a.016.016,0,0,0,0,.006l-.006.017v0l0,0,0,.016,0,.01,0,.021v.013s0,0,0,0l0,.016,0,.016,0,.01v.007l0,.01v.016a.024.024,0,0,0,0,.012v.007a.121.121,0,0,1,0,.018v.023l0,.011v.025h0v.1l0,.018V27.3l0,.021v.008h0a.033.033,0,0,0,0,.016v0l0,0v.012l0,0,.006.025h0q.009.027.016.055l.011.036h0l.008.022,0,.007,0,.01.006.013,0,0,0,.007.007.015,0,.011h0l0,0,0,.007,0,0,.008.012v.006h0s0,0,0,.006l0,0h0l.012.018,0,.008.01.013a.3.3,0,0,0,.036.049l0,0-.016-.018.015.018,0,0a.735.735,0,0,0,.057.068l-.01-.008.018.021,0,0,.012.015.008.008v0l.017.018,0,0,.032.029,0,0c.011.01.021.021.03.028l0,0,.022.019v-.006l.03.028.018.012h0q.024.016.049.03v0l.016.01.01.006h0l.006,0,.017.01h0v0s.007,0,.012,0l.007,0s0,0,.006,0h0a.009.009,0,0,1,.007,0l.01,0v0a.008.008,0,0,0,.006,0l.006,0v0a.06.06,0,0,1,.016,0,.03.03,0,0,0,.013,0v0l.008,0h0l.019.006.007,0,.022.006.012,0,.015,0h0l.007,0,.012,0h0l.015,0h.01v0h.025v0h.007l.019,0h.01a.013.013,0,0,1,.008,0h.012l.017,0h0v0h.053v0h.121l.021,0h.042l.018,0h.012l.018,0h.007a.036.036,0,0,0,.016,0h.013l.022,0h.011l.024,0,.008,0h0l.008,0,.017,0h0l.012,0h0a.055.055,0,0,0,.013,0l.025-.006h0l.034-.011h0l.017,0,.007,0a.036.036,0,0,1,.012,0l0,0,.01,0,0,0a.026.026,0,0,0,.012,0l.01,0v0l.019-.01.01,0,0,0,.017-.008.018-.007h0a.1.1,0,0,1,.017-.007l.01,0h0l.012-.006.022-.012h0l.006,0,.024-.012.033-.018v0l.027-.017h0l0,0,.03-.018,0,0,0,0,.007,0,.015-.01.018-.012.011-.007,0,0,.028-.019a.574.574,0,0,0,.047-.034l0,0,.019-.016.019-.015.018-.016.024-.018.036-.033h0l4.775-4.341.247-.224m-.1,7.19a16.666,16.666,0,0,0,8.29,2.186,16.211,16.211,0,0,0,16.418-16,15.593,15.593,0,0,0-1.71-7.115l-23,20.927ZM85.635,2.777A16.667,16.667,0,0,0,77.176.493a16.211,16.211,0,0,0-16.416,16,15.615,15.615,0,0,0,1.794,7.283l23.082-21Z" transform="translate(-29.15 -358)" fill="#fff" fill-rule="evenodd"/>
  </g>
</svg>
