<svg xmlns="http://www.w3.org/2000/svg" width="65.632" height="32.173" viewBox="0 0 65.632 32.173">
  <g id="pochtaBank" transform="translate(0 -0.175)">
    <path id="Fill-1" d="M0,32.349H31.794v-32H0Z" fill="#fff" fill-rule="evenodd"/>
    <g id="Group_4" data-name="Group 4" transform="translate(0 0.175)">
      <path id="Fill-2" d="M17.569,19.49a4.223,4.223,0,0,0,1.67,1.779.77.77,0,0,1,.3.971c-.2.472-.568,1.144-.349,1.406a1.726,1.726,0,0,0,1.658.138,2.2,2.2,0,0,0,.371.671s-.111.226-.482.112a.9.9,0,0,1-.051.7.9.9,0,0,1-.617-.474,1.01,1.01,0,0,1-.52.423s-.285-.148-.221-.722a1.084,1.084,0,0,1-.853.6.9.9,0,0,1,.11-1.106,1.1,1.1,0,0,1-.975.162s-.1-.323.468-.771a1.074,1.074,0,0,1-.889-.572,1.043,1.043,0,0,1,.938-.261,1.07,1.07,0,0,1-.753-.884,1.08,1.08,0,0,1,1.15.174,1.712,1.712,0,0,0-.42-.472,2.091,2.091,0,0,1-.531-1.866Z" transform="translate(-7.916 -8.978)" fill="#001689" fill-rule="evenodd"/>
      <path id="Fill-4" d="M22.509,33.088a1.736,1.736,0,0,1-.215-.371,3.625,3.625,0,0,0,.635,2.1,1.776,1.776,0,0,0,.1-1.345.935.935,0,0,1-.261-.123,1.941,1.941,0,0,1,.04.776s-.173-.128-.3-1.039" transform="translate(-10.269 -15.071)" fill="#001689" fill-rule="evenodd"/>
      <path id="Fill-6" d="M20.9,32.939a2.873,2.873,0,0,1-.229-.341c-.04.526-.179,1.908.282,2.342,0,0,.316-.233.426-2.251a2.2,2.2,0,0,1-.241.3,2.247,2.247,0,0,1-.151,1.092s-.229-.175-.087-1.142" transform="translate(-9.497 -15.016)" fill="#001689" fill-rule="evenodd"/>
      <path id="Fill-8" d="M18.64,33.448a4.773,4.773,0,0,0,.5-1.864c.054-.036.107-.076.162-.119.019-.018.042-.036.062-.056,0,.05,0,.1.007.156a5.7,5.7,0,0,1-.383,2.139,1.873,1.873,0,0,1-.726.643c-.44-.789.092-1.847.539-2.583.054-.021.109-.047.166-.076a4.057,4.057,0,0,0-.331,1.76" transform="translate(-8.338 -14.468)" fill="#001689" fill-rule="evenodd"/>
      <path id="Fill-10" d="M14.889,30.322a.622.622,0,0,0,.027.2.417.417,0,0,0,.02.058,10.378,10.378,0,0,0-1.19,1.478,1.963,1.963,0,0,1-1.415.8,2.83,2.83,0,0,1,.715-1.637,9.689,9.689,0,0,1,1.493-1.329.82.82,0,0,0,.443.061.229.229,0,0,0,.043-.006.642.642,0,0,0-.111.226,4.006,4.006,0,0,0-1.678,1.469,4.731,4.731,0,0,0,1.653-1.316" transform="translate(-5.68 -13.768)" fill="#001689" fill-rule="evenodd"/>
      <path id="Fill-12" d="M12.99,29.156l.036-.066a.71.71,0,0,1,.039-.06c-.357.139-1.626.621-2.036.835A2.818,2.818,0,0,0,9.7,31.555a2.342,2.342,0,0,0,1.564-.511c.707-.59,1.531-1.411,1.883-1.672a.582.582,0,0,1-.081-.091A7.248,7.248,0,0,1,11.1,30.5a2.3,2.3,0,0,1,.616-.682,6.567,6.567,0,0,1,1.277-.663" transform="translate(-4.468 -13.373)" fill="#001689" fill-rule="evenodd"/>
      <path id="Fill-14" d="M11.287,28.1c.014-.034.028-.066.043-.1-.419.085-1.465.212-1.934.355A2.953,2.953,0,0,0,7.581,29.81a3.232,3.232,0,0,0,2.126-.43,12.576,12.576,0,0,1,2.091-.867.963.963,0,0,1-.438-.135,5.551,5.551,0,0,1-2.032.562,4.565,4.565,0,0,1,.745-.421,9.824,9.824,0,0,1,1.214-.423" transform="translate(-3.492 -12.899)" fill="#001689" fill-rule="evenodd"/>
      <path id="Fill-16" d="M10.531,26.675a1.145,1.145,0,0,0,.418.114,1.078,1.078,0,0,0-.271.252,13.8,13.8,0,0,1-2.7.4,5.809,5.809,0,0,1-2.112-.155,6.172,6.172,0,0,1,1.764-.7c.517-.1,1.877-.089,2.473-.171a1.5,1.5,0,0,0,.2.137,6.9,6.9,0,0,0-2.12.377,6.278,6.278,0,0,0,2.356-.255" transform="translate(-2.7 -12.168)" fill="#001689" fill-rule="evenodd"/>
      <path id="Fill-18" d="M10.009,24.737a1.587,1.587,0,0,1,.256-.121,12.176,12.176,0,0,0-3.1-.646,7.813,7.813,0,0,0-2.214.094,6.482,6.482,0,0,0,2.062.923,10.528,10.528,0,0,0,2.648.1,1.1,1.1,0,0,1,.168-.211,10.538,10.538,0,0,1-2.489-.347,6.062,6.062,0,0,1,2.665.214" transform="translate(-2.282 -11.028)" fill="#001689" fill-rule="evenodd"/>
      <path id="Fill-20" d="M10,22.35a.962.962,0,0,0,.542.634c-.98-.431-2.909-.679-3.946-1.113-1.4-.587-1.658-1.318-1.658-1.318a8.77,8.77,0,0,1,2.951.5c.885.272,2.233.78,2.7.991a1.044,1.044,0,0,0-.534.168,14.655,14.655,0,0,0-1.563-.531,5.687,5.687,0,0,0-1.117-.187,4.825,4.825,0,0,0,1.1.5A10.108,10.108,0,0,0,10,22.35" transform="translate(-2.272 -9.466)" fill="#001689" fill-rule="evenodd"/>
      <path id="Fill-22" d="M10.788,18.74c.039.07.155.236.2.3a6.993,6.993,0,0,1-3.778-2.17,2.883,2.883,0,0,1-.378-1.822,6.524,6.524,0,0,1,1.908,1.357c.288.289,1.156,1.14,1.757,1.614l.187.549c-.515-.417-1.126-.882-1.506-1.171a4.537,4.537,0,0,0-1.169-.687,5.563,5.563,0,0,0,.726.784,8.147,8.147,0,0,0,1.068.729c.278.154.42.24.983.516" transform="translate(-3.139 -6.933)" fill="#001689" fill-rule="evenodd"/>
      <path id="Fill-24" d="M22.253,29.879a1.528,1.528,0,0,0,.122-.119,3.005,3.005,0,0,1,.43.69c.088.256.184.6.231.8a3.888,3.888,0,0,0,.274.755.788.788,0,0,1-.656-.281,1.767,1.767,0,0,1-.41-.979,3.646,3.646,0,0,1,.011-.87" transform="translate(-10.236 -13.709)" fill="#001689" fill-rule="evenodd"/>
      <path id="Fill-26" d="M20.958,30.072a.514.514,0,0,0,.144.137l.052.026.052-.018a.744.744,0,0,0,.131-.052,1.277,1.277,0,0,1,.091.357,1.88,1.88,0,0,1-.013.671,1.374,1.374,0,0,1-.33.542,1.754,1.754,0,0,1-.318-.5,1.3,1.3,0,0,1-.008-.792,1.125,1.125,0,0,1,.2-.373" transform="translate(-9.535 -13.852)" fill="#001689" fill-rule="evenodd"/>
      <path id="Fill-28" d="M19.033,29.923a1.252,1.252,0,0,0,.588-.232.636.636,0,0,1,.046.38.945.945,0,0,1-.324.5,1.283,1.283,0,0,1-.972.339s-.087-.285.662-.983" transform="translate(-8.461 -13.677)" fill="#001689" fill-rule="evenodd"/>
      <path id="Fill-30" d="M18.267,29.24a.952.952,0,0,0,.159.425,1.117,1.117,0,0,1-1.066.562.534.534,0,0,1,.261-.671,2.311,2.311,0,0,1,.645-.316" transform="translate(-7.98 -13.469)" fill="#001689" fill-rule="evenodd"/>
      <path id="Fill-32" d="M17.754,28.288a1.418,1.418,0,0,1-.686,0l-.076-.018-.024-.075c-.34.279-.744.326-.883.579a.6.6,0,0,0,.611.263,1.472,1.472,0,0,0,1.008-.56,1.718,1.718,0,0,1,.049-.186" transform="translate(-7.409 -12.986)" fill="#001689" fill-rule="evenodd"/>
      <path id="Fill-34" d="M16.323,27.281a2.073,2.073,0,0,1,.237-.386,2.3,2.3,0,0,0-.9.012,1.113,1.113,0,0,0-1.03.8.885.885,0,0,0,.735.127,1.488,1.488,0,0,0,.955-.55" transform="translate(-6.741 -12.371)" fill="#001689" fill-rule="evenodd"/>
      <path id="Fill-36" d="M15.8,25.888a1.032,1.032,0,0,1-.264-.356l-.033-.078a1.462,1.462,0,0,0-1.081-.085.945.945,0,0,0-.545.427,1.589,1.589,0,0,0,.856.348,1.884,1.884,0,0,0,1.067-.256" transform="translate(-6.393 -11.654)" fill="#001689" fill-rule="evenodd"/>
      <path id="Fill-38" d="M16.226,24.362a1.317,1.317,0,0,1,.205-.06,1.257,1.257,0,0,1-.383-.665,1.7,1.7,0,0,1-.717-.026.914.914,0,0,0-.763.1.871.871,0,0,0,.673.615,1.47,1.47,0,0,0,.984.032" transform="translate(-6.711 -10.857)" fill="#001689" fill-rule="evenodd"/>
      <path id="Fill-40" d="M15.767,22.224l.077-.05a.842.842,0,0,1,.366-.106,10.923,10.923,0,0,0-.958-.7,4.645,4.645,0,0,0-1.221-.5,3.417,3.417,0,0,0,.6,1.023,1.142,1.142,0,0,0,1.14.333" transform="translate(-6.463 -9.612)" fill="#001689" fill-rule="evenodd"/>
      <path id="Fill-42" d="M16.868,20.522a2.125,2.125,0,0,1-.335-.738,7.585,7.585,0,0,0-.309-1.005,1.812,1.812,0,0,0-1.05-.877,1.993,1.993,0,0,0,.15,1.281,3.582,3.582,0,0,0,1.544,1.34" transform="translate(-6.969 -8.246)" fill="#001689" fill-rule="evenodd"/>
      <path id="Fill-44" d="M24.08,28.9a.89.89,0,0,0,.28.2.975.975,0,0,1-.043.86,11.567,11.567,0,0,0-.552,1.217s-.132-.02-.279-.756a1.486,1.486,0,0,0-.356-.795,1.066,1.066,0,0,0,.268.1l.1.017.044-.088a1,1,0,0,0,.115-.468.963.963,0,0,0-.008-.125.475.475,0,0,0,.4-.169c0-.006.008-.01.01-.015l.025.03" transform="translate(-10.655 -13.298)" fill="#001689" fill-rule="evenodd"/>
      <path id="Fill-46" d="M12.345,15.137c0,.069,0,.144,0,.225l.013.176c-.376-.482-.824-1.062-1.253-1.6a3.372,3.372,0,0,0-.817-.768,3.8,3.8,0,0,0,.942,1.494,10.271,10.271,0,0,0,1.137,1.005l.04.138a1.543,1.543,0,0,0,.152.378,2.736,2.736,0,0,0,.374.505c-.121-.06-.259-.126-.4-.185l-.129-.053A7.555,7.555,0,0,1,9.666,13.7a3.64,3.64,0,0,1-.147-2.448,11.547,11.547,0,0,1,1.592,1.79,16.426,16.426,0,0,1,1.232,2.078l0,.021" transform="translate(-4.318 -5.181)" fill="#001689" fill-rule="evenodd"/>
      <path id="Fill-48" d="M44.4,24.737a1.55,1.55,0,0,0-.255-.121,12.157,12.157,0,0,1,3.1-.646,7.816,7.816,0,0,1,2.215.094,6.469,6.469,0,0,1-2.063.923,10.521,10.521,0,0,1-2.647.1,1.136,1.136,0,0,0-.169-.211,10.536,10.536,0,0,0,2.49-.347,6.069,6.069,0,0,0-2.667.214" transform="translate(-20.336 -11.028)" fill="#001689" fill-rule="evenodd"/>
      <path id="Fill-50" d="M44.122,22.35a.96.96,0,0,1-.542.634c.979-.431,2.91-.679,3.946-1.113,1.4-.587,1.658-1.318,1.658-1.318a8.773,8.773,0,0,0-2.951.5c-.884.272-2.233.78-2.7.991a1.046,1.046,0,0,1,.535.168,14.6,14.6,0,0,1,1.563-.531,5.667,5.667,0,0,1,1.116-.187,4.815,4.815,0,0,1-1.1.5,10.135,10.135,0,0,1-1.522.361" transform="translate(-20.051 -9.466)" fill="#001689" fill-rule="evenodd"/>
      <path id="Fill-52" d="M44.594,18.74c-.038.07-.155.236-.2.3a6.99,6.99,0,0,0,3.778-2.17,2.873,2.873,0,0,0,.378-1.822,6.517,6.517,0,0,0-1.909,1.357c-.287.289-1.155,1.14-1.757,1.614l-.187.549c.515-.417,1.126-.882,1.507-1.171a4.516,4.516,0,0,1,1.167-.687,5.532,5.532,0,0,1-.726.784,7.929,7.929,0,0,1-1.068.729c-.278.154-.42.24-.983.516" transform="translate(-20.449 -6.933)" fill="#001689" fill-rule="evenodd"/>
      <path id="Fill-54" d="M43.567,15.137c0,.069,0,.144,0,.225l-.013.176c.375-.482.826-1.062,1.253-1.6a3.375,3.375,0,0,1,.818-.768,3.817,3.817,0,0,1-.943,1.494,10.225,10.225,0,0,1-1.136,1.005l-.041.138a1.543,1.543,0,0,1-.151.378,2.736,2.736,0,0,1-.375.505c.121-.06.259-.126.4-.185l.129-.053A7.544,7.544,0,0,0,46.245,13.7a3.649,3.649,0,0,0,.147-2.448,11.563,11.563,0,0,0-1.593,1.79,16.645,16.645,0,0,0-1.232,2.078v.021" transform="translate(-19.799 -5.181)" fill="#001689" fill-rule="evenodd"/>
      <path id="Fill-56" d="M16.412,31.29a3.881,3.881,0,0,0-1.372,2.693,2.535,2.535,0,0,0,1.3-.972,7.722,7.722,0,0,1,.775-1.261,1.04,1.04,0,0,1-.3,0l-.083-.013a4.1,4.1,0,0,1-1.117,1.377s-.107-.569,1.122-1.723a.961.961,0,0,1,.077-.161,1.049,1.049,0,0,1-.384.062" transform="translate(-6.925 -14.385)" fill="#001689" fill-rule="evenodd"/>
      <path id="Fill-58" d="M37.939,19.49a4.236,4.236,0,0,1-1.668,1.779.767.767,0,0,0-.3.971c.2.472.569,1.144.346,1.406a1.722,1.722,0,0,1-1.657.138,2.2,2.2,0,0,1-.369.671s.11.226.482.112a.9.9,0,0,0,.049.7.9.9,0,0,0,.617-.474,1,1,0,0,0,.521.423s.285-.148.222-.722a1.078,1.078,0,0,0,.853.6.9.9,0,0,0-.113-1.106,1.108,1.108,0,0,0,.977.162s.1-.323-.471-.771a1.078,1.078,0,0,0,.892-.572,1.046,1.046,0,0,0-.939-.261,1.069,1.069,0,0,0,.753-.884,1.077,1.077,0,0,0-1.148.174,1.662,1.662,0,0,1,.419-.472,2.086,2.086,0,0,0,.532-1.866" transform="translate(-15.797 -8.978)" fill="#001689" fill-rule="evenodd"/>
      <path id="Fill-60" d="M35.754,33.088a1.95,1.95,0,0,0,.216-.371,3.629,3.629,0,0,1-.637,2.1,1.781,1.781,0,0,1-.1-1.345.938.938,0,0,0,.263-.123,1.954,1.954,0,0,0-.043.776s.177-.128.305-1.039" transform="translate(-16.199 -15.071)" fill="#001689" fill-rule="evenodd"/>
      <path id="Fill-62" d="M37.4,32.939a2.606,2.606,0,0,0,.229-.341c.04.526.178,1.908-.283,2.342,0,0-.316-.233-.427-2.251a2.388,2.388,0,0,0,.24.3,2.257,2.257,0,0,0,.153,1.092s.228-.175.088-1.142" transform="translate(-17.008 -15.016)" fill="#001689" fill-rule="evenodd"/>
      <path id="Fill-64" d="M39.222,33.448a4.729,4.729,0,0,1-.5-1.864,1.994,1.994,0,0,1-.16-.119.749.749,0,0,1-.064-.056c0,.05,0,.1-.006.156A5.7,5.7,0,0,0,38.87,33.7a1.877,1.877,0,0,0,.725.643c.442-.789-.091-1.847-.537-2.583a1.534,1.534,0,0,1-.166-.076,4.079,4.079,0,0,1,.331,1.76" transform="translate(-17.729 -14.468)" fill="#001689" fill-rule="evenodd"/>
      <path id="Fill-66" d="M41.757,30.322a.588.588,0,0,1-.025.2c0,.015-.011.036-.019.058A10.51,10.51,0,0,1,42.9,32.058a1.963,1.963,0,0,0,1.415.8,2.825,2.825,0,0,0-.715-1.637,9.631,9.631,0,0,0-1.493-1.329.82.82,0,0,1-.443.061.231.231,0,0,1-.043-.006.688.688,0,0,1,.113.226,4,4,0,0,1,1.677,1.469,4.734,4.734,0,0,1-1.654-1.316" transform="translate(-19.173 -13.768)" fill="#001689" fill-rule="evenodd"/>
      <path id="Fill-68" d="M43.016,29.156l-.036-.066a.527.527,0,0,0-.038-.06c.356.139,1.626.621,2.036.835a2.817,2.817,0,0,1,1.326,1.69,2.34,2.34,0,0,1-1.562-.511c-.706-.59-1.532-1.411-1.882-1.672a.741.741,0,0,0,.082-.091A7.243,7.243,0,0,0,44.908,30.5a2.3,2.3,0,0,0-.614-.682,6.605,6.605,0,0,0-1.278-.663" transform="translate(-19.742 -13.373)" fill="#001689" fill-rule="evenodd"/>
      <path id="Fill-70" d="M44.058,28.1a.982.982,0,0,0-.042-.1c.419.085,1.467.212,1.935.355a2.957,2.957,0,0,1,1.814,1.454,3.236,3.236,0,0,1-2.128-.43,12.611,12.611,0,0,0-2.09-.867.975.975,0,0,0,.439-.135,5.55,5.55,0,0,0,2.032.562,4.661,4.661,0,0,0-.745-.421,9.95,9.95,0,0,0-1.216-.423" transform="translate(-20.06 -12.899)" fill="#001689" fill-rule="evenodd"/>
      <path id="Fill-72" d="M44.074,26.675a1.156,1.156,0,0,1-.419.114,1.089,1.089,0,0,1,.272.252,13.751,13.751,0,0,0,2.7.4,5.8,5.8,0,0,0,2.112-.155,6.161,6.161,0,0,0-1.762-.7c-.519-.1-1.878-.089-2.475-.171a1.61,1.61,0,0,1-.2.137,6.905,6.905,0,0,1,2.121.377,6.277,6.277,0,0,1-2.356-.255" transform="translate(-20.109 -12.168)" fill="#001689" fill-rule="evenodd"/>
      <path id="Fill-74" d="M35.765,29.879c-.047-.042-.087-.082-.123-.119a3.01,3.01,0,0,0-.426.69c-.09.256-.185.6-.231.8a4.02,4.02,0,0,1-.276.755.79.79,0,0,0,.658-.281,1.775,1.775,0,0,0,.411-.979,3.71,3.71,0,0,0-.013-.87" transform="translate(-15.989 -13.709)" fill="#001689" fill-rule="evenodd"/>
      <path id="Fill-76" d="M37.346,30.072a.5.5,0,0,1-.143.137l-.05.026-.054-.018a.859.859,0,0,1-.129-.052,1.342,1.342,0,0,0-.091.357,1.855,1.855,0,0,0,.012.671,1.374,1.374,0,0,0,.331.542,1.762,1.762,0,0,0,.318-.5,1.311,1.311,0,0,0,.01-.792,1.146,1.146,0,0,0-.2-.373" transform="translate(-16.976 -13.852)" fill="#001689" fill-rule="evenodd"/>
      <path id="Fill-78" d="M38.8,29.923a1.256,1.256,0,0,1-.588-.232.633.633,0,0,0-.044.38.914.914,0,0,0,.325.5,1.274,1.274,0,0,0,.97.339s.087-.285-.662-.983" transform="translate(-17.573 -13.677)" fill="#001689" fill-rule="evenodd"/>
      <path id="Fill-80" d="M39.737,29.24a.9.9,0,0,1-.16.425,1.121,1.121,0,0,0,1.07.562.538.538,0,0,0-.262-.671,2.351,2.351,0,0,0-.648-.316" transform="translate(-18.231 -13.469)" fill="#001689" fill-rule="evenodd"/>
      <path id="Fill-82" d="M39.766,28.288a1.429,1.429,0,0,0,.688,0l.076-.018.022-.075c.341.279.745.326.884.579a.6.6,0,0,1-.61.263,1.474,1.474,0,0,1-1.01-.56,1.19,1.19,0,0,0-.05-.186" transform="translate(-18.318 -12.986)" fill="#001689" fill-rule="evenodd"/>
      <path id="Fill-84" d="M40.98,27.281a2.294,2.294,0,0,0-.239-.386,2.306,2.306,0,0,1,.9.012,1.115,1.115,0,0,1,1.031.8.894.894,0,0,1-.737.127,1.483,1.483,0,0,1-.952-.55" transform="translate(-18.767 -12.371)" fill="#001689" fill-rule="evenodd"/>
      <path id="Fill-86" d="M41.5,25.888a1.037,1.037,0,0,0,.264-.356l.033-.078a1.46,1.46,0,0,1,1.08-.085.961.961,0,0,1,.548.427,1.593,1.593,0,0,1-.859.348,1.882,1.882,0,0,1-1.067-.256" transform="translate(-19.118 -11.654)" fill="#001689" fill-rule="evenodd"/>
      <path id="Fill-88" d="M41.13,24.362a1.329,1.329,0,0,0-.206-.06,1.247,1.247,0,0,0,.385-.665,1.7,1.7,0,0,0,.718-.026.912.912,0,0,1,.761.1.867.867,0,0,1-.674.615,1.466,1.466,0,0,1-.983.032" transform="translate(-18.851 -10.857)" fill="#001689" fill-rule="evenodd"/>
      <path id="Fill-90" d="M41.317,22.224l-.077-.05a.849.849,0,0,0-.368-.106,10.765,10.765,0,0,1,.961-.7,4.6,4.6,0,0,1,1.222-.5,3.4,3.4,0,0,1-.6,1.023,1.14,1.14,0,0,1-1.139.333" transform="translate(-18.828 -9.612)" fill="#001689" fill-rule="evenodd"/>
      <path id="Fill-92" d="M40.594,20.522a2.128,2.128,0,0,0,.335-.738,7.723,7.723,0,0,1,.31-1.005A1.817,1.817,0,0,1,42.29,17.9a2,2,0,0,1-.151,1.281,3.586,3.586,0,0,1-1.545,1.34" transform="translate(-18.699 -8.246)" fill="#001689" fill-rule="evenodd"/>
      <path id="Fill-94" d="M33.753,28.9a.972.972,0,0,1-.282.2.972.972,0,0,0,.043.86,12.253,12.253,0,0,1,.552,1.217s.132-.02.278-.756a1.506,1.506,0,0,1,.355-.795,1.061,1.061,0,0,1-.267.1l-.1.017-.045-.088a.986.986,0,0,1-.113-.468,1.051,1.051,0,0,1,.007-.125.468.468,0,0,1-.4-.169.067.067,0,0,1-.012-.015l-.022.03" transform="translate(-15.382 -13.298)" fill="#001689" fill-rule="evenodd"/>
      <path id="Fill-96" d="M40.756,31.29a3.874,3.874,0,0,1,1.371,2.693,2.53,2.53,0,0,1-1.3-.972,7.674,7.674,0,0,0-.775-1.261,1.039,1.039,0,0,0,.3,0l.085-.013a4.079,4.079,0,0,0,1.116,1.377s.106-.569-1.122-1.723a1.083,1.083,0,0,0-.077-.161,1.045,1.045,0,0,0,.383.062" transform="translate(-18.448 -14.385)" fill="#001689" fill-rule="evenodd"/>
      <path id="Fill-98" d="M28.137,14.134c0-.085.323-.155.721-.155s.721.07.721.155-.322.154-.721.154-.721-.07-.721-.154" transform="translate(-12.961 -6.439)" fill="#001689" fill-rule="evenodd"/>
      <path id="Fill-100" fill="#001689" fill-rule="evenodd"/>
      <path id="Fill-102" d="M29.493,14.776a.141.141,0,0,1-.141.143.143.143,0,1,1,0-.285.141.141,0,0,1,.141.142" transform="translate(-13.455 -6.741)" fill="#001689" fill-rule="evenodd"/>
      <path id="Fill-104" d="M27.7,12.838A4.925,4.925,0,0,1,27.31,11.7c0-.086.106-.15.2-.179a.258.258,0,0,1,.243.013,3.789,3.789,0,0,1,.284,1.2,1,1,0,0,0-.336.112" transform="translate(-12.58 -5.294)" fill="#001689" fill-rule="evenodd"/>
      <path id="Fill-106" d="M28.6,12.54c.06-.008.123-.011.186-.013a8.146,8.146,0,0,0-.206-1.025c-.063-.2-.142-.349-.275-.386a4.4,4.4,0,0,1,.159.574c.056.293.1.571.135.849" transform="translate(-13.04 -5.121)" fill="#001689" fill-rule="evenodd"/>
      <path id="Fill-108" d="M27.116,15.253a1.373,1.373,0,0,0,.536-.348.643.643,0,0,0-.536.348m.4-.026a1.491,1.491,0,0,1-.782.183,1.138,1.138,0,0,1,.386-.449,1.262,1.262,0,0,1,.755-.187.969.969,0,0,1-.359.453" transform="translate(-12.313 -6.803)" fill="#001689" fill-rule="evenodd"/>
      <path id="Fill-110" d="M24.6,16.4v-.03a5.424,5.424,0,0,1-.79.028.419.419,0,0,0,.174.3c.023-.3.616-.3.616-.3m-1.2-.391a2.652,2.652,0,0,0,.918.15,6.458,6.458,0,0,0,1.575-.167.46.46,0,0,1-.262.273.374.374,0,0,1,.227.1.484.484,0,0,1-.261.219,1.1,1.1,0,0,0,.724.339.55.55,0,0,1-.556.133.853.853,0,0,1-.571-.382.873.873,0,0,1,.026.29.451.451,0,0,1-.3-.176,1.05,1.05,0,0,1,.115.306.536.536,0,0,1-.295-.1.84.84,0,0,1,.047.222,2.129,2.129,0,0,1-.657-.345,1.893,1.893,0,0,0,.008.219s-.687-.07-.74-1.079" transform="translate(-10.777 -7.367)" fill="#001689" fill-rule="evenodd"/>
      <path id="Fill-112" d="M23,16.132a1.679,1.679,0,0,0,.149.586,1.215,1.215,0,0,1-.336-.378c-.067-.172-.083-.292.187-.208" transform="translate(-10.491 -7.419)" fill="#001689" fill-rule="evenodd"/>
      <path id="Fill-114" d="M21.663,17.147a.113.113,0,1,0,0-.226.113.113,0,0,0,0,.226m.662-.133a1.165,1.165,0,0,1,.342.28,1.344,1.344,0,0,0-.4.142.775.775,0,0,0-.957,0,.569.569,0,0,1-.2-.765c.142-.21.462-.173.614-.137.1.306.431.4.594.478" transform="translate(-9.693 -7.604)" fill="#001689" fill-rule="evenodd"/>
      <path id="Fill-116" d="M23.581,18.092a2.619,2.619,0,0,0,.331.37.928.928,0,0,0-.884.608s-.245-.377-.066-.623a.856.856,0,0,1,.62-.355" transform="translate(-10.547 -8.334)" fill="#001689" fill-rule="evenodd"/>
      <path id="Fill-118" d="M25.6,18.282s.228.068.3.088c0,0,0-.133,0-.2a1.766,1.766,0,0,0,.227.046,3.982,3.982,0,0,0,.405.718.536.536,0,0,1-.089.286,2.078,2.078,0,0,0-.36-.545,2.713,2.713,0,0,0-.485-.4" transform="translate(-11.793 -8.371)" fill="#001689" fill-rule="evenodd"/>
      <path id="Fill-120" d="M24.49,18.173a2.436,2.436,0,0,1,.613.263.688.688,0,0,1,.35.656,1.462,1.462,0,0,0-.375-.362,2.228,2.228,0,0,1-.588-.557" transform="translate(-11.281 -8.371)" fill="#001689" fill-rule="evenodd"/>
      <path id="Fill-122" d="M24.3,13.884c.067,0,.2.033.2.141a2.411,2.411,0,0,1-.214.49h0a2.505,2.505,0,0,1-.215-.49c0-.108.132-.141.2-.141H24.3" transform="translate(-11.084 -6.396)" fill="#001689" fill-rule="evenodd"/>
      <path id="Fill-124" d="M23.725,14.838a1.9,1.9,0,0,0-.185-.639.4.4,0,0,0-.286-.089.123.123,0,0,0-.108.161,5.4,5.4,0,0,0,.357.588,1.99,1.99,0,0,1,.223-.021" transform="translate(-10.659 -6.5)" fill="#001689" fill-rule="evenodd"/>
      <path id="Fill-126" d="M24.706,14.838a1.931,1.931,0,0,1,.186-.639.4.4,0,0,1,.286-.089.125.125,0,0,1,.11.161,5.673,5.673,0,0,1-.359.588,1.94,1.94,0,0,0-.222-.021" transform="translate(-11.381 -6.5)" fill="#001689" fill-rule="evenodd"/>
      <path id="Fill-128" d="M24.507,12.677h-.228v-.253h-.184v.253h-.23v.16h.23v.3h.184v-.3h.228Z" transform="translate(-10.993 -5.723)" fill="#001689" fill-rule="evenodd"/>
      <path id="Fill-130" d="M19.519,15.532a.98.98,0,0,1,.01-.147,1.12,1.12,0,0,0,.005-.317c-.164.064-.275.1-.5.471,0,0,.36-.224.486-.007" transform="translate(-8.767 -6.941)" fill="#001689" fill-rule="evenodd"/>
      <path id="Fill-132" d="M20.161,15.261a2.729,2.729,0,0,1,.14-.581,1.171,1.171,0,0,0-.073-.831,1.158,1.158,0,0,1-.147-.63,2.073,2.073,0,0,0-.335.148,1.332,1.332,0,0,0,.2.654.986.986,0,0,1,.047.531,1.008,1.008,0,0,0,.17.709" transform="translate(-9.095 -6.089)" fill="#001689" fill-rule="evenodd"/>
      <path id="Fill-134" d="M20.556,12.942a.282.282,0,0,1,.007-.142,1.627,1.627,0,0,1,.619-.385.381.381,0,0,1,.341.087.375.375,0,0,0-.25.112,1.646,1.646,0,0,1-.479.308.479.479,0,0,1-.238.019" transform="translate(-9.466 -5.715)" fill="#001689" fill-rule="evenodd"/>
      <path id="Fill-136" d="M22,12.63a.64.64,0,0,1,.23.379,1.666,1.666,0,0,1-.214.54.76.76,0,0,0-.168.45.468.468,0,0,0,.145.264s-.412-.1-.463-.354a.732.732,0,0,1,.12-.515c.061-.12.25-.4.3-.512A.442.442,0,0,0,22,12.63" transform="translate(-9.911 -5.818)" fill="#001689" fill-rule="evenodd"/>
      <path id="Fill-138" d="M26.861,17.971a2.968,2.968,0,0,0,.359.784,1.37,1.37,0,0,1,.191.626,1.2,1.2,0,0,0,.092-.7,1.151,1.151,0,0,0-.642-.706" transform="translate(-12.373 -8.278)" fill="#001689" fill-rule="evenodd"/>
      <path id="Fill-140" d="M27.719,18.149a1.009,1.009,0,0,1,.414.093,1.07,1.07,0,0,1,.393.654A.942.942,0,0,1,28.1,18.7a1.591,1.591,0,0,1-.382-.556" transform="translate(-12.769 -8.36)" fill="#001689" fill-rule="evenodd"/>
      <path id="Fill-142" d="M24.782,19.1a1.887,1.887,0,0,0-.27.059,1.254,1.254,0,0,1,.36.171.692.692,0,0,1,.231.437,2.875,2.875,0,0,0,.293.742l.022,0a1.874,1.874,0,0,1,.134-.718,1.166,1.166,0,0,1-.279-.245,1.515,1.515,0,0,0-.491-.442" transform="translate(-11.291 -8.799)" fill="#001689" fill-rule="evenodd"/>
      <path id="Fill-144" d="M27.065,20.331a1.1,1.1,0,0,1,.169.749c-.087.3-.282.429-.4.684a3.882,3.882,0,0,1-.074-.814.742.742,0,0,1,.308-.62" transform="translate(-12.324 -9.365)" fill="#001689" fill-rule="evenodd"/>
      <path id="Fill-146" d="M28.021,20.353a5.694,5.694,0,0,1,.331.762.539.539,0,0,1-.093.484,3.624,3.624,0,0,0-.405.538,1.276,1.276,0,0,1-.193-.351,1.637,1.637,0,0,1,.05-.528c.036-.122.185-.51.31-.905" transform="translate(-12.739 -9.375)" fill="#001689" fill-rule="evenodd"/>
      <path id="Fill-148" d="M28.171,23.592a4.1,4.1,0,0,0-.433.579.565.565,0,0,0-.019.487,1.743,1.743,0,0,0,.539.5,1.27,1.27,0,0,1-.2-.633c.013-.183.154-.345.181-.457a.793.793,0,0,0-.071-.472" transform="translate(-12.746 -10.868)" fill="#001689" fill-rule="evenodd"/>
      <path id="Fill-150" d="M26.933,23.187a.911.911,0,0,1,.15.407,1.165,1.165,0,0,1-.1.535,6.96,6.96,0,0,1-.367.792,2.905,2.905,0,0,1-.239-.42,4.058,4.058,0,0,0,.344-.567,3.9,3.9,0,0,0,.215-.749" transform="translate(-12.149 -10.681)" fill="#001689" fill-rule="evenodd"/>
      <path id="Fill-152" d="M25.567,22.95a3.159,3.159,0,0,1-.56,1.358c-.309.392-.559.528-.725.528a.676.676,0,0,1-.585-.45.771.771,0,0,1,.1-.745s.149.468.47.485c.363.021.829-.389,1.3-1.176" transform="translate(-10.894 -10.572)" fill="#001689" fill-rule="evenodd"/>
      <path id="Fill-154" d="M25.687,22.346a1.175,1.175,0,0,1,0,.554.767.767,0,0,1-.308.465.454.454,0,0,1-.656-.226,1.017,1.017,0,0,0,.965-.794" transform="translate(-11.388 -10.294)" fill="#001689" fill-rule="evenodd"/>
      <path id="Fill-156" d="M28.252,28.171c.09.235.414.531.413.714a2.328,2.328,0,0,1-.266.94,1.385,1.385,0,0,1-.454-.66,1.256,1.256,0,0,1,.307-.994" transform="translate(-12.868 -12.977)" fill="#001689" fill-rule="evenodd"/>
      <path id="Fill-158" d="M27.317,27.447a1.491,1.491,0,0,1,.351-.588.857.857,0,0,0-.465-1,2.205,2.205,0,0,0-.35.719c-.074.351.293.56.465.874" transform="translate(-12.365 -11.91)" fill="#001689" fill-rule="evenodd"/>
      <path id="Fill-160" d="M25.812,25.9a1.531,1.531,0,0,1-.381.372,2.23,2.23,0,0,0-.018.462,3.579,3.579,0,0,0,.285.758,2,2,0,0,0,.329-.616c.033-.228.029-.416.04-.525,0,0-.165-.269-.255-.451" transform="translate(-11.703 -11.928)" fill="#001689" fill-rule="evenodd"/>
      <path id="Fill-162" d="M24.409,27.563a2.237,2.237,0,0,1-.356-.941.769.769,0,0,0,.611.047,2.372,2.372,0,0,1-.017.6.6.6,0,0,1-.238.3" transform="translate(-11.08 -12.263)" fill="#001689" fill-rule="evenodd"/>
      <path id="Fill-164" d="M24.857,28.341c.054-.048.187-.171.242-.235,0,0,.22.407.258.526a.294.294,0,0,1-.232-.06,1.808,1.808,0,0,1-.268-.231" transform="translate(-11.45 -12.947)" fill="#001689" fill-rule="evenodd"/>
      <path id="Fill-166" d="M26.373,28.1a4.058,4.058,0,0,1-.445.663,1.579,1.579,0,0,0,.16.441,1.959,1.959,0,0,0,.414.533s.222-.387.287-.556a.73.73,0,0,0,.034-.458c-.076-.169-.334-.412-.449-.623" transform="translate(-11.943 -12.944)" fill="#001689" fill-rule="evenodd"/>
      <path id="Fill-168" d="M27.409,30.521a2.915,2.915,0,0,1,.354.632.736.736,0,0,1-.041.412c-.045.11-.187.331-.282.5a1.836,1.836,0,0,1-.4-.531.783.783,0,0,1,.044-.55c.078-.148.248-.308.323-.462" transform="translate(-12.443 -14.059)" fill="#001689" fill-rule="evenodd"/>
      <path id="Fill-170" d="M25.824,30.437c.084.186.286.371.332.533a.693.693,0,0,1-.021.538c-.082.2-.181.31-.214.43a2.773,2.773,0,0,1-.31-.489.966.966,0,0,1,0-.529c.053-.152.15-.346.216-.484" transform="translate(-11.78 -14.021)" fill="#001689" fill-rule="evenodd"/>
      <path id="Fill-172" d="M28.075,32.874s-.456.554-.446.847c.014.365.255.61.289.834a2.969,2.969,0,0,0,.33-.455,1.047,1.047,0,0,0,.154-.612.9.9,0,0,0-.327-.615" transform="translate(-12.727 -15.143)" fill="#001689" fill-rule="evenodd"/>
      <path id="Fill-174" d="M26.579,32.772a1.121,1.121,0,0,1,.218.682,3.113,3.113,0,0,1-.358.649,4.144,4.144,0,0,1-.221-.543c-.04-.169,0-.448.361-.789" transform="translate(-12.071 -15.096)" fill="#001689" fill-rule="evenodd"/>
      <path id="Fill-176" fill="#001689" fill-rule="evenodd"/>
      <path id="Fill-178" d="M29.242,12.191c.031-.208.271-.656.271-.851a.276.276,0,1,0-.552,0c0,.195.242.642.272.851h.009" transform="translate(-13.341 -5.096)" fill="#001689" fill-rule="evenodd"/>
      <path id="Fill-180" d="M30.62,12.838a4.816,4.816,0,0,0,.394-1.142c0-.086-.105-.15-.2-.179a.262.262,0,0,0-.245.013,3.788,3.788,0,0,0-.284,1.2.985.985,0,0,1,.336.112" transform="translate(-13.95 -5.294)" fill="#001689" fill-rule="evenodd"/>
      <path id="Fill-182" d="M29.936,12.54c-.061-.008-.123-.011-.185-.013a8.079,8.079,0,0,1,.206-1.025c.061-.2.141-.349.274-.386a4.289,4.289,0,0,0-.16.574c-.056.293-.1.571-.135.849" transform="translate(-13.705 -5.121)" fill="#001689" fill-rule="evenodd"/>
      <path id="Fill-184" d="M30.323,14.906a1.359,1.359,0,0,0,.535.348.645.645,0,0,0-.535-.348m-.221-.132a1.265,1.265,0,0,1,.757.187,1.12,1.12,0,0,1,.385.45,1.492,1.492,0,0,1-.782-.183.985.985,0,0,1-.359-.453" transform="translate(-13.866 -6.803)" fill="#001689" fill-rule="evenodd"/>
      <path id="Fill-186" d="M32.47,16.7a.425.425,0,0,0,.175-.3,5.45,5.45,0,0,1-.793-.028v.03s.6,0,.618.3m-.152.389a1.8,1.8,0,0,0,.007-.219,2.129,2.129,0,0,1-.656.345.865.865,0,0,1,.044-.222.526.526,0,0,1-.293.1,1.032,1.032,0,0,1,.116-.306.455.455,0,0,1-.3.176.885.885,0,0,1,.027-.29.852.852,0,0,1-.571.382.547.547,0,0,1-.555-.133,1.1,1.1,0,0,0,.723-.339.482.482,0,0,1-.26-.219.377.377,0,0,1,.227-.1.464.464,0,0,1-.264-.273,6.485,6.485,0,0,0,1.578.167,2.633,2.633,0,0,0,.915-.15c-.052,1.009-.737,1.079-.737,1.079" transform="translate(-13.882 -7.367)" fill="#001689" fill-rule="evenodd"/>
      <path id="Fill-188" d="M35.623,16.132a1.687,1.687,0,0,1-.148.586,1.2,1.2,0,0,0,.335-.378c.066-.172.083-.292-.187-.208" transform="translate(-16.341 -7.419)" fill="#001689" fill-rule="evenodd"/>
      <path id="Fill-190" d="M36.007,17.034a.113.113,0,1,0-.113.113.114.114,0,0,0,.113-.113m-.18-.5c.152-.037.472-.074.614.137a.567.567,0,0,1-.2.765.775.775,0,0,0-.957,0,1.365,1.365,0,0,0-.4-.142,1.171,1.171,0,0,1,.344-.28c.161-.074.5-.172.593-.478" transform="translate(-16.072 -7.604)" fill="#001689" fill-rule="evenodd"/>
      <path id="Fill-192" d="M34.5,18.092a2.584,2.584,0,0,1-.33.37.927.927,0,0,1,.884.608s.245-.377.066-.623a.852.852,0,0,0-.62-.355" transform="translate(-15.74 -8.334)" fill="#001689" fill-rule="evenodd"/>
      <path id="Fill-194" d="M32.548,18.282s-.228.068-.3.088a1.829,1.829,0,0,1,0-.2,1.784,1.784,0,0,1-.228.046,4.057,4.057,0,0,1-.405.718.532.532,0,0,0,.088.286,2.086,2.086,0,0,1,.359-.545,2.744,2.744,0,0,1,.486-.4" transform="translate(-14.562 -8.371)" fill="#001689" fill-rule="evenodd"/>
      <path id="Fill-196" d="M33.632,18.173a2.533,2.533,0,0,0-.614.263.694.694,0,0,0-.348.656,1.488,1.488,0,0,1,.375-.362,2.176,2.176,0,0,0,.587-.557" transform="translate(-15.048 -8.371)" fill="#001689" fill-rule="evenodd"/>
      <path id="Fill-198" d="M34.278,13.884c-.067,0-.2.033-.2.141a2.483,2.483,0,0,0,.214.49h0a2.473,2.473,0,0,0,.215-.49c0-.108-.131-.141-.2-.141h-.037" transform="translate(-15.699 -6.396)" fill="#001689" fill-rule="evenodd"/>
      <path id="Fill-200" d="M34.724,14.838a1.857,1.857,0,0,1,.185-.639.4.4,0,0,1,.287-.089.121.121,0,0,1,.107.161,5.2,5.2,0,0,1-.358.588,1.921,1.921,0,0,0-.221-.021" transform="translate(-15.995 -6.5)" fill="#001689" fill-rule="evenodd"/>
      <path id="Fill-202" d="M33.741,14.838a1.911,1.911,0,0,0-.186-.639.4.4,0,0,0-.287-.089.123.123,0,0,0-.107.161,5.175,5.175,0,0,0,.358.588,1.942,1.942,0,0,1,.223-.021" transform="translate(-15.272 -6.5)" fill="#001689" fill-rule="evenodd"/>
      <path id="Fill-204" d="M33.9,12.677h.227v-.253h.183v.253h.229v.16h-.229v.3h-.183v-.3H33.9Z" transform="translate(-15.614 -5.723)" fill="#001689" fill-rule="evenodd"/>
      <path id="Fill-206" d="M28.88,9.893h.227V9.639h.186v.254h.228v.159h-.228v.3h-.186v-.3H28.88Z" transform="translate(-13.303 -4.44)" fill="#001689" fill-rule="evenodd"/>
      <path id="Fill-208" d="M38.995,15.532c0-.05-.005-.1-.011-.147a1.176,1.176,0,0,1-.006-.317c.165.064.275.1.5.471,0,0-.36-.224-.485-.007" transform="translate(-17.951 -6.941)" fill="#001689" fill-rule="evenodd"/>
      <path id="Fill-210" d="M38.272,15.261a2.779,2.779,0,0,0-.138-.581,1.167,1.167,0,0,1,.07-.831,1.137,1.137,0,0,0,.147-.63,2.03,2.03,0,0,1,.335.148,1.326,1.326,0,0,1-.2.654.968.968,0,0,0-.049.531,1.015,1.015,0,0,1-.17.709" transform="translate(-17.544 -6.089)" fill="#001689" fill-rule="evenodd"/>
      <path id="Fill-212" d="M37.561,12.942a.314.314,0,0,0-.009-.142,1.612,1.612,0,0,0-.617-.385.383.383,0,0,0-.342.087.376.376,0,0,1,.251.112,1.607,1.607,0,0,0,.479.308.483.483,0,0,0,.239.019" transform="translate(-16.856 -5.715)" fill="#001689" fill-rule="evenodd"/>
      <path id="Fill-214" d="M36.345,12.63a.639.639,0,0,0-.23.379,1.654,1.654,0,0,0,.214.54A.747.747,0,0,1,36.5,14a.466.466,0,0,1-.143.264s.411-.1.46-.354a.72.72,0,0,0-.118-.515c-.061-.12-.252-.4-.3-.512a.449.449,0,0,1-.052-.251" transform="translate(-16.636 -5.818)" fill="#001689" fill-rule="evenodd"/>
      <path id="Fill-216" d="M31.518,17.971a3.05,3.05,0,0,1-.36.784,1.317,1.317,0,0,0-.189.626,1.192,1.192,0,0,1-.092-.7,1.136,1.136,0,0,1,.641-.706" transform="translate(-14.211 -8.278)" fill="#001689" fill-rule="evenodd"/>
      <path id="Fill-218" d="M30.538,18.149a1,1,0,0,0-.412.093,1.061,1.061,0,0,0-.394.654.949.949,0,0,0,.427-.191,1.584,1.584,0,0,0,.38-.556" transform="translate(-13.695 -8.36)" fill="#001689" fill-rule="evenodd"/>
      <path id="Fill-220" d="M33.279,19.1a1.867,1.867,0,0,1,.269.059,1.236,1.236,0,0,0-.359.171.693.693,0,0,0-.233.437,2.79,2.79,0,0,1-.293.742l-.02,0a1.9,1.9,0,0,0-.133-.718,1.146,1.146,0,0,0,.277-.245,1.511,1.511,0,0,1,.492-.442" transform="translate(-14.975 -8.799)" fill="#001689" fill-rule="evenodd"/>
      <path id="Fill-222" d="M31.454,20.331a1.112,1.112,0,0,0-.17.749c.088.3.284.429.4.684a3.76,3.76,0,0,0,.074-.814.739.739,0,0,0-.307-.62" transform="translate(-14.401 -9.365)" fill="#001689" fill-rule="evenodd"/>
      <path id="Fill-224" d="M29.135,20.818c.013-.176.417-.6.4-.828s-.324-.391-.4-.425h0c-.074.034-.377.195-.4.425s.384.652.4.828h.008" transform="translate(-13.234 -9.013)" fill="#001689" fill-rule="evenodd"/>
      <path id="Fill-226" d="M30.314,20.353a5.7,5.7,0,0,0-.331.762.539.539,0,0,0,.092.484,3.64,3.64,0,0,1,.406.538,1.315,1.315,0,0,0,.194-.351,1.621,1.621,0,0,0-.051-.528c-.037-.122-.186-.51-.31-.905" transform="translate(-13.802 -9.375)" fill="#001689" fill-rule="evenodd"/>
      <path id="Fill-228" d="M29.214,23.32a1.119,1.119,0,0,0,.279-.375.373.373,0,0,0-.041-.35.96.96,0,0,1-.238-.4h-.007a.976.976,0,0,1-.238.4.364.364,0,0,0-.039.35,1.076,1.076,0,0,0,.278.375h.005" transform="translate(-13.314 -10.225)" fill="#001689" fill-rule="evenodd"/>
      <path id="Fill-230" d="M30.273,23.592a4.057,4.057,0,0,1,.433.579.563.563,0,0,1,.018.487,1.712,1.712,0,0,1-.54.5,1.274,1.274,0,0,0,.2-.633c-.015-.183-.155-.345-.182-.457a.815.815,0,0,1,.071-.472" transform="translate(-13.904 -10.868)" fill="#001689" fill-rule="evenodd"/>
      <path id="Fill-232" d="M31.406,23.187a.922.922,0,0,0-.151.407,1.192,1.192,0,0,0,.105.535,7.528,7.528,0,0,0,.365.792,2.859,2.859,0,0,0,.239-.42,4.087,4.087,0,0,1-.343-.567,3.911,3.911,0,0,1-.216-.749" transform="translate(-14.396 -10.681)" fill="#001689" fill-rule="evenodd"/>
      <path id="Fill-234" d="M31.745,22.95a3.152,3.152,0,0,0,.559,1.358c.308.392.559.528.725.528a.679.679,0,0,0,.587-.45.778.778,0,0,0-.1-.745s-.15.468-.471.485c-.361.021-.828-.389-1.295-1.176" transform="translate(-14.623 -10.572)" fill="#001689" fill-rule="evenodd"/>
      <path id="Fill-236" d="M32.408,22.346a1.182,1.182,0,0,0,0,.554.772.772,0,0,0,.31.465.453.453,0,0,0,.655-.226,1.018,1.018,0,0,1-.965-.794" transform="translate(-14.913 -10.294)" fill="#001689" fill-rule="evenodd"/>
      <path id="Fill-238" d="M29.121,25.6a.574.574,0,0,0,.282-.245.8.8,0,0,0,.119-.542,1.617,1.617,0,0,0-.239-.428.785.785,0,0,1-.159.133h0a.808.808,0,0,1-.162-.133,1.62,1.62,0,0,0-.239.428.793.793,0,0,0,.119.542.568.568,0,0,0,.282.245" transform="translate(-13.224 -11.232)" fill="#001689" fill-rule="evenodd"/>
      <path id="Fill-240" d="M29.1,28.034c.045-.207.475-.606.435-.824-.059-.325-.267-.256-.431-.393h0c-.166.137-.376.068-.436.393-.038.218.389.616.434.824h0" transform="translate(-13.202 -12.353)" fill="#001689" fill-rule="evenodd"/>
      <path id="Fill-242" d="M30.073,28.171c-.091.235-.416.531-.413.714a2.325,2.325,0,0,0,.266.94,1.377,1.377,0,0,0,.453-.66,1.253,1.253,0,0,0-.306-.994" transform="translate(-13.663 -12.977)" fill="#001689" fill-rule="evenodd"/>
      <path id="Fill-244" d="M30.9,27.447a1.471,1.471,0,0,0-.35-.588.857.857,0,0,1,.465-1,2.229,2.229,0,0,1,.352.719c.073.351-.295.56-.467.874" transform="translate(-14.057 -11.91)" fill="#001689" fill-rule="evenodd"/>
      <path id="Fill-246" d="M32.575,25.9a1.482,1.482,0,0,0,.38.372,2.306,2.306,0,0,1,.018.462,3.663,3.663,0,0,1-.284.758,2.022,2.022,0,0,1-.331-.616c-.035-.228-.027-.416-.038-.525,0,0,.163-.269.255-.451" transform="translate(-14.888 -11.928)" fill="#001689" fill-rule="evenodd"/>
      <path id="Fill-248" d="M34.005,27.563a2.222,2.222,0,0,0,.358-.941.772.772,0,0,1-.612.047,2.292,2.292,0,0,0,.019.6.585.585,0,0,0,.235.3" transform="translate(-15.542 -12.263)" fill="#001689" fill-rule="evenodd"/>
      <path id="Fill-250" d="M33.664,28.341a2.856,2.856,0,0,1-.24-.235,5.549,5.549,0,0,0-.259.526.29.29,0,0,0,.231-.06,1.823,1.823,0,0,0,.268-.231" transform="translate(-15.278 -12.947)" fill="#001689" fill-rule="evenodd"/>
      <path id="Fill-252" d="M31.791,28.1a4.127,4.127,0,0,0,.445.663,1.65,1.65,0,0,1-.16.441,1.927,1.927,0,0,1-.414.533s-.22-.387-.286-.556a.7.7,0,0,1-.032-.458c.073-.169.332-.412.447-.623" transform="translate(-14.427 -12.944)" fill="#001689" fill-rule="evenodd"/>
      <path id="Fill-254" d="M29.164,32.3c.034-.137.24-.3.325-.537a.562.562,0,0,0-.005-.416c-.065-.131-.3-.452-.323-.544-.029.092-.257.413-.323.544a.562.562,0,0,0-.007.416c.087.238.293.4.327.537h.007" transform="translate(-13.264 -14.188)" fill="#001689" fill-rule="evenodd"/>
      <path id="Fill-256" d="M30.886,30.521a2.99,2.99,0,0,0-.353.632.759.759,0,0,0,.04.412c.045.11.19.331.283.5a1.848,1.848,0,0,0,.4-.531.777.777,0,0,0-.045-.55c-.078-.148-.247-.308-.322-.462" transform="translate(-14.059 -14.059)" fill="#001689" fill-rule="evenodd"/>
      <path id="Fill-258" d="M32.59,30.437c-.084.186-.287.371-.333.533a.689.689,0,0,0,.02.538c.083.2.18.31.215.43a2.684,2.684,0,0,0,.307-.489.958.958,0,0,0,.006-.529c-.055-.152-.151-.346-.215-.484" transform="translate(-14.838 -14.021)" fill="#001689" fill-rule="evenodd"/>
      <path id="Fill-260" d="M29.149,36.672a4.786,4.786,0,0,0,.379-1.244,1.708,1.708,0,0,0-.376-.876h-.008a1.725,1.725,0,0,0-.376.876,4.774,4.774,0,0,0,.38,1.244" transform="translate(-13.252 -15.916)" fill="#001689" fill-rule="evenodd"/>
      <path id="Fill-262" d="M30.212,32.874s.455.554.445.847c-.013.365-.257.61-.289.834a2.882,2.882,0,0,1-.33-.455,1.012,1.012,0,0,1-.152-.612.876.876,0,0,1,.326-.615" transform="translate(-13.764 -15.143)" fill="#001689" fill-rule="evenodd"/>
      <path id="Fill-264" d="M31.855,32.772a1.116,1.116,0,0,0-.218.682,3.286,3.286,0,0,0,.357.649,4.174,4.174,0,0,0,.221-.543c.041-.169,0-.448-.36-.789" transform="translate(-14.569 -15.096)" fill="#001689" fill-rule="evenodd"/>
      <path id="Fill-266" d="M29.13,38.7a3.782,3.782,0,0,1,.313-.912.945.945,0,0,0-.158-.766A7.024,7.024,0,0,1,28.83,38.2a.107.107,0,0,0-.01.023.1.1,0,0,0-.011-.023,6.981,6.981,0,0,1-.454-1.182.947.947,0,0,0-.159.766,3.711,3.711,0,0,1,.313.912c.027.432-.455.6-.455.6.162.059.348.086.642-.195a.611.611,0,0,0,.125-.166.622.622,0,0,0,.125.166c.293.281.479.254.642.195,0,0-.482-.164-.456-.6" transform="translate(-12.922 -17.053)" fill="#001689" fill-rule="evenodd"/>
      <path id="Fill-268" d="M26.88,34.82c.05.161.2.459.219.55.036.171-.013.378-.322.6a.93.93,0,0,1-.28-.326.342.342,0,0,1,.046-.386,3.523,3.523,0,0,0,.337-.435" transform="translate(-12.188 -16.04)" fill="#001689" fill-rule="evenodd"/>
      <path id="Fill-270" d="M27.317,36a2.42,2.42,0,0,1-.2.817c-.194.34-.478.591-.727.591-.23,0-.279-.139-.393-.194a.509.509,0,0,1,.317-.372,2.089,2.089,0,0,0,1-.842" transform="translate(-11.975 -16.585)" fill="#001689" fill-rule="evenodd"/>
      <path id="Fill-272" d="M25.949,37.032a.85.85,0,0,1-.163-.144,2.415,2.415,0,0,0-.447.228,3,3,0,0,0-.507.492.9.9,0,0,0,.495-.01.748.748,0,0,1,.285-.421c.048-.028.2-.073.338-.144" transform="translate(-11.439 -16.992)" fill="#001689" fill-rule="evenodd"/>
      <path id="Fill-274" d="M25.476,36.333a.607.607,0,0,1-.124-.421s-.426.273-.551.374a3.593,3.593,0,0,0-.455.473s.323-.072.57-.155a2.733,2.733,0,0,0,.559-.27" transform="translate(-11.215 -16.542)" fill="#001689" fill-rule="evenodd"/>
      <path id="Fill-276" d="M23.789,37.55c-.228.084-.745.167-.96.231a1.216,1.216,0,0,0-.578.4s.316.09.486.143a3.178,3.178,0,0,1,.563-.3c.193-.075.286-.276.489-.478" transform="translate(-10.25 -17.297)" fill="#001689" fill-rule="evenodd"/>
      <path id="Fill-278" d="M23.131,39.727a.211.211,0,0,0,.064-.247c-.033-.1-.22-.2-.331-.252A8.379,8.379,0,0,0,22,38.951a.885.885,0,0,0-.127.2c-.02.04.006.081.078.094.143.025.486-.04.571.015s.056.138.056.218a.462.462,0,0,1,.256-.076c.138.029.221.1.3.323" transform="translate(-10.072 -17.942)" fill="#001689" fill-rule="evenodd"/>
      <path id="Fill-280" d="M23.367,38.779a1.925,1.925,0,0,1,.432.2.279.279,0,0,0,.129-.113c.041-.077.216-.338.378-.373a1.38,1.38,0,0,1-.217-.038,2.61,2.61,0,0,0-.284.092,2.659,2.659,0,0,0-.439.235" transform="translate(-10.764 -17.713)" fill="#001689" fill-rule="evenodd"/>
      <path id="Fill-282" d="M25.209,38.446a.459.459,0,0,1-.2.046s-.45.314-.5.629a.385.385,0,0,0,.163.43c.068.035.384.165.588-.26,0,0-.349.115-.444-.053s.06-.416.155-.486a.736.736,0,0,1,.483-.133,1.162,1.162,0,0,0-.238-.172" transform="translate(-11.283 -17.71)" fill="#001689" fill-rule="evenodd"/>
      <path id="Fill-284" d="M18.827,42.644a3.548,3.548,0,0,1,.221-.7c.2-.435.7-1.59,1.745-1.795.1-.018-.113-.263-.2-.25a1.21,1.21,0,0,0-.362.188s0-.247,0-.292-.042-.06-.082-.059-.292,0-.372.09a7.534,7.534,0,0,0-.865,1.575c-.227.553-.382.725-.622.639s-.383-.362-.8-.278a.828.828,0,0,0-.432.272c.035.068.079.15.275.15a1.609,1.609,0,0,1,.775.229,1.452,1.452,0,0,0,.727.227" transform="translate(-7.854 -18.306)" fill="#001689" fill-rule="evenodd"/>
      <path id="Fill-286" d="M26.848,38.479a1.535,1.535,0,0,0,.205.521s-.318,1.473-1.463,1.587a.784.784,0,0,1,.362-.538c.34-.232.847-.594.811-1.141,0,0-.09.018-.254.224s-.52.8-1.075.8a.881.881,0,0,1,.328-.438,2.15,2.15,0,0,0,.7-.612.948.948,0,0,1,.389-.406" transform="translate(-11.716 -17.725)" fill="#001689" fill-rule="evenodd"/>
      <path id="Fill-288" d="M27.054,48.171l.7.983.529-.947-.187-.338c-.138.248-.286.517-.37.664-.066-.091-.242-.339-.473-.664l-.2.3" transform="translate(-12.462 -22.051)" fill="#001689" fill-rule="evenodd"/>
      <path id="Fill-290" d="M24.867,44.512c-.681-.958-1.521-2.144-1.607-2.265l.264-.191-.831-.321.014.913.281-.2,1.68,2.37.2-.3" transform="translate(-10.453 -19.225)" fill="#001689" fill-rule="evenodd"/>
      <path id="Fill-292" d="M16.015,36.817c.2-.225.552-.03.9.3s.574.659.37.884c-.191.209-.553.03-.907-.294s-.574-.66-.366-.885" transform="translate(-7.34 -16.915)" fill="#001689" fill-rule="evenodd"/>
      <path id="Fill-294" d="M16.107,41.091a.378.378,0,0,1-.033-.028.919.919,0,0,1-.293-.7.959.959,0,1,1,1.918,0c0,.072-.014.19-.014.19.044-.082.2-.451.233-.52a1.22,1.22,0,0,0-2.277-.208,2.139,2.139,0,0,1,.487-1.088,1.251,1.251,0,0,1,.551-.256,1.152,1.152,0,0,1-.864-.416,1.265,1.265,0,0,1-.492-.765,1.6,1.6,0,0,1-.076.72,3.229,3.229,0,0,0-.318,1.658,2.893,2.893,0,0,0,.8,1.425.666.666,0,0,1,.147.341s.683,0,.845.016c0,0,.163-.016.16-.117s-.092-.128-.174-.128a1.115,1.115,0,0,1-.6-.129" transform="translate(-6.865 -17.184)" fill="#001689" fill-rule="evenodd"/>
      <path id="Fill-296" d="M22.345,44.759a6.859,6.859,0,0,1-1.294.309,3.943,3.943,0,0,1-.79.043.239.239,0,0,1-.02.139.229.229,0,0,1,.051.127,4.157,4.157,0,0,0,.8-.048,6.8,6.8,0,0,0,1.414-.346l-.16-.224" transform="translate(-9.324 -20.618)" fill="#001689" fill-rule="evenodd"/>
      <path id="Fill-298" d="M25.345,43.192a4.639,4.639,0,0,0,1.666-1.605l.092-.155a.561.561,0,0,1-.319.018.65.65,0,0,0-.044.07,4.357,4.357,0,0,1-1.55,1.452l.155.22" transform="translate(-11.604 -19.085)" fill="#001689" fill-rule="evenodd"/>
      <path id="Fill-300" d="M17.6,45.157a2.384,2.384,0,0,0-.49.017c-.168.027-.359.061-.38.155s.042.183.127.317c.052.083.178.035.247.009a3.008,3.008,0,0,0,.526-.308c.064-.07.091-.17-.03-.19" transform="translate(-7.707 -20.798)" fill="#001689" fill-rule="evenodd"/>
      <path id="Fill-302" d="M18.427,45.611a.3.3,0,0,0-.252-.026c-.107.04-.5.27-.521.38a.142.142,0,0,0,.087.185.783.783,0,0,0,.187.053.3.3,0,0,0,.242-.111c.049-.062.232-.283.257-.334s.04-.121,0-.148" transform="translate(-8.129 -20.99)" fill="#001689" fill-rule="evenodd"/>
      <path id="Fill-304" d="M18.979,45.932c-.057.064-.214.255-.233.287a.054.054,0,0,0,.059.075,1.176,1.176,0,0,0,.471-.138c.153-.106.256-.311.15-.384s-.27-.039-.447.159" transform="translate(-8.633 -21.068)" fill="#001689" fill-rule="evenodd"/>
      <path id="Fill-306" d="M19.068,44.985c-.051-.012-.254-.062-.3,0-.056.084-.017.173.141.25s.452.135.512.055-.024-.221-.356-.309" transform="translate(-8.636 -20.708)" fill="#001689" fill-rule="evenodd"/>
      <path id="Fill-308" d="M31.511,34.82c-.051.161-.2.459-.22.55-.035.171.013.378.322.6a.932.932,0,0,0,.279-.326.338.338,0,0,0-.045-.386,3.647,3.647,0,0,1-.336-.435" transform="translate(-14.409 -16.04)" fill="#001689" fill-rule="evenodd"/>
      <path id="Fill-310" d="M30.5,36a2.378,2.378,0,0,0,.2.817c.193.34.477.591.726.591.231,0,.281-.139.393-.194a.51.51,0,0,0-.318-.372,2.1,2.1,0,0,1-1-.842" transform="translate(-14.049 -16.585)" fill="#001689" fill-rule="evenodd"/>
      <path id="Fill-312" d="M32.043,37.032a.859.859,0,0,0,.162-.144,2.4,2.4,0,0,1,.449.228,3.175,3.175,0,0,1,.507.492.9.9,0,0,1-.5-.01.751.751,0,0,0-.286-.421c-.046-.028-.2-.073-.336-.144" transform="translate(-14.76 -16.992)" fill="#001689" fill-rule="evenodd"/>
      <path id="Fill-314" d="M32.507,36.333a.606.606,0,0,0,.122-.421s.425.273.553.374a3.633,3.633,0,0,1,.454.473s-.323-.072-.57-.155a2.7,2.7,0,0,1-.558-.27" transform="translate(-14.974 -16.542)" fill="#001689" fill-rule="evenodd"/>
      <path id="Fill-316" d="M33.844,37.55c.23.084.743.167.96.231a1.217,1.217,0,0,1,.579.4s-.318.09-.485.143a3.156,3.156,0,0,0-.565-.3c-.191-.075-.285-.276-.488-.478" transform="translate(-15.59 -17.297)" fill="#001689" fill-rule="evenodd"/>
      <path id="Fill-318" d="M34.663,39.727a.215.215,0,0,1-.065-.247c.034-.1.222-.2.334-.252a8.522,8.522,0,0,1,.865-.277.932.932,0,0,1,.128.2c.019.04-.008.081-.079.094-.144.025-.487-.04-.572.015s-.058.138-.058.218a.457.457,0,0,0-.256-.076c-.135.029-.22.1-.3.323" transform="translate(-15.93 -17.942)" fill="#001689" fill-rule="evenodd"/>
      <path id="Fill-320" d="M34.777,38.779a1.906,1.906,0,0,0-.432.2.276.276,0,0,1-.129-.113c-.041-.077-.217-.338-.378-.373a1.343,1.343,0,0,0,.215-.038,2.7,2.7,0,0,1,.287.092,2.58,2.58,0,0,1,.437.235" transform="translate(-15.587 -17.713)" fill="#001689" fill-rule="evenodd"/>
      <path id="Fill-322" d="M32.921,38.446a.464.464,0,0,0,.2.046s.452.314.5.629a.379.379,0,0,1-.163.43c-.069.035-.383.165-.587-.26,0,0,.348.115.444-.053s-.059-.416-.154-.486a.739.739,0,0,0-.485-.133,1.154,1.154,0,0,1,.238-.172" transform="translate(-15.056 -17.71)" fill="#001689" fill-rule="evenodd"/>
      <path id="Fill-324" d="M36.9,42.644a3.5,3.5,0,0,0-.22-.7c-.2-.435-.7-1.59-1.746-1.795-.1-.018.112-.263.208-.25a1.235,1.235,0,0,1,.361.188s0-.247,0-.292.041-.06.08-.059.293,0,.372.09a7.474,7.474,0,0,1,.867,1.575c.228.553.382.725.621.639s.385-.362.8-.278a.839.839,0,0,1,.433.272.256.256,0,0,1-.276.15,1.6,1.6,0,0,0-.776.229,1.454,1.454,0,0,1-.728.227" transform="translate(-16.08 -18.306)" fill="#001689" fill-rule="evenodd"/>
      <path id="Fill-326" d="M30.714,38.479a1.506,1.506,0,0,1-.2.521s.317,1.473,1.465,1.587a.792.792,0,0,0-.363-.538c-.341-.232-.848-.594-.812-1.141,0,0,.09.018.253.224s.523.8,1.075.8A.871.871,0,0,0,31.8,39.5a2.159,2.159,0,0,1-.7-.612.921.921,0,0,0-.39-.406" transform="translate(-14.055 -17.725)" fill="#001689" fill-rule="evenodd"/>
      <path id="Fill-328" d="M28.116,41.128a4.363,4.363,0,0,0,.69.988c.191.176.654.642.9.875a3.016,3.016,0,0,1-1.1-.538,1.246,1.246,0,0,1-.487.165h-.01a1.248,1.248,0,0,1-.488-.165,3.006,3.006,0,0,1-1.1.538c.246-.233.709-.7.9-.875a4.279,4.279,0,0,0,.692-.988h0" transform="translate(-12.217 -18.945)" fill="#001689" fill-rule="evenodd"/>
      <path id="Fill-330" d="M29.144,44.075a1,1,0,0,0,.387-.1,1.741,1.741,0,0,1-.39.563h0a1.706,1.706,0,0,1-.389-.563.98.98,0,0,0,.385.1h.009" transform="translate(-13.243 -20.258)" fill="#001689" fill-rule="evenodd"/>
      <path id="Fill-332" d="M28.238,46.329l2.754-3.885.28.2.017-.913-.834.321.265.191-2.454,3.461-1.247-2.275-.154.237-1.11,1.689-.278-.187,0,.9.843-.336-.283-.189c.153-.233.756-1.148.957-1.455l1.248,2.239" transform="translate(-11.734 -19.225)" fill="#001689" fill-rule="evenodd"/>
      <path id="Fill-334" d="M30.646,46.254c-.186-.282-.373-.567-.468-.713-.069.131-.211.387-.369.67l-.2-.355.536-.972.156.237.551.839-.208.294" transform="translate(-13.641 -20.676)" fill="#001689" fill-rule="evenodd"/>
      <path id="Fill-336" d="M32.275,47.891l.2.3.277-.187,0,.9-.843-.336.282-.188c-.029-.045-.072-.114-.128-.2l.209-.293" transform="translate(-14.7 -22.061)" fill="#001689" fill-rule="evenodd"/>
      <path id="Fill-338" d="M41.709,36.817c-.206-.225-.553-.03-.906.3s-.572.659-.368.884c.19.209.556.03.908-.294s.573-.66.366-.885" transform="translate(-18.59 -16.915)" fill="#001689" fill-rule="evenodd"/>
      <path id="Fill-340" d="M40.266,41.091l.032-.028a.922.922,0,0,0,.3-.7.96.96,0,1,0-1.919,0c0,.072.014.19.014.19-.043-.082-.2-.451-.234-.52a1.22,1.22,0,0,1,2.277-.208,2.127,2.127,0,0,0-.486-1.088,1.248,1.248,0,0,0-.551-.256,1.155,1.155,0,0,0,.864-.416,1.257,1.257,0,0,0,.492-.765,1.614,1.614,0,0,0,.074.72,3.229,3.229,0,0,1,.322,1.658,2.915,2.915,0,0,1-.8,1.425.644.644,0,0,0-.148.341s-.684,0-.847.016c0,0-.161-.016-.158-.117s.092-.128.174-.128a1.115,1.115,0,0,0,.6-.129" transform="translate(-17.714 -17.184)" fill="#001689" fill-rule="evenodd"/>
      <path id="Fill-342" d="M31.965,43.191a4.664,4.664,0,0,1-1.665-1.6l-.092-.155a.568.568,0,0,0,.321.018.665.665,0,0,1,.042.07,4.371,4.371,0,0,0,1.55,1.452l-.156.219" transform="translate(-13.915 -19.085)" fill="#001689" fill-rule="evenodd"/>
      <path id="Fill-344" d="M34.667,44.757a6.778,6.778,0,0,0,1.295.31,3.946,3.946,0,0,0,.79.043.241.241,0,0,0,.021.139.232.232,0,0,0-.05.127,4.182,4.182,0,0,1-.8-.048,6.784,6.784,0,0,1-1.413-.347l.158-.225" transform="translate(-15.896 -20.617)" fill="#001689" fill-rule="evenodd"/>
      <path id="Fill-346" d="M40.525,45.157a2.387,2.387,0,0,1,.49.017c.168.027.359.061.38.155s-.042.183-.126.317c-.055.083-.18.035-.247.009a3.064,3.064,0,0,1-.529-.308c-.061-.07-.088-.17.032-.19" transform="translate(-18.629 -20.798)" fill="#001689" fill-rule="evenodd"/>
      <path id="Fill-348" d="M39.83,45.611a.3.3,0,0,1,.254-.026c.106.04.494.27.521.38a.144.144,0,0,1-.088.185.779.779,0,0,1-.187.053.3.3,0,0,1-.241-.111c-.051-.062-.231-.283-.259-.334s-.038-.121,0-.148" transform="translate(-18.336 -20.99)" fill="#001689" fill-rule="evenodd"/>
      <path id="Fill-350" d="M39.347,45.932c.056.064.214.255.231.287a.053.053,0,0,1-.059.075,1.168,1.168,0,0,1-.47-.138c-.153-.106-.255-.311-.149-.384s.269-.039.447.159" transform="translate(-17.899 -21.068)" fill="#001689" fill-rule="evenodd"/>
      <path id="Fill-352" d="M39.287,44.985c.051-.012.253-.062.3,0,.054.084.015.173-.142.25s-.451.135-.511.055.024-.221.355-.309" transform="translate(-17.925 -20.708)" fill="#001689" fill-rule="evenodd"/>
    </g>
    <g id="Group_3" data-name="Group 3" transform="translate(33.838 0.349)">
      <path id="Fill-354" d="M62.737,32.321H94.531v-32H62.737Z" transform="translate(-62.737 -0.322)" fill="#cc003d" fill-rule="evenodd"/>
      <path id="Fill-357" d="M80.642,34.836c0-.142.029-1.135.031-1.269l.226-.014c.929,0,1.1.18,1.185,1.283Zm2.643-.551A1.839,1.839,0,0,0,81.2,32.407H79.47l-.235,6.979H80.5s.117-3.237.123-3.39l1.594,0c.015.141.253,3.389.253,3.389h1.3s-.448-4.794-.484-5.1Z" transform="translate(-70.337 -15.101)" fill="#fff" fill-rule="evenodd"/>
      <path id="Fill-362" d="M70.9,38.306c-.124,0-.436-.029-.436-.029V35.821a1.031,1.031,0,0,1,.21-.024c.647,0,1.411-.038,1.411,1.253,0,1.184-.84,1.256-1.185,1.256m.154-3.616c-.22,0-.415.005-.59.013V33.567h2.288v-1.16H69.194v6.977h1.935a2.2,2.2,0,0,0,2.228-2.365,2.144,2.144,0,0,0-2.3-2.329" transform="translate(-65.711 -15.101)" fill="#fff" fill-rule="evenodd"/>
      <path id="Fill-364" d="M105.863,39.384l-1.535-4.09A2.1,2.1,0,0,0,105,34.142c.107-.443.248-1.736.248-1.736H104c-.008.132-.035.574-.074,1.025-.058.667-.253,1.283-.931,1.283h-.523c0-.056,0-2.307,0-2.307h-1.276v6.98h1.276V35.842h.77l1.253,3.542Z" transform="translate(-80.452 -15.101)" fill="#fff" fill-rule="evenodd"/>
      <path id="Fill-356" d="M109.021,17.066c0-.142.029-1.135.031-1.269h.241c.929,0,1.085.165,1.171,1.269Zm2.643-.551a1.839,1.839,0,0,0-2.084-1.878h-1.731l-.235,6.979h1.262s.117-3.237.123-3.39l1.594,0c.015.141.254,3.389.254,3.389h1.3s-.448-4.794-.484-5.1Z" transform="translate(-83.409 -6.915)" fill="#fff" fill-rule="evenodd"/>
      <path id="Fill-358" d="M69.194,14.636v6.977h1.275V15.8h1.58v5.817h1.277V14.636Z" transform="translate(-65.711 -6.915)" fill="#fff" fill-rule="evenodd"/>
      <path id="Fill-359" d="M91.851,17.066h-.694a.892.892,0,0,1-.636-.195.486.486,0,0,1-.143-.373V14.636H89.1v1.992a1.473,1.473,0,0,0,.537,1.156,1.89,1.89,0,0,0,1.28.459h.933v3.37h1.276V14.636H91.851v2.43" transform="translate(-74.881 -6.915)" fill="#fff" fill-rule="evenodd"/>
      <path id="Fill-360" d="M99.185,14.636V15.8h1.059v5.817h1.291V15.8h1.06v-1.16Z" transform="translate(-79.526 -6.915)" fill="#fff" fill-rule="evenodd"/>
      <path id="Fill-361" d="M93.132,32.406v2.23h-1.75v-2.23H90.109v6.98h1.273V35.8h1.75v3.589H94.4v-6.98Z" transform="translate(-75.346 -15.101)" fill="#fff" fill-rule="evenodd"/>
      <path id="Fill-363" d="M80.348,17.983h0c.011-1.889.474-2.51.963-2.519.489.009.953.631.963,2.519h0c-.011,1.845-.474,2.475-.963,2.484-.489-.01-.953-.64-.963-2.484m3.2-.259a5.073,5.073,0,0,0-.456-2.221,1.908,1.908,0,0,0-1.762-1.2H81.3a1.908,1.908,0,0,0-1.762,1.2,5.07,5.07,0,0,0-.456,2.221s0,.224,0,.226h0a6.655,6.655,0,0,0,.2,1.71c.35,1.43,1.159,1.935,2,1.951h.057c.845-.015,1.654-.521,2-1.951a6.638,6.638,0,0,0,.2-1.71h0s0-.224,0-.226" transform="translate(-70.263 -6.761)" fill="#fff" fill-rule="evenodd"/>
    </g>
  </g>
</svg>
