<svg xmlns="http://www.w3.org/2000/svg" width="33.746" height="32" viewBox="0 0 33.746 32">
  <path id="novikomBank" d="M19.3,30.49c1.99.2,4.664-1.433,8.044-5.2q3.686-4.12,6.952-8.588V29.476A2.94,2.94,0,0,1,31.34,32H6.888a36.555,36.555,0,0,0,5.774-7.019,37.252,37.252,0,0,0,3.472-6.513c.523-.2,2.043-.692,3.168-.993-1.365,2.756-2.789,6.2-2.929,8.217-.24,2.811.946,4.6,2.93,4.8Zm-7.05-10.734a58.215,58.215,0,0,1-4.071,6.728c-.941,1.142-4.516,6.98-7,5.095C-1.2,29.2,4.924,24.3,6.131,23.45a47.275,47.275,0,0,1,6.121-3.693ZM3.667,3.694A11.088,11.088,0,0,0,.584,7.381V2.84a2.931,2.931,0,0,1,3-2.84H26.814a4.492,4.492,0,0,0-2.665,1.509c-.738.79-3.126,4.089-5.717,3.41S16.35,2.11,13.778,1.4A13.232,13.232,0,0,0,3.667,3.694ZM27.749,2.205c1.225-.888.836-1.986-.055-2.205h3.645A2.966,2.966,0,0,1,34.2,2.077c-2.047-.2-5.457,1.1-8.148,4.41a61.385,61.385,0,0,0-5.033,7.476s-2.112.607-3.214.937a58.484,58.484,0,0,1,4.47-7.342A21.091,21.091,0,0,1,27.749,2.2ZM13.877,16.035C9.769,17.276,3.356,20.562.584,24.31V11.818a6.466,6.466,0,0,0,4.068,2.828,9.142,9.142,0,0,0,6.31-.954,10.244,10.244,0,0,0,2.4-1.8c1.454-1.444.925-3.18-.261-3.53A2.737,2.737,0,0,0,10.166,9.75a3.976,3.976,0,0,1-3.935,2.106A3.231,3.231,0,0,1,3.049,9.223C2.408,6.436,5.974,3.573,9.2,3.078c5.212-.8,3.9,2.645,6.388,4.38a3.4,3.4,0,0,0,3.779-.013c-.8,1.129-4.186,6.31-5.489,8.592ZM29.031,6.547c1.541-1.743,4.04-2.926,5.092-1.654s-2.107,3.8-4.136,5.062a41.874,41.874,0,0,1-5.653,3.039,46.25,46.25,0,0,1,4.7-6.445Zm.882,6.244A35.229,35.229,0,0,0,34.3,9.262v4.9c-.941,1.139-6.349,7.193-8.592,9.258-3.831,3.518-6.4,2.988-5.411-.695a29.706,29.706,0,0,1,2.534-6.286,39.958,39.958,0,0,0,7.083-3.645Z" transform="translate(-0.584)" fill="#fff" fill-rule="evenodd"/>
</svg>
