<svg xmlns="http://www.w3.org/2000/svg" width="32.006" height="32" viewBox="0 0 32.006 32">
  <g id="otkritieBank" transform="translate(101.536 3.438)">
    <path id="Path_51" data-name="Path 51" d="M16.007.2a16,16,0,1,0,16,16,16,16,0,0,0-16-16m-3.368,23.85a1.387,1.387,0,0,1,.679.907,1.472,1.472,0,0,1-.172,1.08,1.281,1.281,0,0,1-1.154.609,1.919,1.919,0,0,1-.78-.177l-.748-.354a10.2,10.2,0,0,1-5.29-9.114V15.4a10.226,10.226,0,0,1,5.3-9.125c.033-.011.734-.344.734-.344a1.866,1.866,0,0,1,.779-.176,1.3,1.3,0,0,1,1.157.611,1.459,1.459,0,0,1,.172,1.078,1.389,1.389,0,0,1-.7.923,5.46,5.46,0,0,0-3.135,5v5.676a5.468,5.468,0,0,0,3.157,5.01m14.2-7.047a10.2,10.2,0,0,1-5.29,9.114l-.748.354a1.9,1.9,0,0,1-.78.177,1.287,1.287,0,0,1-1.154-.609,1.488,1.488,0,0,1-.169-1.08,1.382,1.382,0,0,1,.676-.907,5.477,5.477,0,0,0,3.163-5.01V13.367a5.463,5.463,0,0,0-3.138-5,1.393,1.393,0,0,1-.7-.923,1.481,1.481,0,0,1,.17-1.078,1.3,1.3,0,0,1,1.154-.611,1.841,1.841,0,0,1,.78.176s.7.334.732.344A10.215,10.215,0,0,1,26.842,15.4v1.6" transform="translate(-101.541 -3.643)" fill="#fff" fill-rule="evenodd"/>
  </g>
</svg>
