<svg xmlns="http://www.w3.org/2000/svg" width="32.024" height="32.001" viewBox="0 0 32.024 32.001">
  <g id="promSvyazBank" transform="translate(-0.956 34.878)">
    <path id="Path_52" data-name="Path 52" d="M30.877,12.913a7.791,7.791,0,0,0-7.791-7.791H12.078a7.792,7.792,0,0,0-7.5,5.7H17.883c5.117,0,7.291,2.381,7.291,7.969V31.42a7.808,7.808,0,0,0,5.7-7.5V12.913" transform="translate(2.103 -40)" fill="#fff" fill-rule="evenodd"/>
    <path id="Path_53" data-name="Path 53" d="M.137,28.053a7.79,7.79,0,0,0,7.794,7.791H18.938a7.788,7.788,0,0,0,7.5-5.7H13.132c-5.119,0-7.292-2.38-7.292-7.969V9.545a7.815,7.815,0,0,0-5.7,7.5V28.053" transform="translate(0.819 -38.721)" fill="#fff" fill-rule="evenodd"/>
    <path id="Path_54" data-name="Path 54" d="M20.6,15.635V15.6a1.977,1.977,0,0,0,1.44-2.06c0-1.521-1.235-2.217-2.974-2.217H16.119V14.96H14.382a2.49,2.49,0,0,0-2.814,2.528c0,1.268.732,1.83,2.083,2.5.822.411,1.8.664,1.8,1.6,0,.494-.456,1.089-1.44,1.089h-1.83a2.872,2.872,0,0,0,.389-1.432c0-.583-.206-2.917-3.455-2.917H6.467v9H8.273V23.413l.732.732h4.942c2.307,0,3.407-1.188,3.407-2.606A2.79,2.79,0,0,0,17.1,20.3h1.852c2.859,0,3.524-1.418,3.524-2.529A2.088,2.088,0,0,0,20.6,15.635ZM9.12,22.683H8.273V19.74H9.12a1.365,1.365,0,0,1,1.533,1.418A1.445,1.445,0,0,1,9.12,22.683Zm7-5.583v2.182a12.677,12.677,0,0,0-1.463-.7c-.572-.253-1.19-.572-1.19-1.294,0-.367.229-.913,1.328-.913h2.033l-.709.721Zm1.806-4.37h.825c1.395,0,1.464.857,1.464,1.12,0,.388-.206,1.11-1.4,1.11h-.892Zm1.03,6.154h-1.03v-2.5h1.03c1.259,0,1.6.606,1.6,1.247S20.1,18.884,18.955,18.884Z" transform="translate(2.649 -38.207)" fill="#fff" fill-rule="evenodd"/>
  </g>
</svg>
