<svg xmlns="http://www.w3.org/2000/svg" width="34" height="34" viewBox="0 0 34 34">
  <g id="raiffeisenBank" transform="translate(-10 -1)">
    <path id="Path_55" data-name="Path 55" d="M10,1H44V35H10Z" fill-rule="evenodd"/>
    <path id="Path_56" data-name="Path 56" d="M11,2H43V34H11Z" fill="#fff200" fill-rule="evenodd"/>
    <path id="Path_57" data-name="Path 57" d="M12.658,28.61l4.14,4.22,9.7-9.84L36.519,33.032l4.2-4.159L30.8,18.953,32.7,17.106V13.17l1.2-1.014v3.083L35.444,16.5l4.6-4.6,1.48,1.136C42.4,9.8,37.35,2.478,33.171,6.535L28.3,11.364l.994,1.2L26.82,14.975l-2.394-2.354,1.258-1.136L20.348,6.332c-4.017-3.308-8.136,1.725-8.279,6.634l1.46-1.217,4.485,4.83,1.6-1.34V12.277l.994.75V16.9l1.948,1.948-9.9,9.759Z" fill-rule="evenodd"/>
  </g>
</svg>
