<svg xmlns="http://www.w3.org/2000/svg" width="31.856" height="32.001" viewBox="0 0 31.856 32.001">
  <g id="russtandartBank" transform="translate(-3.01 -2.915)">
    <path id="Path_67" data-name="Path 67" d="M32.07,16.11a15.928,15.928,0,1,1-15.924-16,15.968,15.968,0,0,1,15.924,16" transform="translate(2.796 2.809)" fill="#fff" fill-rule="evenodd"/>
    <path id="Path_69" data-name="Path 69" d="M16.15.381A15.738,15.738,0,1,0,31.811,16.124,15.7,15.7,0,0,0,16.15.381Zm-.009,30.48A14.742,14.742,0,1,1,30.823,16.124,14.706,14.706,0,0,1,16.14,30.861Z" transform="translate(2.774 2.786)" fill="#5c5142" fill-rule="evenodd"/>
    <path id="Path_70" data-name="Path 70" d="M25.162,9.544c-.344-.184-.938-.389-.986-1.749S23.673,5.723,22,4.232a1.662,1.662,0,0,0,.022.434,3.478,3.478,0,0,0-1.738-.894,8.711,8.711,0,0,0,.173-.865c.024-.251-.168-.513-.587-.414-.446.1-2.023.689-2.574.826A17.839,17.839,0,0,0,10.943,6.8a10.427,10.427,0,0,1,1.535-2.652h-.006a12.006,12.006,0,0,0-2.266.879,14.176,14.176,0,0,0-2.633,7.33,12.3,12.3,0,0,1-.117-5.47L7.443,6.9A12.6,12.6,0,0,0,5.456,9.123a15.23,15.23,0,0,0,1.359,7.789S5.291,15.809,3.9,12.1l-.009.018a12.875,12.875,0,0,0-.758,3.76A15.87,15.87,0,0,0,9.974,22.47,15.876,15.876,0,0,1,3.434,19.4,12.76,12.76,0,0,0,5.06,23.351a18.828,18.828,0,0,0,9,1.654s-2.267,1.285-6.905.9a8.886,8.886,0,0,0,2.937,2.029,6.278,6.278,0,0,0,5.281-.21,4.057,4.057,0,0,0,1.572-4.362,2.472,2.472,0,0,1-1.409,1.105,2.343,2.343,0,0,0,.792-1.759,2.092,2.092,0,0,0-2.1-2c-.927-.077-2.473.038-2.954.038A1.849,1.849,0,0,1,9.7,20.191a8.288,8.288,0,0,0,1.339-.173,11.531,11.531,0,0,1,2.407-.518.985.985,0,0,0-.793-.309,1.792,1.792,0,0,0-.653.177,1.024,1.024,0,0,1-1.232-.541,1.216,1.216,0,0,0,.889.26c.348-.095.38-.242.515-.344a1.137,1.137,0,0,1,.632-.194.988.988,0,0,1,.676.23c.209.169.619.137.377-.107a1.519,1.519,0,0,0-1.1-.483,9.158,9.158,0,0,0-2.991.45,2.643,2.643,0,0,0-.818.612c-.05.063-.154.065-.15-.044a4.445,4.445,0,0,1,.919-2.6,8.4,8.4,0,0,1,3.245-1.245A.78.78,0,0,1,13,14.671c.315-.392,1.335-1.126,7.379-1.124a2.815,2.815,0,0,0-.472.47,11.8,11.8,0,0,1,3.677.8c.205.1.621.138.756-.793l-.377-.242s.034-.14.07-.31,0-.21-.138-.139a.41.41,0,0,0-.172.138s-.342.138-.379-.067a1.367,1.367,0,0,0-1.167-.831,1.3,1.3,0,0,1,1.247-.4s.071.251.252.179.436-.23.458-.021.114.548.595.021a1.278,1.278,0,0,0,.917.092,1.236,1.236,0,0,0,.846-1.149.533.533,0,0,1,.142-.344c.112-.138.2-.334-.006-.506a13.522,13.522,0,0,0-1.464-.9Zm-9.024.644c.234-.092.3.111.255.253a5.2,5.2,0,0,0-.413,2.072c.112.432,1.188.687,1.188.687-.2.021-1.366.077-1.65.141s-.73.11-.637-.437c.11-.667.455-1.866.455-1.866a7.351,7.351,0,0,0-1.212.553c-.23.138-.294.11-.23-.047A16.709,16.709,0,0,1,17.97,6.092l.024.07a17.734,17.734,0,0,0-2.567,4.279,7.488,7.488,0,0,1,.711-.254Zm3.434-6.662a4.268,4.268,0,0,0-.68,1.116c-.047.2-.025.253.1.3s.126.18-.053.2a5.564,5.564,0,0,0-.969.23c-.316.112-.363-.078-.291-.2A5.1,5.1,0,0,1,19.371,3.5c.2-.125.27-.063.2.026ZM23.5,8.375c-.049.3-.2.326-.43.2a1.382,1.382,0,0,0-.427-.2c-.127-.025-.252.024-.15.2a1.812,1.812,0,0,1,.2,1.038,6.008,6.008,0,0,0-1.232-1.621c-.412-.333.363-.244.529-.228a2.089,2.089,0,0,1,.754.181c.168.043.531.135.662-.864.01-.049.067-.034.072.006A5.708,5.708,0,0,1,23.5,8.375Z" transform="translate(2.56 2.618)" fill="#5c5142" fill-rule="evenodd"/>
    <path id="Path_71" data-name="Path 71" d="M22.881,22.852c-.337-.41-.836-.988-.836-.988a5.043,5.043,0,0,0,1.4.419c-.246-.21-.819-.9-1.053-1.174a8.234,8.234,0,0,0-2.564-2A11.88,11.88,0,0,0,16.3,18.23c-.23-.041-.71.044-.409-.412A16.679,16.679,0,0,1,17.925,16c-.365,0-1.97.133-2.45.206s-.595-.092-.616-.418c0,0-.971.919-.509,1.384a.529.529,0,0,0,.53-.024,4.567,4.567,0,0,1,.94-.3,6.856,6.856,0,0,0-.5.917c-.092.28-.114.418.318.552a17.5,17.5,0,0,1,3.987,1.75A10.3,10.3,0,0,1,23.4,24.326a4.946,4.946,0,0,1,.3,4.109A12.607,12.607,0,0,0,25.741,26.8l-.014.009c-.538-1.808-2.023-2.963-2.846-3.962m4.86,1.424a12.236,12.236,0,0,0,1-2.04v0a16.715,16.715,0,0,0-6.49-3.675,10.48,10.48,0,0,1,5.49,5.718" transform="translate(1.665 1.543)" fill="#5c5142" fill-rule="evenodd"/>
    <path id="Path_72" data-name="Path 72" d="M18.65,30.392a13.661,13.661,0,0,0,2.49-.547l.009-.006a9.422,9.422,0,0,0,.405-5.289s.1,4.393-2.905,5.842m9.641-14.42a7.813,7.813,0,0,1-2.865.161,16.9,16.9,0,0,1,4.435,3.072v-.02a11.813,11.813,0,0,0,.091-1.558.872.872,0,0,0,0-.171c-.388-.159-2.785-.841-2.785-.841a1.372,1.372,0,0,0,1.123-.643" transform="translate(1.308 1.529)" fill="#5c5142" fill-rule="evenodd"/>
  </g>
</svg>
