<svg xmlns="http://www.w3.org/2000/svg" width="33.304" height="33.677" viewBox="0 0 33.304 33.677">
  <g id="smpBank" transform="translate(-0.269 -0.108)">
    <path id="Path_74" data-name="Path 74" d="M30.49,1.966l.234-.114-.234.113ZM33.508.86c-.187-.2-2.712.957-2.712.957l.114-.075c.5-.29,1.285-.708.99-1.046-.148-.167-.481-.093-1.444.458C30,1.414,27.64,2.342,25.2,3.318a56.825,56.825,0,0,0-6,2.663.269.269,0,0,0-.027.032,1.77,1.77,0,0,0-.1.186,6.771,6.771,0,0,0-.378,1.192.437.437,0,0,0-.012.049l-.023.1c-.149.683-.283,1.519-.43,2.444-.431,2.807-.872,6.985-.872,6.985a35.5,35.5,0,0,1-.4,4.2,3.8,3.8,0,0,1-.169.568q-.032.105-.072.208v0a1.959,1.959,0,0,1-.414.675c-.564.584-1.953.4-2.337.352a3.775,3.775,0,0,1-1.9-.85A2.5,2.5,0,0,0,10.532,21.1c-.235-.021-1.2.137-1.514.128s-.759-.429-1.258-.479a2.863,2.863,0,0,0-1.315.421,10.639,10.639,0,0,1,2.227,1.011,4.515,4.515,0,0,0,1.56,1.422,24.452,24.452,0,0,1,3.248,3,16.9,16.9,0,0,0,1.37,1.141,11.118,11.118,0,0,1-2.355.509c-5.647.583-10.47-2.915-11.1-8.12a8.643,8.643,0,0,1,.241-3.359A8.969,8.969,0,0,1,3.46,13.133a10.254,10.254,0,0,1,6.8-3.565,11.033,11.033,0,0,1,4.922.64c-.012-.167-.024-.332-.034-.5a11.286,11.286,0,0,0-4.972-.588A10.75,10.75,0,0,0,3.086,12.73,9.271,9.271,0,0,0,.847,17.665c-.046.248-.052.427-.082.753a15.3,15.3,0,0,0,.043,2.4c.642,5.281,5.8,9.082,11.53,8.491a11.129,11.129,0,0,0,3.415-.91,16.471,16.471,0,0,0,2.923,1.59,23.75,23.75,0,0,0,6.738,1.31c1.543.186,2.924,2,3.355,2.368s3.312-.211,3.312-.211a7.5,7.5,0,0,1-.329-1.246c-.12-.7-.947-1.013-1.108-1.193s-3.88-1.744-4.476-2.091A6.919,6.919,0,0,1,24.05,26.64a2.394,2.394,0,0,1-.314-2.367c.137-.227.436-.276.61-.578s.037-.33.02-.485.049-.27.207-.537.094-.241.094-.241L24.7,22.1c.033-.331,0,0,.068-.113l.065-.116a.5.5,0,0,1,.052-.271c.065-.112-.08-.231-.052-.367a3.464,3.464,0,0,0,.12-.38,1.525,1.525,0,0,0,.032-.427c.016-.289.09-.155.249-.32s-.158-.378-.158-.378a3.12,3.12,0,0,1,.274-.642c.25-.517,0,0,.07-.209s-.088-.393-.121-.6.029-.142.076-.409,0,0,.092-.248a.635.635,0,0,0,.053-.366l-.17-.527.09-.15a.7.7,0,0,0,0-.448l-.232-.606a3.613,3.613,0,0,1,.038-.424,3.174,3.174,0,0,0-.2-.742l.148-.613-.215-.892-.143-.758s-.024-1.145-.025-1.588a9.336,9.336,0,0,1,.077-1.582c.081-.6,1.95-1.328,2.153-1.676s-1.134.027-1.134.027a11.868,11.868,0,0,0,2.508-.914c.12-.2-1.535.1-1.535.1h0a9.633,9.633,0,0,0,2.909-.976c.65-.536-1.139-.124-1.426-.052.293-.074,2.26-.567,2.532-1.115.158-.315-1.472-.087-1.472-.087a14.189,14.189,0,0,0,2.38-.738c1.172-.542,1.24-.953,1-1.068a10.022,10.022,0,0,0-2.17.489l-.1.033.1-.033a9.253,9.253,0,0,0,1.532-.664c.747-.459,1.667-1.03,1.347-1.388Z" fill="#fff" fill-rule="evenodd"/>
    <path id="Path_75" data-name="Path 75" d="M4.18,12.354,6.07,9.877,3.766,12,2.713,8.424,2.9,12.056.965,10.875l1.764,1.688-2.46.627,2.493-.115L.7,15.733,3.152,13.48l1.014,3.3-.177-3.3L5.846,14.6l-1.79-1.712,2.465-.649-2.34.11ZM28.51.149c-.182-.194-1.38.366-1.38.366s-7.3,3.24-10.516,4.85A2.294,2.294,0,0,0,15.058,7.3a88.986,88.986,0,0,0,1.06,10.883c.36,2.6.606,3.676.595,3.762a7.083,7.083,0,0,0,.241-.776,35.729,35.729,0,0,0,.4-4.2s.44-4.178.872-6.985A13.378,13.378,0,0,1,19.172,6c.26-.383,6.151-2.718,7.179-3.16,1.255-.54,1.4-.682,1.42-1.068s-1.313.042-1.313.042,1.155-.575,1.574-.849.66-.622.478-.816Z" fill="#00a3db" fill-rule="evenodd"/>
  </g>
</svg>
