<svg xmlns="http://www.w3.org/2000/svg" width="17.807" height="32.001" viewBox="0 0 17.807 32.001">
  <g id="soyuzBank" transform="translate(-195.667 300.478)">
    <path id="Path_76" data-name="Path 76" d="M.474,8.942a8.671,8.671,0,0,0,8.9,8.421,8.672,8.672,0,0,0,8.9-8.421A8.671,8.671,0,0,0,9.378.523a8.671,8.671,0,0,0-8.9,8.419" transform="translate(195.193 -301.001)" fill="#fff" fill-rule="evenodd"/>
    <path id="Path_77" data-name="Path 77" d="M.474,8.942a8.671,8.671,0,0,0,8.9,8.421,8.672,8.672,0,0,0,8.9-8.421A8.671,8.671,0,0,0,9.378.523a8.671,8.671,0,0,0-8.9,8.419" transform="translate(195.193 -301.001)" fill="#fff" fill-rule="evenodd"/>
    <path id="Path_78" data-name="Path 78" d="M.474,23.048c0,1.239,3.985,2.244,8.9,2.244s8.9-1.005,8.9-2.244S14.3,20.8,9.378,20.8s-8.9,1.005-8.9,2.247" transform="translate(195.193 -302.192)" fill="#fff" fill-rule="evenodd"/>
    <path id="Path_79" data-name="Path 79" d="M.474,23.048c0,1.239,3.985,2.244,8.9,2.244s8.9-1.005,8.9-2.244S14.3,20.8,9.378,20.8s-8.9,1.005-8.9,2.247" transform="translate(195.193 -302.192)" fill="#fff" fill-rule="evenodd"/>
    <path id="Path_80" data-name="Path 80" d="M9.378,27.958c6.412,0,8.9.587,8.9,1.4s-2.491,1.4-8.9,1.4-8.9-.589-8.9-1.4,2.489-1.4,8.9-1.4" transform="translate(195.193 -302.613)" fill="#fff" fill-rule="evenodd"/>
    <path id="Path_81" data-name="Path 81" d="M9.378,27.958c6.412,0,8.9.587,8.9,1.4s-2.491,1.4-8.9,1.4-8.9-.589-8.9-1.4,2.489-1.4,8.9-1.4" transform="translate(195.193 -302.613)" fill="#fff" fill-rule="evenodd"/>
    <path id="Path_82" data-name="Path 82" d="M9.378,33.326c7.908,0,8.9.167,8.9.562s-1,.563-8.9.563-8.9-.168-8.9-.563.99-.562,8.9-.562" transform="translate(195.193 -302.928)" fill="#fff" fill-rule="evenodd"/>
    <path id="Path_83" data-name="Path 83" d="M9.378,33.326c7.908,0,8.9.167,8.9.562s-1,.563-8.9.563-8.9-.168-8.9-.563S1.464,33.326,9.378,33.326Z" transform="translate(195.193 -302.928)" fill="#fff" fill-rule="evenodd"/>
  </g>
</svg>
