<svg xmlns="http://www.w3.org/2000/svg" width="18.255" height="32.001" viewBox="0 0 18.255 32.001">
  <g id="spbBank" transform="translate(-146.84 299.876)">
    <path id="Path_85" data-name="Path 85" d="M17.829,12.147a9.122,9.122,0,1,1-5.57-11.6A9.13,9.13,0,0,1,17.829,12.147Z" transform="translate(146.745 -299.901)" fill="#fff"/>
    <g id="Group_7" data-name="Group 7" transform="translate(146.843 -275.962)">
      <path id="Path_86" data-name="Path 86" d="M18.348.007V.928c.007,1.748-4.071,3.181-9.113,3.2S.108,2.742.1.993L.1.075,18.348.007" transform="translate(-0.098 -0.007)" fill="#fff"/>
      <path id="Path_87" data-name="Path 87" d="M18.348.007V.928c.007,1.748-4.071,3.181-9.113,3.2S.108,2.742.1.993L.1.075,18.348.007" transform="translate(-0.098 -0.007)" fill="#fff" fill-rule="evenodd"/>
    </g>
    <g id="Group_8" data-name="Group 8" transform="translate(146.843 -279.095)">
      <path id="Path_88" data-name="Path 88" d="M18.348,3.223c0,1.75-4.075,3.182-9.114,3.2S.1,5.037.1,3.292,4.172.108,9.214.09s9.127,1.385,9.135,3.133" transform="translate(-0.098 -0.09)" fill="#fff"/>
      <path id="Path_89" data-name="Path 89" d="M18.348,3.223c0,1.75-4.075,3.182-9.114,3.2S.1,5.037.1,3.292,4.172.108,9.214.09s9.127,1.385,9.135,3.133" transform="translate(-0.098 -0.09)" fill="#fff" fill-rule="evenodd"/>
    </g>
    <g id="Group_9" data-name="Group 9" transform="translate(146.845 -269.439)">
      <path id="Path_90" data-name="Path 90" d="M.1.578C.1.319,4.184.067,9.223.067s9.125.253,9.125.511v.546c0,.254-4.084.508-9.125.508S.1,1.377.1,1.123V.579" transform="translate(-0.1 -0.067)" fill="#fff"/>
      <path id="Path_91" data-name="Path 91" d="M.1.578C.1.319,4.184.067,9.223.067s9.125.253,9.125.511v.546c0,.254-4.084.508-9.125.508S.1,1.377.1,1.123V.579" transform="translate(-0.1 -0.067)" fill="#fff" fill-rule="evenodd"/>
    </g>
  </g>
</svg>
