<svg xmlns="http://www.w3.org/2000/svg" width="46.748" height="32.001" viewBox="0 0 46.748 32.001">
  <g id="tatfondbank" transform="translate(0 0)">
    <path id="Path_92" data-name="Path 92" d="M0,0H46.748V32H0ZM.8,31.18H45.946V.822H.8Z" transform="translate(0 0)" fill="#fefefe" fill-rule="evenodd"/>
    <path id="Path_93" data-name="Path 93" d="M21.344,6.556c.5,0,.989.008,1.475.025l1.3-1.475L20.523,6.562C20.8,6.558,21.069,6.556,21.344,6.556Zm5.646.362c5.8.764,10.215,2.677,11.335,5.016q.024.051.045.1l.012.021a2.607,2.607,0,0,1,.227,1.047,2.655,2.655,0,0,1-.262,1.124c-1.413,3.074-8.507,5.425-17,5.425H20.87c-1.611,0-3.167-.078-4.65-.227L8.693,28.17l-.109.126V17.826C5.224,16.632,3.132,14.959,3.132,13.1s2.093-3.53,5.452-4.722V5.159H5.34Q2.985,5.026,1.471,7.9V1.563H18.257V6.626c.4-.021.806-.037,1.217-.05L23.7,1.509H43.154l-4.6,6.926c-.041-2.543-1.533-3.223-4.342-3.223H28.454l-1.467,1.7ZM11.668,18.7v.545l.4-.459Zm1.946-1.665L21.37,8.225l-.341,0c-.461,0-.915,0-1.363.006a24.69,24.69,0,0,0-8,1.479V16.5a16.524,16.524,0,0,0,1.876.614l.07-.076ZM25.578,8.555,17.617,17.8a31.209,31.209,0,0,0,3.413.186c6.914,0,12.552-2.194,12.552-4.883,0-2.066-3.326-3.838-8-4.549Zm-7.811-1.9a4.9,4.9,0,0,0-3.8-1.442h-2.3V7.506a39.786,39.786,0,0,1,6.1-.849ZM11.3,7.593V4.829h2.675a5.36,5.36,0,0,1,3.915,1.4V1.949H7.468a.626.626,0,0,0-.01.072c-.054,0-.248.12-.248.182a.069.069,0,0,0-.021.008V2.22a1.256,1.256,0,0,1-.44.269l.006.413c-.145,0-.291.039-.438.054a7.39,7.39,0,0,1,.076,1.171l-.008.008c-.238.182-.632.054-.886.221a.382.382,0,0,0-.153.165,1.531,1.531,0,0,0-.048.252l.048,0H8.957V8.254c.727-.244,1.508-.465,2.336-.661ZM29.929,4.829h4.282c2.227,0,4.119.4,4.6,2.535L42.445,1.9H32.224V1.92c-.06,0-.264.126-.264.194a.083.083,0,0,0-.025.008v.008a1.3,1.3,0,0,1-.465.285l.008.438a4.043,4.043,0,0,0-.469.06,7.782,7.782,0,0,1,.083,1.244l-.008.008c-.254.192-.671.058-.942.235a.407.407,0,0,0-.165.176,1.763,1.763,0,0,0-.045.252ZM8.961,14.876V11.336A7.681,7.681,0,0,1,11.3,9.865v6.48A7.679,7.679,0,0,1,8.961,14.876Zm-.376-.432a2.1,2.1,0,0,1,0-2.683v2.685Zm.374,12.591L11.3,20.25V18.618q-1.182-.277-2.334-.661v9.079Z" transform="translate(1.568 1.608)" fill="#fefefe" fill-rule="evenodd"/>
  </g>
</svg>
