<svg xmlns="http://www.w3.org/2000/svg" width="35.995" height="32" viewBox="0 0 35.995 32">
  <g id="tinkoffBank" transform="translate(-215.305 100.9)">
    <g id="Group_12" data-name="Group 12" transform="translate(216.183 -99.759)">
      <path id="Path_108" data-name="Path 108" d="M11.955,29.585c.439-.351.834-.527.79-1.4a3.144,3.144,0,0,1-3.38-.79c-.219-.307,0-.483.219-.219.527.615,1.536.351,1.931.176a1.415,1.415,0,0,0-.351-.615c.132-.132.527-.351.615-.7a3.7,3.7,0,0,0-1.01-.176.634.634,0,0,0,.176-.746,2.242,2.242,0,0,1-2.063-.4c-.219-.307,0-.571.176-.4.4.439,2.458.922,3.2.176a1.6,1.6,0,0,1-.658-.483c.7-.088,1.273-.483,1.317-1.01a3.286,3.286,0,0,1-1.361-.219.93.93,0,0,0,.658-.615,1.342,1.342,0,0,1-1.4-1.185c.834.483,2.283.263,1.931-.922-.7-.044-1.4-1.141.527-2.195,1.712-.922,3.687-1.975,3.512-3.643-.132-1.054-1.888-1.8-2.107-2.326-.746.351-.878.746-.571,1.449,0,0-1.624.176-1.756-.834a1.614,1.614,0,0,1,.571-1.185c-.176,0-1.4-.351-1.8.658a1.236,1.236,0,0,0-1.756.044c.746.439,1.185,1.931,2.414,2.414a2.346,2.346,0,0,1-3.117-1.185c-.79,1.185-1.229,2.326.439,3.6-3.029,1.4-3.029,4.038-5.663,5.311.263.7.834.7,1.536.615C3.834,24.274,4.8,25.81,3,26.469c.176.615.527,1.1,1.185.922-.176.307-.307.307-.615.615,1.01.615,2.151.176,2.414-1.844.044-.351.527-.132.351.219-1.141,2.326,1.712,4.082.7,5.794a3.525,3.525,0,0,0,1.931-.4,1.884,1.884,0,0,1,.263,1.054.786.786,0,0,0,.7-.7,3.356,3.356,0,0,0,3.292,1.931c-.79-1.492.088-2.9-1.273-4.477M10.111,31.3l-.4.658a7.977,7.977,0,0,0-.571-1.229c-.307.658-.834.658-1.317.658.088-1.58-1.844-3.117-1.01-4.916a.721.721,0,0,0-.307-.966c-1.317-.658-.7,2.107-2.019,2.195a3.453,3.453,0,0,0,.4-1.01c-.263.088-.966.483-1.229-.044a2.165,2.165,0,0,0,1.1-1.668,8.958,8.958,0,0,1,.439-1.536,10.639,10.639,0,0,1,.966-1.361c-.132,0-1.624.351-1.931.176C6.775,20.674,6.2,18.7,10.111,16.9c-1.01-.746-2.063-1.361-1.317-2.809,1.054,1.273,3.073.834,4.17.263a4.059,4.059,0,0,1-2.809-2.239c.4-.044.922.4,1.229.571.132-.4.219-.834.658-.966-.615,1.361.615,2.063,1.8,2.063.176,0,.966-.088.966-.088-.132-.263-.615-.966-.263-1.229.307.263.658.483.966.746,2.326,1.8-1.1,3.468-2.5,4.214-2.195,1.185-1.624,2.59-.7,2.985,0,.176-.088.219-.263.263-.658.219-1.229-.263-1.756-.527.044.878-.044,1.756.966,2.239l-.658.263a2.445,2.445,0,0,0,1.449.746,2.317,2.317,0,0,1-1.1.176,2.56,2.56,0,0,0,.351.79c-1.449.176-2.019-.658-2.458-.615-.922.088-.878,1.844,1.449,1.844l-.219.4a2.49,2.49,0,0,0,.834.307,4.139,4.139,0,0,0-.439.439l.351.307c-.966.176-1.229-.834-1.844-.351-.922.746,1.141,2.326,3.117,2.063a6.419,6.419,0,0,1-.834.7c1.624,1.536.834,2.985,1.492,4.038A2.872,2.872,0,0,1,10.111,31.3" transform="translate(-2.693 -7.505)" fill="#fff" fill-rule="evenodd"/>
      <path id="Path_109" data-name="Path 109" d="M10.707,29.894c.351.351.746.4,1.492.351a1.8,1.8,0,0,1-1.624-.878,6.549,6.549,0,0,1-.088-.922,6.26,6.26,0,0,1,.878-3.117,2.149,2.149,0,0,0,1.844,2.063,2.3,2.3,0,0,1-1.449-2.765c.263-.4.527-.79.834-1.185.132-.176.307-.4.439-.571-.132.527.571,1.141,1.01,1.229-.263-.263-.79-1.01.439-2.326a7.731,7.731,0,0,0-1.01.615c2.239-2.414,4.038-2.458,4.916-3.687a9.681,9.681,0,0,1-5.882.878,6.133,6.133,0,0,0,3.2.4c-1.58,1.536-5,3.117-5.575,4.521a3.787,3.787,0,0,1,2.107-1.317,14.374,14.374,0,0,0-1.449,2.458c-.922,1.975-2.151,2.019-2.195,3.643.4-1.273,1.273-1.58,1.844-2.414a11.159,11.159,0,0,0-.132,1.8,5.453,5.453,0,0,0,.4,1.975,4.1,4.1,0,0,0,.922,3.117,4.358,4.358,0,0,1-.7-2.59c.746,1.4,2.809,3.336,3.775,4.653-1.01-1.712-3.468-3.687-3.995-5.926" transform="translate(-5.835 -11.677)" fill="#fff" fill-rule="evenodd"/>
      <path id="Path_110" data-name="Path 110" d="M57.745,23.077a3.933,3.933,0,0,1,2.107,1.317c-.615-1.4-4.038-2.985-5.575-4.521a6.133,6.133,0,0,0,3.2-.4A9.681,9.681,0,0,1,51.6,18.6c.834,1.229,2.678,1.273,4.916,3.687a7.73,7.73,0,0,0-1.01-.615c1.229,1.317.7,2.107.439,2.326.439-.088,1.141-.7.966-1.229a6.453,6.453,0,0,1,.439.571c.307.4.571.79.834,1.185a2.342,2.342,0,0,1-1.449,2.765,2.139,2.139,0,0,0,1.844-2.063,6.378,6.378,0,0,1,.878,3.117,5.479,5.479,0,0,1-.088.922,1.8,1.8,0,0,1-1.624.878c.79.044,1.185,0,1.492-.351-.527,2.239-2.985,4.214-3.995,5.882,1.01-1.317,3.073-3.248,3.775-4.653a4.286,4.286,0,0,1-.7,2.59,3.885,3.885,0,0,0,.922-3.117,5.453,5.453,0,0,0,.4-1.975,7.521,7.521,0,0,0-.132-1.8c.571.834,1.449,1.141,1.844,2.414-.088-1.624-1.317-1.668-2.195-3.643a17.85,17.85,0,0,0-1.4-2.414" transform="translate(-29.959 -11.621)" fill="#fff" fill-rule="evenodd"/>
      <path id="Path_111" data-name="Path 111" d="M59.606,22.581c.7.132,1.273.132,1.536-.615-2.634-1.273-2.634-3.907-5.663-5.311,1.668-1.229,1.229-2.414.439-3.6A2.346,2.346,0,0,1,52.8,14.241c1.229-.439,1.668-1.975,2.414-2.414a1.236,1.236,0,0,0-1.756-.044c-.4-1.01-1.58-.658-1.8-.658a1.586,1.586,0,0,1,.658,1.229c-.132,1.01-1.756.834-1.756.834.307-.658.176-1.1-.571-1.449-.219.527-1.975,1.273-2.107,2.326-.176,1.668,1.8,2.678,3.512,3.643,1.888,1.054,1.185,2.151.527,2.195-.4,1.185,1.1,1.4,1.931.922,0,.176-.088,1.1-1.4,1.185.088.4.307.483.658.615a3.286,3.286,0,0,1-1.361.219c.044.527.615.922,1.317,1.01a1,1,0,0,1-.658.483c.746.746,2.809.263,3.2-.176.176-.219.439.088.176.4a2.276,2.276,0,0,1-2.063.4c-.088.483.044.658.176.746a6.965,6.965,0,0,0-1.01.176c.088.351.483.571.615.7a1.415,1.415,0,0,0-.351.615,1.761,1.761,0,0,0,1.931-.176c.219-.263.483-.088.219.219a3.229,3.229,0,0,1-3.38.79,1.457,1.457,0,0,0,.79,1.4c-1.361,1.58-.483,3.029-1.449,4.39a3.311,3.311,0,0,0,3.292-1.931.751.751,0,0,0,.7.7,1.884,1.884,0,0,1,.263-1.054,3.628,3.628,0,0,0,1.931.4c-1.01-1.712,1.844-3.468.7-5.794-.176-.351.307-.571.351-.219.263,2.019,1.449,2.458,2.414,1.844-.307-.307-.439-.307-.615-.615.658.176,1.01-.307,1.185-.922-1.712-.571-.746-2.151-1.888-3.643m.176,3.995a3.454,3.454,0,0,0,.4,1.01c-1.317-.088-.7-2.853-2.019-2.195a.721.721,0,0,0-.307.966c.878,1.8-1.1,3.336-1.01,4.916a1.23,1.23,0,0,1-1.317-.658,6.423,6.423,0,0,0-.571,1.229l-.4-.658a2.972,2.972,0,0,1-2.678,2.239c.658-1.054-.132-2.5,1.492-4.038a6.419,6.419,0,0,1-.834-.7c1.975.219,4.038-1.317,3.117-2.063-.615-.483-.878.527-1.844.351l.351-.307a4.139,4.139,0,0,0-.439-.439,2.49,2.49,0,0,0,.834-.307l-.176-.4c2.326,0,2.37-1.8,1.449-1.844-.439-.044-1.01.79-2.458.615a3.118,3.118,0,0,0,.351-.79,4.765,4.765,0,0,1-1.1-.176,2.445,2.445,0,0,0,1.449-.746l-.658-.263c.966-.483.922-1.361.966-2.239-.527.307-1.1.746-1.756.527-.132-.044-.263-.132-.263-.263.922-.351,1.492-1.8-.7-2.985-1.4-.746-4.829-2.414-2.5-4.214.307-.263.658-.483.966-.746.351.263-.132.966-.263,1.229,0,0,.79.088.966.088,1.185,0,2.458-.7,1.8-2.063.483.088.527.571.658.966.307-.219.834-.658,1.229-.571a4.059,4.059,0,0,1-2.809,2.239c1.1.615,3.117,1.054,4.17-.263.746,1.449-.307,2.063-1.317,2.809,3.907,1.8,3.336,3.775,5.882,5.355a6.436,6.436,0,0,1-1.931-.176,5.677,5.677,0,0,1,.966,1.361,6.8,6.8,0,0,1,.4,1.492,2.209,2.209,0,0,0,1.1,1.668c-.263.527-.922.088-1.185.044" transform="translate(-27.869 -7.393)" fill="#fff" fill-rule="evenodd"/>
      <path id="Path_112" data-name="Path 112" d="M32.325,50.97l.571-.483-.088-.176c-.044-.132-.044-.132.044-.176l.307-.219a.4.4,0,0,1,.219-.044l.878.219h-.922c-.219,0-.263.088-.351.263l-.088.176-.219.483a.549.549,0,0,0,.088.658l.176.219-.351.7H32.9l.219-.483a1.986,1.986,0,0,0,.439-.658c-.088-.088-.176-.132-.132-.263l.088-.219c.044-.088.044-.088.132-.088l.922.219c.132.044.263.088.4-.088s.132-.176.439-.132l.483.044a2.44,2.44,0,0,0,1.536-.307,5.48,5.48,0,0,0,.351.527c.044.044,0,.132-.044.219L37.2,52.638h.834l.483-1.141c.044-.088.088-.219.132-.219l-.263,1.4h.79l.219-1.4c.044-.307,0-.4-.132-.527-.351-.263-.307-.878-.439-1.229a.329.329,0,0,1,.219-.044c.176,0,.307.439.527.746.4.571.966,1.185,1.58.307a1.164,1.164,0,0,0-.219-.263l-.176-.219c-.088-.132-.615-.658-.79-.878a1.164,1.164,0,0,0-1.449-.176,2.064,2.064,0,0,0-1.492,0l-1.1-.088a.175.175,0,0,1-.176-.088l.219-.088a1.817,1.817,0,0,0-1.536-1.58s-.044-.263-.176-.307l-.263.307c-.088,0-.132.044-.219.044l-1.1-.4.834.834s-.439.615-.527.7c-.088.132-.088.219,0,.307l.176.219a.26.26,0,0,0,.307.044l.176-.088c.088-.044.351.044.439-.044a3.5,3.5,0,0,0-.132.658l-.746-.088a.473.473,0,0,0-.351.088l-.615.483a.539.539,0,0,0-.132.7Zm6.014.176-.483,1.229h-.307l.483-1.185c.044-.132-.044-.219-.176-.4a5.876,5.876,0,0,0,.527.263.136.136,0,0,1-.044.088M33.6,48.468l-.132.088c-.088.044-.132.088-.219-.044l-.044-.088a.109.109,0,0,1,.044-.176l.615-.7-.571-.439.7.263.263-.307c.088.088.044.263.044.263a1.372,1.372,0,0,1,1.141,1.449.764.764,0,0,0,.439.307l1.229.088c.219,0,.7-.4,1.361,0A2.685,2.685,0,0,1,39,48.951a1.588,1.588,0,0,1,1.317.746c.219.307.571.746.571.746-.132.176-.263.219-.4.176a.5.5,0,0,1-.263-.4,1.353,1.353,0,0,0-.439-.571,1.84,1.84,0,0,1,.176.658c-.483-.483-.571-1.054-.922-1.141-.132-.044-.307.044-.483.219.176.4.176.834.351,1.141a1.33,1.33,0,0,0,.219.307c.132.088.044.307.044.439L39,52.419H38.69l.219-1.141c.044-.351-.878-.351-1.4-1.01-.439.483-1.58.351-2.107.307a.48.48,0,0,0-.527.176c-.044.132-.176.088-.263.044l-.922-.219c-.176-.044-.219,0-.307.132l-.176.4c-.044.088-.044.176.044.219l.088.088a.652.652,0,0,1-.219.307L32.9,51.5a.5.5,0,0,1-.044-.439l.307-.615a.2.2,0,0,1,.219-.132H34.52l-.351-.571c-.263-.439.176-1.185.088-1.536,0,.439-.571.219-.658.263m-1.229,1.449.527-.4c.088-.088.176-.132.263-.088l.746.088a1.169,1.169,0,0,0,.176.351l-.834-.176a.323.323,0,0,0-.263.088l-.4.307c-.088.044-.088.176-.044.263l.044.132-.263.219-.088-.176c-.044-.307-.044-.483.132-.615" transform="translate(-18.98 -27.442)" fill="#fff" fill-rule="evenodd"/>
      <path id="Path_113" data-name="Path 113" d="M37.707,19.943a5.291,5.291,0,0,0,.834.439V20.03L37.4,19.591a.761.761,0,0,0,.307.351" transform="translate(-21.992 -12.173)" fill="#fff" fill-rule="evenodd"/>
      <path id="Path_114" data-name="Path 114" d="M38.317,18.334v-.351L37,17.5a4.181,4.181,0,0,0,.483.4,5.291,5.291,0,0,0,.834.439" transform="translate(-21.768 -11.003)" fill="#fff" fill-rule="evenodd"/>
      <path id="Path_115" data-name="Path 115" d="M38.149,16.478v-.351L36.7,15.6a6.2,6.2,0,0,0,.615.439,5.291,5.291,0,0,0,.834.439" transform="translate(-21.6 -9.937)" fill="#fff" fill-rule="evenodd"/>
      <path id="Path_116" data-name="Path 116" d="M49.2,27.939h1.449a.671.671,0,0,0-.7-.439.778.778,0,0,0-.746.439" transform="translate(-28.613 -16.614)" fill="#fff" fill-rule="evenodd"/>
      <path id="Path_117" data-name="Path 117" d="M43.849,15.6l-1.449.527v.351a5.291,5.291,0,0,0,.834-.439l.615-.439" transform="translate(-24.798 -9.937)" fill="#fff" fill-rule="evenodd"/>
      <path id="Path_118" data-name="Path 118" d="M43.541,19.5l-1.141.439v.351a5.291,5.291,0,0,0,.834-.439c.307-.176.307-.351.307-.351" transform="translate(-24.798 -12.125)" fill="#fff" fill-rule="evenodd"/>
      <path id="Path_119" data-name="Path 119" d="M43.717,17.6l-1.317.483v.351A5.291,5.291,0,0,0,43.234,18c.307-.263.483-.4.483-.4" transform="translate(-24.798 -11.059)" fill="#fff" fill-rule="evenodd"/>
      <path id="Path_120" data-name="Path 120" d="M30.6,27.5c-.439,0-.658.219-.7.439h1.449A.778.778,0,0,0,30.6,27.5" transform="translate(-17.785 -16.614)" fill="#fff" fill-rule="evenodd"/>
      <path id="Path_121" data-name="Path 121" d="M35.513,11.48c0-.834-1.4-1.58-2.9-1.58-1.536,0-2.9.746-2.9,1.58l.044.219.615,3.512-2.9,1.712a1.757,1.757,0,0,0-.746,1.185h.527A1.172,1.172,0,0,1,28.49,17.1a1.891,1.891,0,0,1,1.449,1.01l.088.176.132.219H25.9a4.707,4.707,0,0,1,.615,2.019V29.39a3.337,3.337,0,0,0,3.643,3.38c1.449,0,1.668-.044,2.458.746.79-.79,1.01-.746,2.458-.746a3.337,3.337,0,0,0,3.643-3.38V20.479a4.707,4.707,0,0,1,.615-2.019H35.074l.132-.219.088-.176c.4-.571.79-1.01,1.449-1.01a1.172,1.172,0,0,1,1.229,1.01H38.5a1.757,1.757,0,0,0-.746-1.185l-2.9-1.712.615-3.512Zm-5.224.4,2.151.746V16l-1.58-.834Zm.527,7.2a2.128,2.128,0,0,0,1.273.79,1.067,1.067,0,0,0,.4.615,1.078,1.078,0,0,0,.834,1.317.954.954,0,0,0,.571.658l-.439.527a.547.547,0,0,1-.571.219l-2.019-.219c.088-.219-.132-.483-.79-.4l.79-2.239-.527-1.01-.878.79-.088,2.326-.4-.176c-.527-.219-.658.7-.176.7h.176c0,.088,0,.219.088.219-.088.044-.132.219,0,.263a.186.186,0,0,0-.044.307.4.4,0,0,0,.219.615c.307.088.483-.219.527-.439l3.117.966a1.126,1.126,0,0,0,1.141-.263l.834-.7c-.088.483.044.878.439,1.01,0,0-.044.439-.044.615H27.129V20.479a3.843,3.843,0,0,0-.307-1.4Zm3.38,1.931a1.013,1.013,0,0,0,.044,1.054l-.132.132c-.571-.088-.834-.966-.834-.966v.219a.772.772,0,0,1-.527-.834.742.742,0,0,0,.439.132l.044-.263a1,1,0,0,1-.746-.615h.176a3.412,3.412,0,0,0,.7-.088.981.981,0,0,0,.79.439.85.85,0,0,0,.044.79m.878,2.326-.132.263-.307.307a1.592,1.592,0,0,0-.571-1.273l.351-.351.088.088a.728.728,0,0,0,.571.966m-1.58-.132.263-.263a1.443,1.443,0,0,1,.527,1.273l-.307.263c-.044.044-.132.088-.176.132a1.563,1.563,0,0,0-.307-1.4m-.615.219h0a.747.747,0,0,0,.307-.044,1.558,1.558,0,0,1,.132,1.4c-.132,0-.263-.044-.4-.044l-.088-.044a1.819,1.819,0,0,0,.044-1.273m-.658-.088.4.044a2.244,2.244,0,0,1-.176,1.185L32,24.43a1.907,1.907,0,0,0,.219-1.1m-.79-.088.483.044a1.835,1.835,0,0,1-.219,1.054l-.483-.132a1.566,1.566,0,0,0,.219-.966m-1.888-.132c-.219.088-.307-.088-.307-.219a.668.668,0,0,1,.746.044,3.192,3.192,0,0,1,.351.4c-.044.176-.088.439-.132.571a.482.482,0,0,1-.307-.746c-.088-.088-.176-.088-.351-.044m-.307.834s.132.044.307.088c0,.088-.088.176-.176.132a.148.148,0,0,1-.132-.219m-.4-1.229c-.088-.088-.044-.219.044-.219a1.513,1.513,0,0,1,.483.219,2.082,2.082,0,0,1-.527,0m.439.878c.088.088.351.044.351.044v.044c-.088.219-.439.132-.351-.088m.351-.176c-.219.088-.4-.044-.351-.176.088.088.351.044.351.044Zm.307-2.326-.4,1.4.132-2.239.571-.527.307.658-.746,2.195.219-1.492c0-.088-.088-.088-.088,0m.044,1.712a2.519,2.519,0,0,1,.527.044c.088.044.044.176-.088.176a3.914,3.914,0,0,1-.439-.219m.658.307.483.044a1.38,1.38,0,0,1-.219.922l-.439-.132a4.663,4.663,0,0,0,.176-.834M38.1,29.346a2.575,2.575,0,0,1-1.317,2.37l.307-.615h-.307l-.4.79a4.138,4.138,0,0,1-1.317.219c-1.492,0-1.888.044-2.458.615-.571-.571-.966-.615-2.458-.615a4.138,4.138,0,0,1-1.317-.219h0l.4-.79h-.307l-.351.658a.96.96,0,0,1-.219-.132l.263-.571h-.263l-.219.439a2.549,2.549,0,0,1-1.01-2.151v-3.38H38.1Zm.307-10.272a3.843,3.843,0,0,0-.307,1.4v5.18h-.615a3.527,3.527,0,0,1-.483-1.141,1.43,1.43,0,0,0,.176,1.141h-.79a5.281,5.281,0,0,1-.351-1.185,1.4,1.4,0,0,0,.044,1.185H35.6a1.982,1.982,0,0,1,.088-.746c-.263-.044-.571-.176-.571-.483.132.132.176.132.4.132l.219-.176c-.746.044-.746-.79-.176-1.141-.571,0-1.01-.307-.79-.922-.4-.219-.571-.922-.263-1.185a1.028,1.028,0,0,1-.132-1.01,1.17,1.17,0,0,1-.79-.307h-.044a2.211,2.211,0,0,0,.878-.658H38.41Zm-2.195-2.5c-.615.088-1.1.834-1.536,1.492l-.044.088H34.2v.088a1.427,1.427,0,0,1-1.58,1.185,1.563,1.563,0,0,1-1.1-.351,1.456,1.456,0,0,1-.439-.615.477.477,0,0,1-.044-.219v-.088H30.6l-.044-.088c-.439-.658-.922-1.4-1.536-1.492l1.624-.922,1.975,1.1,1.975-1.1Zm-1.844-1.4L32.792,16v-3.38l2.151-.746Zm-1.756-2.941-2.37-.922c.219-.483,1.141-.878,2.37-.878s2.151.4,2.37.878Z" transform="translate(-15.541 -6.739)" fill="#fff" fill-rule="evenodd"/>
      <path id="Path_122" data-name="Path 122" d="M51.807,36.829v-.263c-.79,0-.966-.966-.966-.966a.985.985,0,0,0,.966,1.229" transform="translate(-29.508 -21.158)" fill="#fff" fill-rule="evenodd"/>
      <path id="Path_123" data-name="Path 123" d="M49.431,40.485l-.088-.263c-.658.176-1.01-.922-1.01-.922a.911.911,0,0,0,1.1,1.185" transform="translate(-28.097 -23.234)" fill="#fff" fill-rule="evenodd"/>
      <path id="Path_124" data-name="Path 124" d="M50.424,38.634c-.79.132-1.141-.834-1.141-.834a.927.927,0,0,0,.79,1.1c-.132.658.483,1.01,1.054.79l-.088-.219a.541.541,0,0,1-.615-.834" transform="translate(-28.652 -22.392)" fill="#fff" fill-rule="evenodd"/>
      <path id="Path_125" data-name="Path 125" d="M49.507,32.029v-.263c-1.054-.219-.966-.966-.966-.966a.969.969,0,0,0,.966,1.229" transform="translate(-28.218 -18.465)" fill="#fff" fill-rule="evenodd"/>
      <path id="Path_126" data-name="Path 126" d="M34.951,58.1l-.351.79h.263l.4-.79Z" transform="translate(-20.422 -33.782)" fill="#fff" fill-rule="evenodd"/>
      <path id="Path_127" data-name="Path 127" d="M36.251,58.1l-.351.79h.263l.4-.79Z" transform="translate(-21.151 -33.782)" fill="#fff" fill-rule="evenodd"/>
      <path id="Path_128" data-name="Path 128" d="M41.5,58.1l-.4.79h.307l.4-.79Z" transform="translate(-24.068 -33.782)" fill="#fff" fill-rule="evenodd"/>
      <path id="Path_129" data-name="Path 129" d="M42.8,58.1l-.4.79h.307l.4-.79Z" transform="translate(-24.798 -33.782)" fill="#fff" fill-rule="evenodd"/>
      <path id="Path_130" data-name="Path 130" d="M40.2,58.1l-.4.79h.307l.351-.79Z" transform="translate(-23.339 -33.782)" fill="#fff" fill-rule="evenodd"/>
      <path id="Path_131" data-name="Path 131" d="M48.4,58.89h.263l.4-.79h-.307Z" transform="translate(-28.164 -33.782)" fill="#fff" fill-rule="evenodd"/>
      <path id="Path_132" data-name="Path 132" d="M37.6,58.1l-.4.79h.263l.4-.79Z" transform="translate(-21.88 -33.782)" fill="#fff" fill-rule="evenodd"/>
      <path id="Path_133" data-name="Path 133" d="M38.9,58.1l-.4.79h.307l.351-.79Z" transform="translate(-22.61 -33.782)" fill="#fff" fill-rule="evenodd"/>
      <path id="Path_134" data-name="Path 134" d="M36.288,48.6c-.044,0-.088.044-.088.132,0,.044.044.132.088.132s.088-.044.088-.132-.044-.132-.088-.132" transform="translate(-21.319 -28.452)" fill="#fff" fill-rule="evenodd"/>
      <path id="Path_135" data-name="Path 135" d="M36.936,5.726a4.072,4.072,0,0,1,2.634.834,5.709,5.709,0,0,1,.7-1.756l-.966.088-.483-1.054-.966.483L36.936,3.4l-.922.922-.966-.483-.483,1.054L33.6,4.8a5.709,5.709,0,0,1,.7,1.756,4.072,4.072,0,0,1,2.634-.834M34.7,5.288l.439-.966.834.439.922-.922.922.922.834-.439.439.966.571-.088a4.757,4.757,0,0,0-.351.834,4.723,4.723,0,0,0-2.37-.615,5.03,5.03,0,0,0-2.414.615,3.667,3.667,0,0,0-.351-.834Z" transform="translate(-19.861 -3.093)" fill="#fff" fill-rule="evenodd"/>
      <path id="Path_136" data-name="Path 136" d="M43.119,3.446a.246.246,0,0,0,.263-.219,2.406,2.406,0,0,0-.176-.527s-.307.307-.307.483a.278.278,0,0,0,.219.263" transform="translate(-25.078 -2.7)" fill="#fff" fill-rule="evenodd"/>
      <path id="Path_137" data-name="Path 137" d="M46.829,4.915c.132.088.263,0,.351-.088a1.185,1.185,0,0,0,.044-.527,1.658,1.658,0,0,0-.483.307c-.088.088-.044.219.088.307" transform="translate(-27.208 -3.598)" fill="#fff" fill-rule="evenodd"/>
      <path id="Path_138" data-name="Path 138" d="M38.656,3.446a.22.22,0,0,0,.219-.263c0-.132-.307-.483-.307-.483s-.219.351-.176.527a.246.246,0,0,0,.263.219" transform="translate(-22.546 -2.7)" fill="#fff" fill-rule="evenodd"/>
      <path id="Path_139" data-name="Path 139" d="M34.881,4.858a.237.237,0,0,0,.088-.351c-.044-.132-.483-.307-.483-.307s-.044.439.044.527a.294.294,0,0,0,.351.132" transform="translate(-20.351 -3.542)" fill="#fff" fill-rule="evenodd"/>
      <path id="Path_140" data-name="Path 140" d="M72.041,19.465a1.3,1.3,0,0,0,.7-.746c-.834-.132-3.117-1.054-4.96-.307.7-.658,1.317-.746,1.361-1.712a.674.674,0,0,0,1.054-.176c-.176-.571-.658-.088-.746-.263-.088-.219.615.088.746-.658-.527-.176-.7.263-.79.176s.351-.307.044-.878c-.571.351-.263.7-.4.746s-.044-.4-.658-.4c-.044.658.571.7.483.79-.132.132-.307-.4-.79-.132a.7.7,0,0,0,.922.7c-.088,1.054-1.01.834-1.712,2.019,1.492.79,2.195,2.107,3.117,3.029a5.436,5.436,0,0,0,.834-1.185,1.2,1.2,0,0,0,1.712,0c-.4-.263-.4-.527-.922-1.01m-1.449.176a1.728,1.728,0,0,1-.176,1.624,7.6,7.6,0,0,0-1.931-2.5c-.132-.088.088-.263.439-.307a7.428,7.428,0,0,1,3.161.439,1.712,1.712,0,0,1-.834.351,6,6,0,0,1,1.054,1.1c-.483.176-.746-.132-1.712-.7" transform="translate(-38.768 -9.545)" fill="#fff" fill-rule="evenodd"/>
      <path id="Path_141" data-name="Path 141" d="M37.976,63.573V62.3a11.5,11.5,0,0,1-3.819.966l-.088.439c.132,0,.307.044.527.044a12.364,12.364,0,0,1-3.6,0c.219,0,.4-.044.527-.044l-.088-.439a11.5,11.5,0,0,1-3.819-.966v1.273L26.3,64.1a15.508,15.508,0,0,0,3.424,1.273l-.132.527A11.916,11.916,0,0,0,36,65.9l-.176-.527A15.508,15.508,0,0,0,39.249,64.1Zm-10.886.571.878-.351V62.739a14.738,14.738,0,0,0,2.414.658l-.527,1.668a15.658,15.658,0,0,1-2.765-.922m5.75,1.888a11.812,11.812,0,0,1-2.853-.351l.527-1.756A11.747,11.747,0,0,0,32.8,64.1a11.746,11.746,0,0,0,2.283-.176l.527,1.756a10.575,10.575,0,0,1-2.765.351m2.941-.966L35.255,63.4a14.738,14.738,0,0,0,2.414-.658v1.054l.878.351a13.535,13.535,0,0,1-2.765.922" transform="translate(-15.765 -36.138)" fill="#fff" fill-rule="evenodd"/>
      <path id="Path_142" data-name="Path 142" d="M3.968,20.675A5.436,5.436,0,0,0,4.8,21.86c.922-.922,1.58-2.283,3.117-3.029-.7-1.185-1.668-.966-1.712-2.019a.729.729,0,0,0,.922-.7c-.483-.263-.658.263-.79.132-.088-.088.527-.132.483-.79-.615,0-.527.439-.658.4s.176-.439-.4-.746c-.307.615.132.79.044.878s-.263-.351-.79-.176c.132.746.834.439.746.658-.088.176-.527-.307-.746.263a.674.674,0,0,0,1.054.176c.044.966.7,1.01,1.361,1.712-1.844-.79-4.082.176-4.96.307a1.457,1.457,0,0,0,.7.746c-.527.483-.527.746-.878,1.1a1.39,1.39,0,0,0,1.668-.088M2.958,20.5a6,6,0,0,1,1.054-1.1,1.559,1.559,0,0,1-.834-.351,7.319,7.319,0,0,1,3.161-.439c.4.044.571.219.439.307A6.529,6.529,0,0,0,4.8,21.377a1.728,1.728,0,0,1-.176-1.624c-.966.571-1.229.878-1.668.746" transform="translate(-2.3 -9.657)" fill="#fff" fill-rule="evenodd"/>
      <path id="Path_143" data-name="Path 143" d="M39.4,26.144v.571a.722.722,0,0,1,.571-.176v.79a1.221,1.221,0,0,1-.132.571h.79a1.221,1.221,0,0,1-.132-.571V26.5a.755.755,0,0,1,.571.176V26.1H39.4Z" transform="translate(-23.115 -15.828)" fill="#fff" fill-rule="evenodd"/>
    </g>
    <g id="Group_13" data-name="Group 13" transform="translate(215.305 -100.9)">
      <path id="Path_144" data-name="Path 144" d="M35.812,11.776a.787.787,0,0,1-.219-.307.96.96,0,0,1-.132-.219,2.489,2.489,0,0,0,.351-.571l.351-.834-.878-.132c-.132-.044-.4-.088-.658-.176a15.636,15.636,0,0,0-1.975-.4,1.2,1.2,0,0,0,.615-.615l.132-.263a1.066,1.066,0,0,0-.176-.483,4.145,4.145,0,0,0,.132-.4l.132-.571-.571-.176c-.088-.044-.176-.044-.263-.088A3.024,3.024,0,0,1,32.52,6.2l-.351-.615-.615.351a2.412,2.412,0,0,0-.4.307c-.088,0-.176-.044-.307-.044a1.878,1.878,0,0,0-.746.088l-.483-.527-.571-.615a1.828,1.828,0,0,0-2.019-.483,1.984,1.984,0,0,0-1.4-.527c-.219,0-.439.044-.571.044a3.548,3.548,0,0,0-1.492.658l-.658-.307a2.312,2.312,0,0,1-1.185.922,1.36,1.36,0,0,0-.263-.571l.044-.219a4.271,4.271,0,0,1,.571-1.492l.79-1.185-1.1.132v-.4L21.677.8l-.834.4a.361.361,0,0,1-.219.219l-.176-.351-.4.219a3.024,3.024,0,0,0-.132-.351L19.483.1l-.658.7c-.044.088-.132.132-.176.219l-.4-.4-.4.4C17.815.978,17.771.89,17.683.8L17.024.1l-.439.834a1.314,1.314,0,0,0-.176.351l-.4-.219-.176.351-.263-.132L14.7.89V2.207l-1.1-.132.79,1.185a4.608,4.608,0,0,1,.571,1.492l.044.219a1.36,1.36,0,0,0-.263.571,3.459,3.459,0,0,1-1.185-.922l-.658.4a3.381,3.381,0,0,0-2.019-.746,1.745,1.745,0,0,0-1.4.527,1.757,1.757,0,0,0-2.019.483s-.351.4-.571.615a3.871,3.871,0,0,1-.571.439,3.065,3.065,0,0,0-.966,0,.956.956,0,0,0-.4-.307l-.615-.351-.351.615c-.044.132-.132.219-.132.351a.624.624,0,0,0-.263.088L3.022,6.9l.132.571.132.4c0,.044-.044.088-.044.176l-.088.263.132.263a1.387,1.387,0,0,0,.615.615,15.636,15.636,0,0,0-1.975.4c-.263.088-.527.132-.658.176l-.878.132.219.439.176.351a2.489,2.489,0,0,0,.351.571,2.063,2.063,0,0,1-.4.527L.3,12.215l.439.483a1.87,1.87,0,0,0,1.317.571,1.4,1.4,0,0,0,.615-.132,4.6,4.6,0,0,0,.658.834A4.329,4.329,0,0,1,1.792,15.2l-.571.263.219.658a1.558,1.558,0,0,0,1.054.966,5.656,5.656,0,0,0-.219,1.054c-.132.746-.176,1.1-.834,1.317l-.615.219L1,20.292a2.367,2.367,0,0,0,.571,1.054l-.4.439a4.606,4.606,0,0,0,1.888.79,1.546,1.546,0,0,0,1.141-.4,5.867,5.867,0,0,0,.571,1.4c.439.878.658,1.4.351,1.888l-.615,1.1,1.229-.044a7.731,7.731,0,0,0,1.492-.176v.088l-.088.922,1.1-.219a2.14,2.14,0,0,0,.307-.132,4.346,4.346,0,0,0,3.38,1.4h.088l-1.8.746,1.317.658a14.762,14.762,0,0,0,2.9,1.141l-.219.483.658.176a11.656,11.656,0,0,0,3.38.483,11.365,11.365,0,0,0,3.38-.483l.658-.176-.176-.483a15.939,15.939,0,0,0,2.9-1.141l1.317-.658-1.8-.746h.088a4.416,4.416,0,0,0,3.38-1.4c.088.044.219.088.307.132l1.1.219-.088-.922V26.35a12.723,12.723,0,0,0,1.492.176l1.229.044-.615-1.054c-.263-.483-.044-1.01.351-1.888a7.849,7.849,0,0,0,.571-1.4,1.67,1.67,0,0,0,.746.351,2.426,2.426,0,0,0,.4.044,1.681,1.681,0,0,0,1.185-.4l.7-.439-.4-.439a2.14,2.14,0,0,0,.571-1.054l.176-.615-.615-.219c-.658-.219-.7-.571-.834-1.317-.044-.307-.132-.7-.219-1.054a1.66,1.66,0,0,0,1.054-.966l.219-.658-.571-.263a4.329,4.329,0,0,1-1.536-1.229,3.5,3.5,0,0,0,.7-.834,1.723,1.723,0,0,0,.615.132h0a1.87,1.87,0,0,0,1.317-.571l.439-.483Z" transform="translate(-0.3 -0.1)" fill="#fff"/>
      <path id="Path_145" data-name="Path 145" d="M28.307,37.341V32.2A3.843,3.843,0,0,0,28,30.8h3.995a2.152,2.152,0,0,0,1.8.834,2.345,2.345,0,0,0,1.8-.834h3.995a3.843,3.843,0,0,0-.307,1.4v5.18H28.307Zm5.487,7.067c-.571-.571-.966-.615-2.458-.615a2.726,2.726,0,0,1-3.029-2.765v-3.38H39.281v3.38a2.726,2.726,0,0,1-3.029,2.765c-1.492,0-1.888.088-2.458.615" transform="translate(-15.841 -17.324)" fill="#fff" fill-rule="evenodd"/>
      <path id="Path_146" data-name="Path 146" d="M28.978,63.3v1.054L28.1,64.7a12.4,12.4,0,0,0,2.809.922l.527-1.668a15.509,15.509,0,0,1-2.458-.658" transform="translate(-15.897 -35.558)" fill="#fff"/>
      <path id="Path_147" data-name="Path 147" d="M37.609,66.276a11.747,11.747,0,0,1-2.283-.176L34.8,67.856a11.54,11.54,0,0,0,2.853.351,11.812,11.812,0,0,0,2.853-.351L39.98,66.1a20.354,20.354,0,0,1-2.37.176" transform="translate(-19.656 -37.129)" fill="#fff"/>
      <path id="Path_148" data-name="Path 148" d="M49.214,63.3a14.739,14.739,0,0,1-2.414.658l.527,1.668a21.113,21.113,0,0,0,2.809-.922l-.878-.351V63.3Z" transform="translate(-26.388 -35.558)" fill="#fff"/>
      <path id="Path_149" data-name="Path 149" d="M13.95,18.106c1.4-.746,4.829-2.414,2.5-4.214-.307-.263-.658-.483-.966-.746-.351.263.132.966.263,1.229,0,0-.79.088-.966.088-1.185,0-2.458-.7-1.8-2.063-.483.088-.527.571-.658.966-.307-.219-.834-.658-1.229-.571a4.059,4.059,0,0,0,2.809,2.239c-1.1.615-3.117,1.054-4.17-.263-.746,1.449.307,2.063,1.317,2.809-3.907,1.8-3.336,3.775-5.882,5.355A6.436,6.436,0,0,0,7.1,22.759a5.417,5.417,0,0,0-1.01,1.317,6.8,6.8,0,0,0-.4,1.492,2.209,2.209,0,0,1-1.1,1.668c.307.527.966.132,1.229.044a3.453,3.453,0,0,1-.4,1.01c1.317-.088.7-2.853,2.019-2.195a.721.721,0,0,1,.307.966c-.878,1.8,1.1,3.336,1.01,4.916a1.23,1.23,0,0,0,1.317-.658,6.423,6.423,0,0,1,.571,1.229l.4-.658a2.927,2.927,0,0,0,2.678,2.239c-.658-1.054.132-2.5-1.492-4.038a6.419,6.419,0,0,0,.834-.7c-1.975.219-4.038-1.317-3.117-2.063.615-.483.878.527,1.844.351l-.351-.307a4.139,4.139,0,0,1,.439-.439,2.49,2.49,0,0,1-.834-.307l.219-.4c-2.326,0-2.37-1.8-1.449-1.844.439-.044,1.01.79,2.458.615a3.118,3.118,0,0,1-.351-.79,4.765,4.765,0,0,0,1.1-.176,2.445,2.445,0,0,1-1.449-.746l.658-.263c-.966-.483-.922-1.361-.966-2.239.527.307,1.1.746,1.756.527.132-.044.263-.132.263-.263-.966-.351-1.536-1.756.658-2.941m-1.668.132c-1.229,1.317-.7,2.107-.439,2.326-.439-.088-1.141-.7-.966-1.229a6.452,6.452,0,0,0-.439.571c-.307.4-.571.79-.834,1.185a2.342,2.342,0,0,0,1.449,2.765A2.226,2.226,0,0,1,9.165,21.75a6.378,6.378,0,0,0-.878,3.117,5.479,5.479,0,0,0,.088.922A1.8,1.8,0,0,0,10,26.666c-.79.044-1.185,0-1.492-.351.527,2.239,2.985,4.214,3.951,5.882-1.01-1.317-3.073-3.248-3.775-4.653a4.286,4.286,0,0,0,.7,2.59,3.885,3.885,0,0,1-.922-3.117,5.453,5.453,0,0,1-.4-1.975,10.78,10.78,0,0,1,.132-1.8c-.571.834-1.449,1.141-1.844,2.414.088-1.624,1.317-1.668,2.195-3.643A12.873,12.873,0,0,1,10,19.555a3.933,3.933,0,0,0-2.107,1.317c.615-1.4,4.038-2.985,5.575-4.521a6.133,6.133,0,0,1-3.2-.4,9.681,9.681,0,0,0,5.882-.878c-.834,1.229-2.678,1.273-4.916,3.687.307-.132.7-.4,1.054-.527" transform="translate(-2.712 -7.001)" fill="#fff"/>
      <path id="Path_150" data-name="Path 150" d="M60.6,25.513a4.586,4.586,0,0,0-.4-1.492,10.641,10.641,0,0,0-.966-1.361c.132,0,1.624.351,1.931.176-2.546-1.58-1.975-3.556-5.882-5.355,1.01-.746,2.063-1.361,1.317-2.809-1.054,1.273-3.117.834-4.17.263A4.059,4.059,0,0,0,55.247,12.7c-.4-.044-.922.4-1.229.571-.132-.4-.219-.834-.658-.966.615,1.361-.615,2.063-1.8,2.063-.176,0-.966-.088-.966-.088.132-.263.615-.966.263-1.229-.307.263-.658.483-.966.746-2.326,1.8,1.1,3.468,2.5,4.214,2.195,1.185,1.624,2.59.7,2.985,0,.176.088.219.263.263.658.219,1.229-.263,1.756-.527-.044.878.044,1.756-.966,2.239l.658.263a2.445,2.445,0,0,1-1.449.746,2.317,2.317,0,0,0,1.1.176,2.56,2.56,0,0,1-.351.79c1.449.176,2.019-.658,2.458-.615.922.088.878,1.844-1.449,1.844l.219.4a2.49,2.49,0,0,1-.834.307l.439.439-.351.307c.966.176,1.229-.834,1.844-.351.922.746-1.141,2.326-3.117,2.063a6.419,6.419,0,0,0,.834.7c-1.624,1.536-.834,2.985-1.492,4.038a2.921,2.921,0,0,0,2.678-2.239l.4.658a7.977,7.977,0,0,1,.571-1.229c.307.658.834.658,1.317.658-.219-1.492,1.756-3.073.878-4.829a.721.721,0,0,1,.307-.966c1.317-.658.7,2.107,2.019,2.195a3.505,3.505,0,0,1-.351-1.054c.263.088.922.483,1.229-.044a2.168,2.168,0,0,1-1.1-1.712m-2.458-2.239a7.708,7.708,0,0,1,.132,1.8,6.569,6.569,0,0,1-.4,1.975,4.1,4.1,0,0,1-.922,3.117,4.358,4.358,0,0,0,.7-2.59c-.746,1.4-2.809,3.336-3.775,4.653,1.01-1.668,3.468-3.643,3.995-5.882-.351.351-.746.4-1.492.351a1.8,1.8,0,0,0,1.624-.878A6.549,6.549,0,0,0,58.1,24.9a6.26,6.26,0,0,0-.878-3.117,2.149,2.149,0,0,1-1.844,2.063,2.3,2.3,0,0,0,1.449-2.765,9.758,9.758,0,0,0-.834-1.185c-.132-.176-.307-.4-.439-.571.176.571-.527,1.141-.966,1.229.263-.263.79-1.01-.439-2.326a7.73,7.73,0,0,1,1.01.615c-2.239-2.414-4.038-2.458-4.916-3.687a9.681,9.681,0,0,0,5.882.878,6.133,6.133,0,0,1-3.2.4c1.58,1.536,5,3.117,5.575,4.521a3.787,3.787,0,0,0-2.107-1.317,12.873,12.873,0,0,1,1.449,2.458c.922,1.975,2.151,2.019,2.195,3.643-.483-1.317-1.317-1.624-1.888-2.458" transform="translate(-27.68 -6.945)" fill="#fff"/>
      <path id="Path_151" data-name="Path 151" d="M37.736,30.8a2.485,2.485,0,0,1-2.326.79.887.887,0,0,0,.4.615,1.078,1.078,0,0,0,.834,1.317.954.954,0,0,0,.571.658l-.439.527a.547.547,0,0,1-.571.219l-2.019-.219c.088-.219-.132-.483-.79-.351l.79-2.239-.527-1.054-.878.79-.088,2.326-.4-.176c-.527-.219-.658.7-.176.7h.176c0,.088,0,.219.088.219-.088.044-.132.219,0,.263a.186.186,0,0,0-.044.307.4.4,0,0,0,.219.615c.307.088.483-.219.527-.439l3.117.966a1.126,1.126,0,0,0,1.141-.263l.834-.7c-.088.483.044.878.439,1.01,0,0-.044.439-.044.615h2.809V32.2a3.843,3.843,0,0,1,.307-1.4H37.736Z" transform="translate(-17.983 -17.324)" fill="#fff"/>
      <path id="Path_152" data-name="Path 152" d="M34.129,48.749l.044.088c.088.088.132.088.219.044l.132-.088c.088-.088.658.176.7-.351.044.351-.351,1.141-.088,1.536l.351.571H34.349a.274.274,0,0,0-.219.132l-.307.615c-.088.176-.088.351.044.439l.219.219a.652.652,0,0,0,.219-.307l-.088-.088c-.088-.088-.088-.132-.044-.219l.176-.4c.088-.132.132-.176.307-.132l.922.219c.088,0,.176.044.263-.044.132-.219.307-.219.527-.176.527.088,1.668.219,2.107-.307.483.658,1.449.658,1.4,1.01l-.219,1.141h.307l.176-1.141c0-.132.088-.307-.044-.439a1.33,1.33,0,0,1-.219-.307c-.176-.307-.176-.746-.351-1.141.176-.176.351-.263.483-.219.351.088.439.658.922,1.141a3.657,3.657,0,0,0-.176-.658,1.353,1.353,0,0,1,.439.571.639.639,0,0,0,.263.4c.132.044.263,0,.4-.176,0,0-.307-.439-.527-.746a1.588,1.588,0,0,0-1.317-.746.912.912,0,0,0-.527.219,1.709,1.709,0,0,0-1.361,0l-1.229-.088c-.263,0-.439-.307-.439-.307a1.444,1.444,0,0,0-1.141-1.449s.044-.176-.044-.263l-.263.307-.7-.263.571.439-.615.7c-.176.132-.176.219-.132.263" transform="translate(-19.073 -26.581)" fill="#fff"/>
      <path id="Path_153" data-name="Path 153" d="M32.624,53.171c-.176.132-.176.307-.044.527l.088.176.263-.219-.044-.132a.207.207,0,0,1,.044-.263l.4-.307c.088-.088.132-.088.263-.088l.834.176a1.169,1.169,0,0,1-.176-.351L33.5,52.6a.624.624,0,0,0-.263.088Z" transform="translate(-18.358 -29.555)" fill="#fff"/>
      <path id="Path_154" data-name="Path 154" d="M44.6,57.38h.307l.483-1.229c0-.044.044-.044.044-.088a1.973,1.973,0,0,1-.527-.263c.132.176.219.219.176.4Z" transform="translate(-25.154 -31.35)" fill="#ced3d6"/>
      <path id="Path_155" data-name="Path 155" d="M43.18,17.692l.571-3.292-2.151.746v3.38Zm-1.229-2.239,1.449-.527a6.2,6.2,0,0,1-.615.439,5.291,5.291,0,0,1-.834.439Zm0,.79,1.317-.483a4.18,4.18,0,0,1-.483.4,5.291,5.291,0,0,1-.834.439Zm0,.878,1.141-.439s0,.132-.351.351a5.291,5.291,0,0,1-.834.439v-.351Z" transform="translate(-23.471 -8.123)" fill="#fff"/>
      <path id="Path_156" data-name="Path 156" d="M34.492,25.414l.044.088h.439v.088c0,.088.044.132.044.219a1.456,1.456,0,0,0,.439.615,1.643,1.643,0,0,0,1.1.351,1.459,1.459,0,0,0,1.58-1.185V25.5h.439l.044-.088c.439-.658.922-1.4,1.536-1.492L38.531,23l-1.975,1.1L34.58,23,33,23.922c.571.088,1.1.834,1.492,1.492" transform="translate(-18.646 -12.948)" fill="#fff"/>
      <path id="Path_157" data-name="Path 157" d="M38.051,18.526v-3.38L35.9,14.4l.571,3.292ZM37.7,17.473a5.291,5.291,0,0,1-.834-.439c-.351-.219-.351-.351-.351-.351l1.141.439v.351Zm0-2.019V15.8a5.291,5.291,0,0,1-.834-.439,6.2,6.2,0,0,1-.615-.439Zm0,.79v.351a5.291,5.291,0,0,1-.834-.439,2.48,2.48,0,0,1-.483-.351Z" transform="translate(-20.273 -8.123)" fill="#fff"/>
      <path id="Path_158" data-name="Path 158" d="M38.17,11.1c-1.229,0-2.151.4-2.37.878l2.37.922,2.37-.922c-.219-.483-1.141-.878-2.37-.878" transform="translate(-20.217 -6.271)" fill="#fff"/>
      <path id="Path_159" data-name="Path 159" d="M37.665,5.98a5.03,5.03,0,0,1,2.414.615,3.667,3.667,0,0,1,.351-.834l-.571.088-.439-.966-.834.439L37.665,4.4l-.922.922-.834-.439-.439.966L34.9,5.761a4.757,4.757,0,0,1,.351.834,5.03,5.03,0,0,1,2.414-.615" transform="translate(-19.712 -2.512)" fill="#fff"/>
      <path id="Path_160" data-name="Path 160" d="M72.61,23.918a1.559,1.559,0,0,0,.834-.351,7.319,7.319,0,0,0-3.161-.439c-.4.044-.571.219-.439.307a6.482,6.482,0,0,1,1.931,2.458,1.728,1.728,0,0,0,.176-1.624c.966.571,1.229.878,1.668.746a3.285,3.285,0,0,0-1.01-1.1" transform="translate(-39.293 -12.988)" fill="#fff"/>
      <path id="Path_161" data-name="Path 161" d="M5.588,25.794a6.935,6.935,0,0,1,1.931-2.458c.132-.088-.088-.263-.439-.307a7.428,7.428,0,0,0-3.161.439,1.712,1.712,0,0,0,.834.351,4.875,4.875,0,0,0-1.054,1.1c.439.132.7-.176,1.668-.746a1.911,1.911,0,0,0,.219,1.624" transform="translate(-2.208 -12.932)" fill="#fff"/>
      <path id="Path_162" data-name="Path 162" d="M11.955,29.585c.439-.351.834-.527.79-1.4a3.144,3.144,0,0,1-3.38-.79c-.219-.307,0-.483.219-.219.527.615,1.536.351,1.931.176a1.415,1.415,0,0,0-.351-.615c.132-.132.527-.351.615-.7a3.7,3.7,0,0,0-1.01-.176.634.634,0,0,0,.176-.746,2.242,2.242,0,0,1-2.063-.4c-.219-.307,0-.571.176-.4.4.439,2.458.922,3.2.176a1.6,1.6,0,0,1-.658-.483c.7-.088,1.273-.483,1.317-1.01a3.286,3.286,0,0,1-1.361-.219.93.93,0,0,0,.658-.615,1.342,1.342,0,0,1-1.4-1.185c.834.483,2.283.263,1.931-.922-.7-.044-1.4-1.141.527-2.195,1.712-.922,3.687-1.975,3.512-3.643-.132-1.054-1.888-1.8-2.107-2.326-.746.351-.878.746-.571,1.449,0,0-1.624.176-1.756-.834a1.614,1.614,0,0,1,.571-1.185c-.176,0-1.4-.351-1.8.658a1.236,1.236,0,0,0-1.756.044c.746.439,1.185,1.931,2.414,2.414a2.346,2.346,0,0,1-3.117-1.185c-.79,1.185-1.229,2.326.439,3.6-3.029,1.4-3.029,4.038-5.663,5.311.263.7.834.7,1.536.615C3.834,24.274,4.8,25.81,3,26.469c.176.615.527,1.1,1.185.922-.176.307-.307.307-.615.615,1.01.615,2.151.176,2.414-1.844.044-.351.527-.132.351.219-1.141,2.326,1.712,4.082.7,5.794a3.525,3.525,0,0,0,1.931-.4,1.884,1.884,0,0,1,.263,1.054.79.79,0,0,0,.7-.746,3.356,3.356,0,0,0,3.292,1.931c-.79-1.449.088-2.853-1.273-4.434m-1.8,1.712-.4.658a7.977,7.977,0,0,0-.571-1.229c-.307.658-.834.658-1.317.658.088-1.58-1.844-3.117-1.01-4.916a.721.721,0,0,0-.307-.966c-1.317-.658-.7,2.107-2.019,2.195a3.453,3.453,0,0,0,.4-1.01c-.263.088-.966.483-1.229-.044a2.283,2.283,0,0,0,1.1-1.668,6.659,6.659,0,0,1,.4-1.536,10.639,10.639,0,0,1,.966-1.361c-.132,0-1.624.351-1.931.176C6.775,20.674,6.2,18.7,10.111,16.9c-1.01-.746-2.063-1.361-1.317-2.809,1.054,1.273,3.073.834,4.17.263a4.059,4.059,0,0,1-2.809-2.239c.4-.044.922.4,1.229.571.132-.4.219-.834.658-.966-.615,1.361.615,2.063,1.8,2.063.176,0,.966-.088.966-.088-.132-.263-.615-.966-.263-1.229.307.263.658.483.966.746,2.326,1.8-1.1,3.468-2.5,4.214-2.195,1.185-1.624,2.59-.7,2.985,0,.176-.088.219-.263.263-.658.219-1.229-.263-1.756-.527.044.878-.044,1.756.966,2.239l-.658.263a2.445,2.445,0,0,0,1.449.746,2.317,2.317,0,0,1-1.1.176,2.56,2.56,0,0,0,.351.79c-1.449.176-2.019-.658-2.458-.615-.922.088-.878,1.844,1.449,1.844l-.219.4a2.49,2.49,0,0,0,.834.307,4.139,4.139,0,0,0-.439.439l.351.307c-.966.176-1.229-.834-1.844-.351-.922.746,1.141,2.326,3.117,2.063a6.419,6.419,0,0,1-.834.7c1.624,1.536.834,2.985,1.492,4.038a2.778,2.778,0,0,1-2.59-2.195" transform="translate(-1.815 -6.364)" fill-rule="evenodd"/>
      <path id="Path_163" data-name="Path 163" d="M10.707,29.894c.351.351.746.4,1.492.351a1.8,1.8,0,0,1-1.624-.878,6.549,6.549,0,0,1-.088-.922,6.26,6.26,0,0,1,.878-3.117,2.149,2.149,0,0,0,1.844,2.063,2.3,2.3,0,0,1-1.449-2.765,9.758,9.758,0,0,1,.834-1.185c.132-.176.307-.4.439-.571-.088.571.571,1.141,1.01,1.229-.263-.263-.79-1.01.439-2.326a7.731,7.731,0,0,0-1.01.615c2.239-2.414,4.038-2.458,4.916-3.687a9.681,9.681,0,0,1-5.882.878,6.133,6.133,0,0,0,3.2.4c-1.58,1.536-5,3.117-5.575,4.521a3.787,3.787,0,0,1,2.107-1.317,12.873,12.873,0,0,0-1.449,2.458c-.922,1.975-2.151,2.019-2.195,3.643.4-1.273,1.273-1.58,1.844-2.414a11.159,11.159,0,0,0-.132,1.8,5.453,5.453,0,0,0,.4,1.975,4.1,4.1,0,0,0,.922,3.117,4.358,4.358,0,0,1-.7-2.59c.746,1.4,2.809,3.336,3.775,4.653-1.01-1.712-3.468-3.687-3.995-5.926" transform="translate(-4.957 -10.535)" fill-rule="evenodd"/>
      <path id="Path_164" data-name="Path 164" d="M57.745,23.177a3.933,3.933,0,0,1,2.107,1.317c-.571-1.4-4.038-2.985-5.575-4.521a6.133,6.133,0,0,0,3.2-.4A9.681,9.681,0,0,1,51.6,18.7c.834,1.229,2.678,1.273,4.916,3.687a7.731,7.731,0,0,0-1.01-.615c1.229,1.317.7,2.107.439,2.326.439-.088,1.141-.7.966-1.229a6.453,6.453,0,0,1,.439.571c.307.4.571.79.834,1.185a2.342,2.342,0,0,1-1.449,2.765,2.139,2.139,0,0,0,1.844-2.063,6.378,6.378,0,0,1,.878,3.117,5.479,5.479,0,0,1-.088.922,1.8,1.8,0,0,1-1.624.878c.79.044,1.185,0,1.492-.351-.527,2.239-2.985,4.214-3.995,5.882,1.01-1.317,3.073-3.248,3.775-4.653a4.286,4.286,0,0,1-.7,2.59,3.885,3.885,0,0,0,.922-3.117,5.453,5.453,0,0,0,.4-1.975,7.521,7.521,0,0,0-.132-1.8c.571.834,1.449,1.141,1.844,2.414-.088-1.624-1.317-1.668-2.195-3.643a13.732,13.732,0,0,0-1.4-2.414" transform="translate(-29.081 -10.535)" fill-rule="evenodd"/>
      <path id="Path_165" data-name="Path 165" d="M59.494,22.581c.7.132,1.273.132,1.536-.615C58.4,20.694,58.4,18.06,55.368,16.655c1.668-1.229,1.229-2.414.439-3.6a2.346,2.346,0,0,1-3.117,1.185c1.229-.439,1.668-1.975,2.414-2.414a1.236,1.236,0,0,0-1.756-.044c-.351-1.01-1.58-.658-1.8-.658a1.614,1.614,0,0,1,.571,1.185c-.132,1.01-1.756.834-1.756.834.307-.658.176-1.1-.571-1.449-.219.527-1.975,1.273-2.107,2.326-.176,1.668,1.8,2.678,3.512,3.643,1.888,1.054,1.185,2.151.527,2.195-.4,1.185,1.1,1.4,1.931.922,0,.176-.132,1.1-1.4,1.185.088.4.307.483.658.615a3.286,3.286,0,0,1-1.361.219c.044.527.615.922,1.317,1.01a1,1,0,0,1-.658.483c.746.746,2.765.263,3.2-.176.176-.219.439.088.176.4a2.276,2.276,0,0,1-2.063.4c-.088.483.044.658.176.746a6.965,6.965,0,0,0-1.01.176c.088.351.483.571.615.7a1.415,1.415,0,0,0-.351.615,1.761,1.761,0,0,0,1.931-.176c.219-.263.439-.088.219.219a3.229,3.229,0,0,1-3.38.79,1.457,1.457,0,0,0,.79,1.4c-1.361,1.58-.483,3.029-1.449,4.39a3.311,3.311,0,0,0,3.292-1.931.827.827,0,0,0,.7.746,1.884,1.884,0,0,1,.263-1.054,3.525,3.525,0,0,0,1.931.4c-1.01-1.712,1.844-3.468.7-5.794-.176-.351.307-.571.351-.219.263,2.019,1.449,2.458,2.414,1.844-.307-.307-.439-.307-.615-.615.658.176,1.01-.307,1.185-.922-1.624-.571-.658-2.151-1.8-3.643m.176,3.995a3.453,3.453,0,0,0,.4,1.01c-1.317-.088-.7-2.853-2.019-2.195a.721.721,0,0,0-.307.966c.878,1.8-1.1,3.336-1.01,4.916a1.23,1.23,0,0,1-1.317-.658,6.423,6.423,0,0,0-.571,1.229l-.4-.658a2.972,2.972,0,0,1-2.678,2.239c.658-1.054-.132-2.5,1.492-4.038a6.419,6.419,0,0,1-.834-.7c1.975.219,4.038-1.317,3.117-2.063-.615-.483-.878.527-1.844.351l.351-.307a4.139,4.139,0,0,0-.439-.439,2.49,2.49,0,0,0,.834-.307l-.176-.4c2.326,0,2.37-1.8,1.449-1.844-.439-.044-1.01.79-2.458.615a3.119,3.119,0,0,0,.351-.79,4.765,4.765,0,0,1-1.1-.176,2.445,2.445,0,0,0,1.449-.746l-.658-.263c.966-.483.922-1.361.966-2.239-.527.307-1.1.746-1.756.527-.132-.044-.263-.132-.263-.263.922-.351,1.492-1.8-.7-2.985-1.4-.746-4.829-2.414-2.5-4.214.307-.263.658-.483.966-.746.351.263-.132.966-.263,1.229,0,0,.79.088.966.088,1.185,0,2.458-.7,1.8-2.063.483.088.527.571.658.966.307-.219.834-.658,1.229-.571a4.059,4.059,0,0,1-2.809,2.239c1.1.615,3.117,1.054,4.17-.263.746,1.449-.307,2.063-1.317,2.809,3.907,1.8,3.336,3.775,5.882,5.355a6.436,6.436,0,0,1-1.931-.176,5.677,5.677,0,0,1,.966,1.361,6.125,6.125,0,0,1,.4,1.492,2.209,2.209,0,0,0,1.1,1.668c-.263.527-.922.088-1.185.044" transform="translate(-26.879 -6.252)" fill-rule="evenodd"/>
      <path id="Path_166" data-name="Path 166" d="M32.325,50.858l.571-.483-.088-.176c-.044-.132-.044-.132.044-.176l.307-.219a.4.4,0,0,1,.219-.044l.878.219h-.922c-.219,0-.263.088-.351.263l-.088.176-.219.483a.549.549,0,0,0,.088.658l.176.219-.351.7H32.9L33.115,52a1.986,1.986,0,0,0,.439-.658c-.088-.088-.176-.132-.132-.263l.088-.219c.044-.088.044-.088.132-.088l.922.219c.132.044.263.088.4-.088s.132-.176.439-.132l.483.044a2.44,2.44,0,0,0,1.536-.307,5.481,5.481,0,0,0,.351.527c.044.044,0,.132-.044.219L37.2,52.526h.834l.483-1.141a.715.715,0,0,1,.132-.263l-.263,1.4h.79l.219-1.4c.044-.307,0-.4-.132-.527-.351-.263-.307-.878-.439-1.229a.329.329,0,0,1,.219-.044c.176,0,.307.439.527.746.4.571.966,1.185,1.58.307a1.164,1.164,0,0,0-.219-.263l-.219-.263c-.088-.132-.615-.658-.79-.878a1.164,1.164,0,0,0-1.449-.176,2.064,2.064,0,0,0-1.492,0l-1.1-.088a.175.175,0,0,1-.176-.088l.219-.088a1.817,1.817,0,0,0-1.536-1.58s-.044-.263-.176-.307l-.263.307c-.088,0-.132.044-.219.044l-1.1-.4.834.834s-.439.615-.527.7c-.088.132-.088.219,0,.307l.176.219a.26.26,0,0,0,.307.044l.176-.088c.088-.044.351.044.439-.044a3.5,3.5,0,0,0-.132.658l-.746-.088c-.176,0-.219,0-.307.088l-.615.483a.539.539,0,0,0-.132.7Zm6.014.176-.483,1.229h-.307l.483-1.185c.044-.132-.044-.219-.176-.4a5.878,5.878,0,0,0,.527.263.136.136,0,0,1-.044.088M33.6,48.356l-.132.088c-.088.044-.132.088-.219-.044l-.044-.088c-.044-.044-.044-.132.044-.219l.615-.7-.571-.439.7.263.263-.307c.088.044.044.263.044.263a1.372,1.372,0,0,1,1.141,1.449.764.764,0,0,0,.439.307l1.229.088c.219,0,.7-.4,1.361,0A2.686,2.686,0,0,1,39,48.795a1.588,1.588,0,0,1,1.317.746c.219.307.571.746.571.746-.132.176-.263.219-.4.176a.5.5,0,0,1-.263-.4,1.353,1.353,0,0,0-.439-.571,1.84,1.84,0,0,1,.176.658c-.483-.483-.571-1.054-.922-1.141-.132-.044-.307.044-.483.219.176.4.176.834.351,1.141a1.33,1.33,0,0,0,.219.307c.132.088.044.307.044.439L39,52.263H38.69l.219-1.141c.044-.351-.878-.351-1.4-1.01-.439.483-1.58.351-2.107.307a.48.48,0,0,0-.527.176c-.044.132-.176.088-.263.044l-.922-.219c-.176-.044-.219,0-.307.132l-.176.4c-.044.088-.044.176.044.219l.088.088a.652.652,0,0,1-.219.307l-.219-.176a.5.5,0,0,1-.044-.439l.307-.615a.2.2,0,0,1,.219-.132H34.52l-.351-.571c-.263-.439.176-1.185.088-1.536,0,.439-.571.219-.658.263M32.369,49.8l.527-.4c.088-.088.176-.132.263-.088l.746.088a1.169,1.169,0,0,0,.176.351l-.834-.176a.323.323,0,0,0-.263.088l-.4.307c-.088.044-.088.176-.044.263l.044.132-.263.219-.088-.176c-.044-.307-.044-.483.132-.615" transform="translate(-18.102 -26.188)" fill-rule="evenodd"/>
      <path id="Path_167" data-name="Path 167" d="M37.707,19.951a5.291,5.291,0,0,0,.834.439v-.351L37.4,19.6s0,.132.307.351" transform="translate(-21.115 -11.04)" fill-rule="evenodd"/>
      <path id="Path_168" data-name="Path 168" d="M38.317,18.334v-.351L37,17.5a4.181,4.181,0,0,0,.483.4,5.291,5.291,0,0,0,.834.439" transform="translate(-20.89 -9.862)" fill-rule="evenodd"/>
      <path id="Path_169" data-name="Path 169" d="M38.149,16.478v-.351L36.7,15.6a6.2,6.2,0,0,0,.615.439,5.291,5.291,0,0,0,.834.439" transform="translate(-20.722 -8.796)" fill-rule="evenodd"/>
      <path id="Path_170" data-name="Path 170" d="M49.2,27.939h1.449a.671.671,0,0,0-.7-.439.855.855,0,0,0-.746.439" transform="translate(-27.735 -15.472)" fill-rule="evenodd"/>
      <path id="Path_171" data-name="Path 171" d="M43.849,15.6l-1.449.527v.351a5.291,5.291,0,0,0,.834-.439,4.68,4.68,0,0,0,.615-.439" transform="translate(-23.92 -8.796)" fill-rule="evenodd"/>
      <path id="Path_172" data-name="Path 172" d="M43.541,19.6l-1.141.439v.351a5.291,5.291,0,0,0,.834-.439c.307-.219.307-.351.307-.351" transform="translate(-23.92 -11.04)" fill-rule="evenodd"/>
      <path id="Path_173" data-name="Path 173" d="M43.717,17.6l-1.317.483v.351A5.291,5.291,0,0,0,43.234,18a4.18,4.18,0,0,0,.483-.4" transform="translate(-23.92 -9.918)" fill-rule="evenodd"/>
      <path id="Path_174" data-name="Path 174" d="M30.6,27.5c-.439,0-.658.219-.7.439h1.449A.855.855,0,0,0,30.6,27.5" transform="translate(-16.907 -15.472)" fill-rule="evenodd"/>
      <path id="Path_175" data-name="Path 175" d="M35.513,11.48c0-.834-1.4-1.58-2.9-1.58-1.536,0-2.9.746-2.9,1.58l.044.219.615,3.512-2.9,1.668a1.661,1.661,0,0,0-.746,1.185h.527a1.172,1.172,0,0,1,1.229-1.01,1.891,1.891,0,0,1,1.449,1.01l.088.132.132.219H25.9a4.707,4.707,0,0,1,.615,2.019V29.3a3.337,3.337,0,0,0,3.643,3.38c1.449,0,1.668-.088,2.458.746.79-.79,1.01-.746,2.458-.746a3.337,3.337,0,0,0,3.643-3.38V20.479a4.707,4.707,0,0,1,.615-2.019H35.074l.132-.219.088-.132c.4-.571.79-1.01,1.449-1.01a1.172,1.172,0,0,1,1.229,1.01H38.5a1.757,1.757,0,0,0-.746-1.185L34.9,15.211l.615-3.512Zm-5.224.4,2.151.746V16l-1.58-.834Zm.527,7.2a2.128,2.128,0,0,0,1.273.79,1.067,1.067,0,0,0,.4.615,1.078,1.078,0,0,0,.834,1.317.954.954,0,0,0,.571.658l-.439.527a.547.547,0,0,1-.571.219l-2.019-.219c.088-.219-.132-.483-.79-.351l.79-2.239-.483-1.01-.922.746-.088,2.326-.4-.176c-.527-.219-.658.7-.176.7h.176c0,.088,0,.219.088.219-.088.044-.132.219,0,.263a.186.186,0,0,0-.044.307.4.4,0,0,0,.219.615c.307.088.483-.219.527-.439l3.117.966a1.126,1.126,0,0,0,1.141-.263l.834-.7c-.088.483.044.878.439,1.01,0,0-.044.439-.044.615H27.129V20.479a3.843,3.843,0,0,0-.307-1.4Zm3.38,1.931a1.013,1.013,0,0,0,.044,1.054l-.132.132c-.571-.088-.834-.966-.834-.966v.219a.772.772,0,0,1-.527-.834.742.742,0,0,0,.439.132l.044-.263a1,1,0,0,1-.746-.615h.176a3.412,3.412,0,0,0,.7-.088.981.981,0,0,0,.79.439.85.85,0,0,0,.044.79m.878,2.326-.132.263-.307.307a1.592,1.592,0,0,0-.571-1.273l.351-.351.088.088a.728.728,0,0,0,.571.966m-1.58-.132.263-.263a1.563,1.563,0,0,1,.527,1.273l-.307.263c-.044.044-.132.088-.176.132a1.563,1.563,0,0,0-.307-1.4m-.615.219h0a.747.747,0,0,0,.307-.044,1.558,1.558,0,0,1,.132,1.4c-.132,0-.263-.044-.4-.044l-.088-.044a1.819,1.819,0,0,0,.044-1.273m-.658-.088.4.044a2.244,2.244,0,0,1-.176,1.185L32,24.43a1.907,1.907,0,0,0,.219-1.1m-.79-.088.483.044a1.835,1.835,0,0,1-.219,1.054l-.483-.132a1.566,1.566,0,0,0,.219-.966m-1.888-.132c-.219.088-.307-.088-.307-.219a.668.668,0,0,1,.746.044,3.192,3.192,0,0,1,.351.4c-.044.176-.088.439-.132.571a.452.452,0,0,1-.307-.7c-.088-.132-.176-.132-.351-.088m-.307.834s.132.044.307.088c0,.088-.088.176-.176.132-.132,0-.132-.132-.132-.219m-.4-1.229c-.088-.088-.044-.219.044-.219a1.513,1.513,0,0,1,.483.219,2.082,2.082,0,0,1-.527,0m.439.922c.088.088.351.044.351.044v.044c-.088.176-.439.088-.351-.088m.351-.219c-.219.088-.4-.044-.351-.176.088.088.351.044.351.044Zm.307-2.326-.4,1.4.132-2.239.571-.527.307.658-.746,2.195.219-1.492c0-.088-.088-.088-.088,0m.044,1.712a2.519,2.519,0,0,1,.527.044c.088.044.044.176-.088.176a3.914,3.914,0,0,1-.439-.219m.658.351.483.044a1.658,1.658,0,0,1-.176.922l-.439-.132c.044-.263.088-.571.132-.834M38.1,29.346a2.575,2.575,0,0,1-1.317,2.37l.307-.615h-.307l-.4.79a4.138,4.138,0,0,1-1.317.219c-1.492,0-1.888.044-2.458.615-.571-.571-.966-.615-2.458-.615a4.138,4.138,0,0,1-1.317-.219h0l.4-.79h-.307l-.351.658a.96.96,0,0,1-.219-.132l.263-.571h-.263l-.219.439a2.549,2.549,0,0,1-1.01-2.151v-3.38H38.1Zm.307-10.272a3.843,3.843,0,0,0-.307,1.4v5.18h-.615a3.527,3.527,0,0,1-.483-1.141,1.633,1.633,0,0,0,.176,1.141h-.79a5.281,5.281,0,0,1-.351-1.185,1.4,1.4,0,0,0,.044,1.185H35.6a1.982,1.982,0,0,1,.088-.746c-.263-.044-.571-.176-.571-.483.132.132.176.132.4.132l.219-.176c-.7.044-.746-.79-.176-1.141-.571,0-1.01-.307-.79-.922a.878.878,0,0,1-.263-1.229,1.028,1.028,0,0,1-.132-1.01,1.17,1.17,0,0,1-.79-.307h-.044a2.211,2.211,0,0,0,.878-.658H38.41Zm-2.195-2.5c-.615.088-1.1.834-1.536,1.492l-.044.088H34.2v.088a1.427,1.427,0,0,1-1.58,1.185,1.563,1.563,0,0,1-1.1-.351,1.456,1.456,0,0,1-.439-.615.477.477,0,0,1-.044-.219v-.088H30.6l-.044-.088c-.439-.658-.922-1.4-1.536-1.492l1.624-.922,1.975,1.1,1.975-1.1Zm-1.844-1.4L32.792,16v-3.38l2.151-.746Zm-1.756-2.941-2.37-.922c.219-.483,1.141-.878,2.37-.878s2.151.4,2.37.878Z" transform="translate(-14.663 -5.598)" fill-rule="evenodd"/>
      <path id="Path_176" data-name="Path 176" d="M51.807,36.829v-.263c-.79,0-.966-.966-.966-.966a.969.969,0,0,0,.966,1.229" transform="translate(-28.63 -20.017)" fill-rule="evenodd"/>
      <path id="Path_177" data-name="Path 177" d="M49.431,40.485l-.088-.263c-.658.176-1.01-.922-1.01-.922a.911.911,0,0,0,1.1,1.185" transform="translate(-27.219 -22.093)" fill-rule="evenodd"/>
      <path id="Path_178" data-name="Path 178" d="M50.424,38.634c-.79.132-1.141-.834-1.141-.834a.927.927,0,0,0,.79,1.1c-.132.658.483,1.01,1.054.79l-.088-.219a.541.541,0,0,1-.615-.834" transform="translate(-27.774 -21.251)" fill-rule="evenodd"/>
      <path id="Path_179" data-name="Path 179" d="M49.507,32.029v-.263c-1.054-.219-.966-.966-.966-.966a.969.969,0,0,0,.966,1.229" transform="translate(-27.34 -17.324)" fill-rule="evenodd"/>
      <path id="Path_180" data-name="Path 180" d="M34.951,58.1l-.351.79h.263l.4-.79Z" transform="translate(-19.544 -32.64)" fill-rule="evenodd"/>
      <path id="Path_181" data-name="Path 181" d="M36.251,58.1l-.351.79h.263l.4-.79Z" transform="translate(-20.273 -32.64)" fill-rule="evenodd"/>
      <path id="Path_182" data-name="Path 182" d="M41.5,58.1l-.4.79h.307l.4-.79Z" transform="translate(-23.19 -32.64)" fill-rule="evenodd"/>
      <path id="Path_183" data-name="Path 183" d="M42.8,58.1l-.4.79h.307l.4-.79Z" transform="translate(-23.92 -32.64)" fill-rule="evenodd"/>
      <path id="Path_184" data-name="Path 184" d="M40.2,58.1l-.4.79h.307l.351-.79Z" transform="translate(-22.461 -32.64)" fill-rule="evenodd"/>
      <path id="Path_185" data-name="Path 185" d="M48.4,58.89h.263l.4-.79h-.307Z" transform="translate(-27.286 -32.64)" fill-rule="evenodd"/>
      <path id="Path_186" data-name="Path 186" d="M37.6,58.1l-.4.79h.263l.4-.79Z" transform="translate(-21.002 -32.64)" fill-rule="evenodd"/>
      <path id="Path_187" data-name="Path 187" d="M38.9,58.1l-.4.79h.307l.351-.79Z" transform="translate(-21.732 -32.64)" fill-rule="evenodd"/>
      <path id="Path_188" data-name="Path 188" d="M36.288,48.6c-.044,0-.088.044-.088.132,0,.044.044.132.088.132s.088-.044.088-.132-.044-.132-.088-.132" transform="translate(-20.441 -27.31)" fill-rule="evenodd"/>
      <path id="Path_189" data-name="Path 189" d="M36.936,5.726a4.072,4.072,0,0,1,2.634.834,5.709,5.709,0,0,1,.7-1.756l-.966.088-.483-1.054-.966.483L36.936,3.4l-.922.922-.966-.483-.483,1.054L33.6,4.8a5.709,5.709,0,0,1,.7,1.756,4.072,4.072,0,0,1,2.634-.834m-2.239-.4.439-.966.834.439.922-.922.922.922.834-.439.439.966.571-.088a3.667,3.667,0,0,0-.351.834,4.319,4.319,0,0,0-2.37-.658,5.03,5.03,0,0,0-2.414.615,3.667,3.667,0,0,0-.351-.834Z" transform="translate(-18.983 -1.951)" fill-rule="evenodd"/>
      <path id="Path_190" data-name="Path 190" d="M43.119,3.446a.246.246,0,0,0,.263-.219,2.406,2.406,0,0,0-.176-.527s-.307.307-.307.483a.246.246,0,0,0,.219.263" transform="translate(-24.2 -1.559)" fill-rule="evenodd"/>
      <path id="Path_191" data-name="Path 191" d="M46.829,4.915c.132.088.263,0,.351-.088a1.185,1.185,0,0,0,.044-.527,1.658,1.658,0,0,0-.483.307c-.088.088-.044.219.088.307" transform="translate(-26.33 -2.456)" fill-rule="evenodd"/>
      <path id="Path_192" data-name="Path 192" d="M38.656,3.446a.22.22,0,0,0,.219-.263c0-.132-.307-.483-.307-.483s-.219.351-.176.527a.246.246,0,0,0,.263.219" transform="translate(-21.668 -1.559)" fill-rule="evenodd"/>
      <path id="Path_193" data-name="Path 193" d="M34.881,4.858a.237.237,0,0,0,.088-.351c-.044-.132-.483-.307-.483-.307s-.044.439.044.527a.294.294,0,0,0,.351.132" transform="translate(-19.474 -2.4)" fill-rule="evenodd"/>
      <path id="Path_194" data-name="Path 194" d="M72.041,19.465a1.3,1.3,0,0,0,.7-.746c-.834-.132-3.117-1.054-4.96-.307.7-.658,1.317-.746,1.361-1.712a.674.674,0,0,0,1.054-.176c-.176-.571-.658-.088-.746-.263-.088-.219.615.088.746-.658-.527-.176-.7.263-.79.176s.351-.307.044-.878c-.571.351-.263.7-.4.746s-.044-.4-.658-.4c-.044.658.571.7.483.79-.132.132-.307-.4-.79-.132a.7.7,0,0,0,.922.7c-.088,1.054-1.01.834-1.712,2.019,1.492.79,2.195,2.107,3.117,3.029a5.436,5.436,0,0,0,.834-1.185,1.2,1.2,0,0,0,1.712,0c-.4-.263-.4-.527-.922-1.01m-1.449.176a1.728,1.728,0,0,1-.176,1.624,6.935,6.935,0,0,0-1.931-2.458c-.132-.088.088-.263.439-.307a7.428,7.428,0,0,1,3.161.439,1.712,1.712,0,0,1-.834.351,6,6,0,0,1,1.054,1.1c-.483.132-.746-.132-1.712-.746" transform="translate(-37.89 -8.403)" fill-rule="evenodd"/>
      <path id="Path_195" data-name="Path 195" d="M38.089,63.573V62.3a11.5,11.5,0,0,1-3.819.966l-.088.439c.132,0,.307.044.527.044a13.819,13.819,0,0,1-1.756.132,13.269,13.269,0,0,1-1.756-.132c.219,0,.4-.044.527-.044l-.088-.439a11.5,11.5,0,0,1-3.819-.966v1.273L26.5,64.1a15.508,15.508,0,0,0,3.424,1.273l-.176.527a11.916,11.916,0,0,0,6.409,0l-.176-.527A16.389,16.389,0,0,0,39.405,64.1ZM27.2,64.144l.878-.351V62.739a14.738,14.738,0,0,0,2.414.658l-.527,1.668a15.658,15.658,0,0,1-2.765-.922m5.75,1.888A11.812,11.812,0,0,1,30.1,65.68l.527-1.756a11.747,11.747,0,0,0,2.283.176,11.746,11.746,0,0,0,2.283-.176l.527,1.756a10.575,10.575,0,0,1-2.765.351m2.941-.966L35.367,63.4a14.739,14.739,0,0,0,2.414-.658v1.054l.878.351a13.535,13.535,0,0,1-2.765.922" transform="translate(-14.999 -34.997)" fill-rule="evenodd"/>
      <path id="Path_196" data-name="Path 196" d="M4.066,20.675A5.436,5.436,0,0,0,4.9,21.86c.922-.922,1.58-2.283,3.117-3.029-.7-1.185-1.668-.966-1.712-2.019a.729.729,0,0,0,.922-.7c-.483-.263-.658.263-.79.132-.088-.088.527-.132.483-.79-.615,0-.527.439-.658.4s.176-.439-.4-.746c-.307.615.132.79.044.878s-.263-.351-.79-.176c.132.746.834.439.746.658-.088.176-.527-.307-.746.263a.674.674,0,0,0,1.054.176c.044.966.7,1.01,1.361,1.712-1.844-.79-4.082.176-4.96.307a1.457,1.457,0,0,0,.7.746c-.527.483-.527.746-.878,1.1a1.283,1.283,0,0,0,1.668-.088m-1.054-.132a6,6,0,0,1,1.054-1.1,1.559,1.559,0,0,1-.834-.351,7.319,7.319,0,0,1,3.161-.439c.4.044.571.219.439.307a6.011,6.011,0,0,0-1.975,2.414,1.728,1.728,0,0,1-.176-1.624c-.966.615-1.229.878-1.668.79" transform="translate(-1.476 -8.516)" fill-rule="evenodd"/>
      <path id="Path_197" data-name="Path 197" d="M39.4,26.144v.571a.722.722,0,0,1,.571-.176v.79a1.221,1.221,0,0,1-.132.571h.79a1.221,1.221,0,0,1-.132-.571V26.5a.755.755,0,0,1,.571.176V26.1H39.4Z" transform="translate(-22.237 -14.687)" fill-rule="evenodd"/>
    </g>
  </g>
</svg>
