<svg xmlns="http://www.w3.org/2000/svg" width="31.999" height="32.001" viewBox="0 0 31.999 32.001">
  <g id="transcapitalBank" transform="translate(0)">
    <path id="Path_198" data-name="Path 198" d="M0,7.767H7.622a38.9,38.9,0,0,0,14.32,14.321v7.621A35.165,35.165,0,0,1,0,7.767" transform="translate(0 2.291)" fill="#fff"/>
    <path id="Path_199" data-name="Path 199" d="M20.206,7.767V22.088A38.888,38.888,0,0,1,5.885,7.767Z" transform="translate(1.736 2.291)" fill="#00b4ae"/>
    <path id="Path_200" data-name="Path 200" d="M21.123,10.058H6.8A38.442,38.442,0,0,1,2.777,0h8.289A10.058,10.058,0,0,1,21.123,10.057" transform="translate(0.819)" fill="#fff"/>
    <path id="Path_201" data-name="Path 201" d="M27,17.826v8.283a38.35,38.35,0,0,1-10.057-4.02V7.767A10.058,10.058,0,0,1,27,17.825" transform="translate(4.998 2.291)" fill="#fff"/>
    <path id="Path_202" data-name="Path 202" d="M16.883,0A13.333,13.333,0,0,0,27.019,10.137V0Z" transform="translate(4.98 0)" fill="#fff"/>
  </g>
</svg>
