<svg xmlns="http://www.w3.org/2000/svg" width="32.781" height="32.001" viewBox="0 0 32.781 32.001">
  <g id="unicreditBank" transform="translate(0 -0.106)">
    <path id="Path_203" data-name="Path 203" d="M17.061,8.37l.03-.042a.53.53,0,0,0-.022-.77c-.108-.093-2.649-1.594-2.649-1.594a.667.667,0,0,1-.3-.559c0-.367.226-.647.738-.785a63.494,63.494,0,0,1,9.331-.667c.677,0,1.843,0,2.891.025l-.045-.042A16.562,16.562,0,0,0,16.39.107,16.2,16.2,0,0,0,0,16.106,15.716,15.716,0,0,0,3.776,26.325c2.059-2.891,7.144-10.016,8.256-11.472,1.284-1.676,4.212-5.408,4.706-6.039l.025-.032.3-.413M6.4,28.788a16.576,16.576,0,0,0,9.995,3.319,16.2,16.2,0,0,0,16.39-16,15.629,15.629,0,0,0-1.86-7.41,2.157,2.157,0,0,0,.789-2.423,6.909,6.909,0,0,0-.935-1.2l.024.061a2.164,2.164,0,0,1-.957,2.413c-.312.278-4.473,4.108-9.353,8.273q-5.79,4.923-11.9,9.447C4.665,28.135,3.9,28.551,3.9,28.551a.991.991,0,0,1-.4.1.73.73,0,0,1-.578-.271l0-.005a.133.133,0,0,0-.01.121c.421.666,1.117,1.436,1.523,1.436a1.023,1.023,0,0,0,.4-.1s.308-.167,1.562-1.041" transform="translate(0 0)" fill="#fff" fill-rule="evenodd"/>
    <path id="Path_204" data-name="Path 204" d="M15.948,6.762a.529.529,0,0,0-.024-.77c-.106-.093-2.649-1.6-2.649-1.6a.667.667,0,0,1-.3-.558c0-.369.226-.647.738-.785a63.528,63.528,0,0,1,9.331-.667c.922,0,2.746-.007,3.949.071,1.348.086,2.369.359,2.623,1A2.136,2.136,0,0,1,28.7,5.988c-.31.275-4.472,4.106-9.351,8.271q-5.789,4.923-11.9,9.447c-3.922,2.864-4.684,3.28-4.684,3.28a.991.991,0,0,1-.4.1.7.7,0,0,1-.6-1.107s7.722-10.857,9.127-12.694,4.777-6.133,4.777-6.133.04-.047.281-.393" transform="translate(1.12 1.561)" fill="#db322a" fill-rule="evenodd"/>
  </g>
</svg>
