<svg xmlns="http://www.w3.org/2000/svg" width="30.957" height="32" viewBox="0 0 30.957 32">
  <g id="qiwi" transform="translate(-54.021 46.336)">
    <path id="path5491" d="M24.649,21.76c.538.207.745,1.013.786,1.365.083.642-.1.89-.31.89s-.5-.248-.807-.744a1.515,1.515,0,0,1-.269-1.345.456.456,0,0,1,.6-.165ZM21.5,24.1a1.614,1.614,0,0,1,1.034.434c.641.538.827,1.159.5,1.614a1.09,1.09,0,0,1-.848.372,1.476,1.476,0,0,1-.972-.352,1.359,1.359,0,0,1-.373-1.779A.8.8,0,0,1,21.5,24.1Zm-7.239,5.978a14.208,14.208,0,1,1,12.225-6.929.094.094,0,0,1-.166-.042,6.61,6.61,0,0,0-5.73-6c-.269-.042-.311-.207.041-.248a14.132,14.132,0,0,1,3,.062,9.518,9.518,0,0,0,.062-1.1,9.412,9.412,0,1,0-9.412,9.412h.434a12.7,12.7,0,0,1-.186-2.545c.021-.579.145-.662.393-.207a9.819,9.819,0,0,0,6.805,5.089c2.979.662,5.957,1.427,9.163,5.5.289.352-.145.724-.476.435-3.268-2.9-6.247-3.848-8.956-3.848-3.041.021-5.109.414-7.2.414Z" transform="translate(53.987 -47.949)" fill="#fff"/>
  </g>
</svg>
