<svg xmlns="http://www.w3.org/2000/svg" width="16.029" height="32" viewBox="0 0 16.029 32">
  <g id="zenitBank" transform="translate(0 -0.242)">
    <path id="Path_208" data-name="Path 208" d="M0,67.047l16.029-.018L16.02,51.161A24.69,24.69,0,0,1,.008,63.183C.026,64.381,0,67.047,0,67.047" transform="translate(0 -34.806)" fill="#fff"/>
    <path id="Path_209" data-name="Path 209" d="M16.195,41.624a22.438,22.438,0,0,0,8.966-8.642s-.021-1.835-.021-1.873A23.394,23.394,0,0,1,16.2,25.655c.014,4.354-.006,15.969-.006,15.969" transform="translate(-11.07 -17.371)" fill="#fff"/>
    <path id="Path_210" data-name="Path 210" d="M18.9.242s0,4.852-.008,6.062a24.218,24.218,0,0,0,4.039,3.223l.013-6.5A20.793,20.793,0,0,1,18.9.242" transform="translate(-12.917 0)" fill="#fff"/>
  </g>
</svg>
